<svg xmlns="http://www.w3.org/2000/svg" xmlns:xlink="http://www.w3.org/1999/xlink" width="512" zoomAndPan="magnify" viewBox="0 0 384 383.999986" height="512" preserveAspectRatio="xMidYMid meet" version="1.0"><defs><clipPath id="236b8007e3"><path d="M 38.398438 30.484375 L 353.398438 30.484375 L 353.398438 345.484375 L 38.398438 345.484375 Z M 38.398438 30.484375 " clip-rule="nonzero"/></clipPath></defs><g clip-path="url(#236b8007e3)"><path fill="#000000" d="M 130.667969 31.585938 C 113.910156 32.375 102.46875 35.050781 92.464844 38.980469 C 82.109375 43.015625 73.332031 48.433594 64.601562 57.195312 C 55.871094 65.957031 50.492188 74.742188 46.484375 85.109375 C 42.609375 95.136719 39.980469 106.589844 39.242188 123.359375 C 38.5 140.125 38.335938 145.515625 38.417969 188.285156 C 38.5 231.054688 38.691406 236.417969 39.503906 253.21875 C 40.300781 269.976562 42.96875 281.414062 46.898438 291.421875 C 50.941406 301.777344 56.347656 310.550781 65.113281 319.285156 C 73.882812 328.019531 82.65625 333.382812 93.050781 337.398438 C 103.070312 341.269531 114.527344 343.910156 131.289062 344.640625 C 148.054688 345.375 153.449219 345.546875 196.207031 345.464844 C 238.964844 345.382812 244.351562 345.195312 261.148438 344.398438 C 277.949219 343.601562 289.328125 340.914062 299.339844 337.003906 C 309.695312 332.953125 318.472656 327.554688 327.203125 318.785156 C 335.929688 310.015625 341.304688 301.226562 345.308594 290.851562 C 349.1875 280.832031 351.824219 269.375 352.550781 252.625 C 353.285156 235.8125 353.460938 230.445312 353.378906 187.679688 C 353.296875 144.917969 353.105469 139.554688 352.308594 122.757812 C 351.511719 105.964844 348.84375 94.558594 344.914062 84.542969 C 340.867188 74.191406 335.464844 65.421875 326.699219 56.683594 C 317.9375 47.941406 309.140625 42.570312 298.769531 38.574219 C 288.746094 34.699219 277.296875 32.054688 260.53125 31.332031 C 243.765625 30.605469 238.371094 30.421875 195.597656 30.503906 C 152.824219 30.585938 147.46875 30.765625 130.667969 31.585938 M 132.507812 316.308594 C 117.152344 315.640625 108.816406 313.089844 103.257812 310.953125 C 95.898438 308.117188 90.660156 304.691406 85.121094 299.207031 C 79.582031 293.722656 76.179688 288.460938 73.308594 281.121094 C 71.152344 275.5625 68.550781 267.234375 67.832031 251.878906 C 67.050781 235.28125 66.886719 230.296875 66.796875 188.246094 C 66.707031 146.199219 66.867188 141.222656 67.59375 124.617188 C 68.25 109.273438 70.816406 100.925781 72.949219 95.375 C 75.785156 88.003906 79.199219 82.773438 84.695312 77.238281 C 90.191406 71.703125 95.4375 68.296875 102.785156 65.421875 C 108.335938 63.257812 116.664062 60.679688 132.015625 59.949219 C 148.625 59.160156 153.601562 59.003906 195.644531 58.914062 C 237.6875 58.820312 242.675781 58.976562 259.292969 59.710938 C 274.636719 60.375 282.988281 62.917969 288.535156 65.0625 C 295.898438 67.898438 301.136719 71.304688 306.667969 76.808594 C 312.203125 82.316406 315.617188 87.542969 318.488281 94.90625 C 320.660156 100.441406 323.234375 108.765625 323.960938 124.125 C 324.75 140.738281 324.929688 145.714844 325.007812 187.757812 C 325.082031 229.796875 324.933594 234.789062 324.207031 251.386719 C 323.535156 266.742188 320.988281 275.085938 318.851562 280.648438 C 316.015625 288.003906 312.597656 293.246094 307.097656 298.777344 C 301.597656 304.308594 296.359375 307.71875 289.007812 310.589844 C 283.464844 312.753906 275.125 315.335938 259.789062 316.070312 C 243.179688 316.851562 238.203125 317.015625 196.140625 317.105469 C 154.082031 317.195312 149.121094 317.027344 132.511719 316.308594 M 260.90625 103.804688 C 260.90625 104.425781 260.9375 105.042969 261 105.660156 C 261.0625 106.273438 261.152344 106.886719 261.277344 107.492188 C 261.398438 108.101562 261.550781 108.699219 261.730469 109.292969 C 261.910156 109.882812 262.121094 110.464844 262.359375 111.035156 C 262.59375 111.609375 262.859375 112.167969 263.152344 112.710938 C 263.445312 113.257812 263.765625 113.789062 264.109375 114.300781 C 264.453125 114.816406 264.824219 115.3125 265.21875 115.789062 C 265.609375 116.265625 266.027344 116.726562 266.464844 117.160156 C 266.902344 117.597656 267.363281 118.011719 267.84375 118.40625 C 268.320312 118.796875 268.816406 119.164062 269.332031 119.507812 C 269.847656 119.851562 270.378906 120.167969 270.925781 120.457031 C 271.472656 120.75 272.03125 121.011719 272.605469 121.25 C 273.175781 121.484375 273.757812 121.691406 274.351562 121.871094 C 274.945312 122.050781 275.542969 122.199219 276.152344 122.316406 C 276.757812 122.4375 277.371094 122.527344 277.988281 122.585938 C 278.605469 122.644531 279.222656 122.675781 279.839844 122.675781 C 280.460938 122.671875 281.078125 122.640625 281.691406 122.578125 C 282.308594 122.519531 282.921875 122.425781 283.527344 122.304688 C 284.132812 122.183594 284.734375 122.03125 285.324219 121.851562 C 285.917969 121.667969 286.5 121.460938 287.070312 121.222656 C 287.640625 120.984375 288.199219 120.71875 288.746094 120.425781 C 289.292969 120.132812 289.820312 119.816406 290.335938 119.46875 C 290.847656 119.125 291.34375 118.757812 291.824219 118.363281 C 292.300781 117.96875 292.757812 117.550781 293.195312 117.113281 C 293.632812 116.675781 294.046875 116.214844 294.4375 115.738281 C 294.832031 115.257812 295.199219 114.761719 295.539062 114.246094 C 295.882812 113.730469 296.199219 113.199219 296.492188 112.652344 C 296.78125 112.105469 297.046875 111.546875 297.28125 110.972656 C 297.515625 110.402344 297.722656 109.820312 297.902344 109.226562 C 298.082031 108.632812 298.230469 108.035156 298.351562 107.425781 C 298.46875 106.820312 298.558594 106.207031 298.617188 105.589844 C 298.679688 104.976562 298.707031 104.359375 298.707031 103.738281 C 298.707031 103.121094 298.671875 102.503906 298.613281 101.886719 C 298.550781 101.269531 298.457031 100.660156 298.335938 100.050781 C 298.214844 99.445312 298.0625 98.84375 297.882812 98.253906 C 297.703125 97.660156 297.492188 97.078125 297.253906 96.507812 C 297.015625 95.9375 296.75 95.378906 296.457031 94.832031 C 296.164062 94.289062 295.847656 93.757812 295.5 93.242188 C 295.15625 92.730469 294.785156 92.234375 294.394531 91.757812 C 294 91.277344 293.582031 90.820312 293.144531 90.382812 C 292.707031 89.945312 292.246094 89.53125 291.769531 89.140625 C 291.289062 88.75 290.792969 88.382812 290.277344 88.039062 C 289.761719 87.695312 289.230469 87.378906 288.683594 87.089844 C 288.136719 86.796875 287.578125 86.535156 287.003906 86.300781 C 286.433594 86.0625 285.851562 85.855469 285.257812 85.675781 C 284.664062 85.5 284.0625 85.351562 283.457031 85.230469 C 282.847656 85.109375 282.238281 85.019531 281.621094 84.960938 C 281.003906 84.902344 280.386719 84.875 279.769531 84.875 C 279.148438 84.875 278.53125 84.90625 277.917969 84.96875 C 277.300781 85.03125 276.691406 85.121094 276.082031 85.246094 C 275.476562 85.367188 274.878906 85.519531 274.285156 85.699219 C 273.691406 85.878906 273.113281 86.089844 272.539062 86.328125 C 271.96875 86.566406 271.410156 86.832031 270.867188 87.121094 C 270.320312 87.414062 269.789062 87.734375 269.277344 88.078125 C 268.761719 88.425781 268.265625 88.792969 267.789062 89.1875 C 267.3125 89.582031 266.855469 89.996094 266.417969 90.433594 C 265.980469 90.871094 265.566406 91.332031 265.175781 91.8125 C 264.78125 92.289062 264.414062 92.789062 264.074219 93.300781 C 263.730469 93.816406 263.414062 94.347656 263.121094 94.894531 C 262.832031 95.441406 262.570312 96 262.332031 96.574219 C 262.097656 97.144531 261.890625 97.726562 261.710938 98.320312 C 261.53125 98.910156 261.382812 99.511719 261.261719 100.117188 C 261.144531 100.726562 261.054688 101.335938 260.996094 101.953125 C 260.933594 102.570312 260.90625 103.1875 260.90625 103.804688 M 115.03125 188.140625 C 115.117188 232.808594 151.394531 268.933594 196.050781 268.851562 C 240.707031 268.765625 276.859375 232.492188 276.777344 187.824219 C 276.691406 143.160156 240.40625 107.023438 195.742188 107.109375 C 151.078125 107.199219 114.945312 143.480469 115.03125 188.140625 M 143.398438 188.085938 C 143.394531 186.363281 143.476562 184.648438 143.640625 182.9375 C 143.808594 181.226562 144.054688 179.527344 144.386719 177.839844 C 144.71875 176.152344 145.132812 174.484375 145.628906 172.839844 C 146.125 171.191406 146.699219 169.574219 147.355469 167.984375 C 148.011719 166.394531 148.742188 164.839844 149.550781 163.324219 C 150.355469 161.804688 151.238281 160.332031 152.1875 158.898438 C 153.140625 157.46875 154.160156 156.085938 155.25 154.753906 C 156.339844 153.421875 157.488281 152.148438 158.703125 150.929688 C 159.917969 149.710938 161.1875 148.554688 162.511719 147.460938 C 163.839844 146.367188 165.21875 145.34375 166.644531 144.386719 C 168.074219 143.425781 169.542969 142.542969 171.058594 141.726562 C 172.574219 140.914062 174.125 140.175781 175.710938 139.515625 C 177.300781 138.855469 178.914062 138.273438 180.558594 137.769531 C 182.203125 137.269531 183.871094 136.847656 185.554688 136.507812 C 187.242188 136.167969 188.941406 135.914062 190.652344 135.742188 C 192.363281 135.570312 194.078125 135.484375 195.796875 135.480469 C 197.515625 135.476562 199.230469 135.558594 200.941406 135.722656 C 202.652344 135.886719 204.351562 136.136719 206.039062 136.46875 C 207.726562 136.800781 209.394531 137.214844 211.039062 137.710938 C 212.6875 138.207031 214.304688 138.78125 215.894531 139.4375 C 217.484375 140.089844 219.039062 140.820312 220.558594 141.628906 C 222.074219 142.4375 223.550781 143.316406 224.980469 144.269531 C 226.414062 145.222656 227.792969 146.242188 229.125 147.332031 C 230.457031 148.417969 231.730469 149.570312 232.949219 150.78125 C 234.167969 151.996094 235.324219 153.265625 236.417969 154.59375 C 237.511719 155.921875 238.535156 157.296875 239.496094 158.726562 C 240.453125 160.152344 241.339844 161.625 242.152344 163.140625 C 242.964844 164.65625 243.703125 166.207031 244.363281 167.792969 C 245.027344 169.378906 245.609375 170.996094 246.109375 172.640625 C 246.613281 174.285156 247.03125 175.949219 247.371094 177.636719 C 247.710938 179.320312 247.964844 181.019531 248.136719 182.730469 C 248.308594 184.441406 248.398438 186.15625 248.402344 187.875 C 248.402344 189.597656 248.324219 191.3125 248.160156 193.023438 C 247.992188 194.734375 247.746094 196.433594 247.414062 198.121094 C 247.082031 199.808594 246.667969 201.476562 246.171875 203.121094 C 245.675781 204.765625 245.097656 206.386719 244.445312 207.976562 C 243.789062 209.566406 243.058594 211.121094 242.25 212.636719 C 241.441406 214.15625 240.5625 215.628906 239.609375 217.0625 C 238.65625 218.492188 237.636719 219.875 236.550781 221.207031 C 235.460938 222.539062 234.3125 223.8125 233.097656 225.03125 C 231.882812 226.25 230.613281 227.40625 229.285156 228.5 C 227.960938 229.589844 226.582031 230.617188 225.15625 231.574219 C 223.726562 232.535156 222.253906 233.417969 220.742188 234.234375 C 219.226562 235.046875 217.675781 235.785156 216.085938 236.445312 C 214.5 237.105469 212.882812 237.6875 211.238281 238.191406 C 209.59375 238.691406 207.929688 239.113281 206.246094 239.453125 C 204.558594 239.792969 202.859375 240.046875 201.148438 240.21875 C 199.4375 240.390625 197.722656 240.476562 196.003906 240.480469 C 194.285156 240.484375 192.570312 240.402344 190.855469 240.238281 C 189.144531 240.074219 187.445312 239.824219 185.757812 239.492188 C 184.070312 239.160156 182.40625 238.746094 180.757812 238.253906 C 179.113281 237.757812 177.492188 237.179688 175.902344 236.527344 C 174.3125 235.871094 172.757812 235.140625 171.242188 234.332031 C 169.722656 233.527344 168.25 232.644531 166.816406 231.691406 C 165.386719 230.742188 164.003906 229.71875 162.671875 228.632812 C 161.339844 227.542969 160.066406 226.394531 158.847656 225.179688 C 157.628906 223.964844 156.472656 222.695312 155.378906 221.367188 C 154.285156 220.042969 153.261719 218.664062 152.304688 217.234375 C 151.34375 215.808594 150.457031 214.335938 149.644531 212.820312 C 148.832031 211.308594 148.09375 209.757812 147.433594 208.167969 C 146.773438 206.582031 146.191406 204.964844 145.6875 203.320312 C 145.1875 201.675781 144.765625 200.011719 144.425781 198.324219 C 144.089844 196.640625 143.832031 194.941406 143.660156 193.230469 C 143.488281 191.519531 143.402344 189.804688 143.398438 188.085938 " fill-opacity="1" fill-rule="nonzero"/></g></svg>