<svg xmlns="http://www.w3.org/2000/svg" xmlns:xlink="http://www.w3.org/1999/xlink" width="512" zoomAndPan="magnify" viewBox="0 0 384 383.999986" height="512" preserveAspectRatio="xMidYMid meet" version="1.0"><defs><clipPath id="1a5625db2c"><path d="M 38.398438 38.398438 L 345.898438 38.398438 L 345.898438 347.398438 L 38.398438 347.398438 Z M 38.398438 38.398438 " clip-rule="nonzero"/></clipPath></defs><g clip-path="url(#1a5625db2c)"><path fill="#111b21" d="M 301.09375 83.269531 C 272.191406 54.351562 233.753906 38.417969 192.796875 38.402344 C 108.398438 38.402344 39.714844 107.035156 39.683594 191.394531 C 39.671875 218.363281 46.726562 244.683594 60.125 267.882812 L 38.398438 347.171875 L 119.566406 325.898438 C 141.925781 338.089844 167.109375 344.507812 192.730469 344.515625 L 192.796875 344.515625 C 277.175781 344.515625 345.871094 275.878906 345.898438 191.519531 C 345.914062 150.632812 330.003906 112.199219 301.09375 83.277344 Z M 192.796875 318.679688 L 192.746094 318.679688 C 169.914062 318.671875 147.515625 312.539062 127.972656 300.953125 L 123.324219 298.195312 L 75.160156 310.820312 L 88.011719 263.890625 L 84.988281 259.078125 C 72.25 238.832031 65.519531 215.425781 65.535156 191.402344 C 65.5625 121.289062 122.648438 64.242188 192.847656 64.242188 C 226.835938 64.253906 258.789062 77.496094 282.816406 101.539062 C 306.84375 125.570312 320.066406 157.53125 320.050781 191.503906 C 320.019531 261.625 262.9375 318.671875 192.796875 318.671875 Z M 262.597656 223.4375 C 258.773438 221.523438 239.964844 212.28125 236.453125 211.003906 C 232.945312 209.726562 230.398438 209.089844 227.851562 212.917969 C 225.304688 216.75 217.96875 225.359375 215.738281 227.90625 C 213.507812 230.460938 211.273438 230.773438 207.449219 228.859375 C 203.625 226.945312 191.296875 222.910156 176.683594 209.886719 C 165.308594 199.75 157.628906 187.234375 155.398438 183.402344 C 153.167969 179.574219 155.164062 177.503906 157.074219 175.605469 C 158.789062 173.890625 160.898438 171.136719 162.8125 168.90625 C 164.730469 166.675781 165.363281 165.078125 166.636719 162.53125 C 167.917969 159.980469 167.277344 157.75 166.324219 155.835938 C 165.367188 153.917969 157.71875 135.101562 154.527344 127.449219 C 151.417969 119.996094 148.265625 121.007812 145.921875 120.882812 C 143.691406 120.773438 141.140625 120.753906 138.585938 120.753906 C 136.03125 120.753906 131.890625 121.707031 128.382812 125.535156 C 124.875 129.363281 114.992188 138.617188 114.992188 157.425781 C 114.992188 176.238281 128.699219 194.421875 130.613281 196.976562 C 132.53125 199.53125 157.59375 238.140625 195.96875 254.707031 C 205.09375 258.644531 212.222656 261 217.777344 262.761719 C 226.941406 265.671875 235.28125 265.261719 241.871094 264.28125 C 249.222656 263.179688 264.507812 255.027344 267.691406 246.101562 C 270.878906 237.171875 270.878906 229.511719 269.925781 227.921875 C 268.96875 226.328125 266.414062 225.367188 262.589844 223.453125 Z M 262.597656 223.4375 " fill-opacity="1" fill-rule="evenodd"/></g></svg>