<svg xmlns="http://www.w3.org/2000/svg" xmlns:xlink="http://www.w3.org/1999/xlink" width="512" zoomAndPan="magnify" viewBox="0 0 384 383.999986" height="512" preserveAspectRatio="xMidYMid meet" version="1.0"><defs><clipPath id="3a15f76b21"><path d="M 38.398438 27.753906 L 356.398438 27.753906 L 356.398438 345.753906 L 38.398438 345.753906 Z M 38.398438 27.753906 " clip-rule="nonzero"/></clipPath></defs><path fill="#000000" d="M 133.800781 329.855469 C 133.140625 329.851562 132.484375 329.8125 131.828125 329.730469 C 131.171875 329.648438 130.527344 329.527344 129.886719 329.363281 C 129.246094 329.203125 128.621094 329 128.007812 328.757812 C 127.390625 328.519531 126.792969 328.242188 126.214844 327.925781 C 125.636719 327.613281 125.078125 327.261719 124.539062 326.878906 C 124.003906 326.492188 123.492188 326.078125 123.007812 325.628906 C 122.523438 325.179688 122.070312 324.707031 121.644531 324.199219 C 121.21875 323.695312 120.828125 323.167969 120.46875 322.613281 C 120.109375 322.0625 119.785156 321.488281 119.496094 320.894531 C 119.207031 320.300781 118.957031 319.691406 118.746094 319.066406 C 118.535156 318.441406 118.363281 317.804688 118.230469 317.160156 C 118.097656 316.511719 118.003906 315.859375 117.953125 315.203125 C 117.898438 314.546875 117.890625 313.886719 117.917969 313.226562 C 117.949219 312.570312 118.019531 311.914062 118.132812 311.265625 C 118.242188 310.613281 118.394531 309.972656 118.585938 309.339844 C 118.777344 308.710938 119.007812 308.09375 119.273438 307.488281 L 182.875 164.390625 C 183.085938 163.914062 183.320312 163.449219 183.578125 162.996094 C 183.835938 162.542969 184.113281 162.105469 184.414062 161.679688 C 184.714844 161.253906 185.035156 160.84375 185.375 160.449219 C 185.714844 160.054688 186.074219 159.679688 186.453125 159.320312 C 186.828125 158.960938 187.222656 158.621094 187.632812 158.300781 C 188.046875 157.980469 188.472656 157.683594 188.910156 157.402344 C 189.351562 157.125 189.804688 156.871094 190.269531 156.636719 C 190.734375 156.402344 191.210938 156.191406 191.695312 156.003906 C 192.183594 155.816406 192.675781 155.65625 193.179688 155.515625 C 193.679688 155.378906 194.1875 155.265625 194.703125 155.175781 C 195.214844 155.085938 195.730469 155.023438 196.25 154.984375 C 196.769531 154.949219 197.289062 154.9375 197.8125 154.949219 C 198.332031 154.960938 198.851562 155 199.367188 155.066406 C 199.882812 155.128906 200.394531 155.21875 200.902344 155.332031 C 201.414062 155.449219 201.914062 155.585938 202.40625 155.75 C 202.902344 155.914062 203.386719 156.101562 203.863281 156.3125 C 204.339844 156.523438 204.804688 156.757812 205.257812 157.015625 C 205.710938 157.273438 206.148438 157.550781 206.574219 157.851562 C 207 158.152344 207.410156 158.472656 207.804688 158.8125 C 208.199219 159.152344 208.574219 159.511719 208.933594 159.890625 C 209.292969 160.265625 209.632812 160.660156 209.953125 161.070312 C 210.273438 161.484375 210.570312 161.910156 210.847656 162.347656 C 211.128906 162.789062 211.382812 163.242188 211.617188 163.707031 C 211.851562 164.171875 212.0625 164.648438 212.25 165.132812 C 212.4375 165.621094 212.597656 166.113281 212.738281 166.617188 C 212.875 167.117188 212.988281 167.625 213.078125 168.140625 C 213.167969 168.652344 213.230469 169.167969 213.269531 169.6875 C 213.304688 170.207031 213.316406 170.726562 213.304688 171.25 C 213.292969 171.769531 213.253906 172.289062 213.1875 172.804688 C 213.125 173.320312 213.035156 173.832031 212.921875 174.34375 C 212.804688 174.851562 212.667969 175.351562 212.503906 175.84375 C 212.339844 176.339844 212.152344 176.824219 211.941406 177.300781 L 148.339844 320.402344 C 148.03125 321.101562 147.671875 321.773438 147.261719 322.421875 C 146.855469 323.070312 146.402344 323.6875 145.90625 324.269531 C 145.410156 324.851562 144.875 325.394531 144.296875 325.902344 C 143.722656 326.40625 143.113281 326.867188 142.472656 327.285156 C 141.832031 327.703125 141.160156 328.070312 140.46875 328.390625 C 139.773438 328.710938 139.058594 328.980469 138.324219 329.199219 C 137.589844 329.417969 136.84375 329.578125 136.085938 329.6875 C 135.328125 329.800781 134.566406 329.855469 133.800781 329.855469 Z M 133.800781 329.855469 " fill-opacity="1" fill-rule="nonzero"/><path fill="#000000" d="M 217.273438 266.253906 C 215.714844 266.226562 214.15625 266.136719 212.601562 265.984375 C 211.050781 265.832031 209.503906 265.621094 207.96875 265.347656 C 206.429688 265.070312 204.90625 264.738281 203.398438 264.339844 C 201.886719 263.945312 200.394531 263.492188 198.921875 262.976562 C 197.445312 262.464844 195.996094 261.894531 194.566406 261.261719 C 193.136719 260.632812 191.734375 259.949219 190.359375 259.210938 C 188.988281 258.46875 187.644531 257.675781 186.332031 256.828125 C 185.019531 255.980469 183.746094 255.082031 182.503906 254.136719 C 181.265625 253.1875 180.066406 252.191406 178.90625 251.148438 C 177.742188 250.101562 176.625 249.015625 175.550781 247.882812 C 174.476562 246.75 173.449219 245.578125 172.46875 244.363281 C 171.488281 243.148438 170.554688 241.898438 169.671875 240.609375 C 168.789062 239.320312 167.960938 238 167.183594 236.644531 C 166.40625 235.292969 165.683594 233.910156 165.019531 232.496094 C 164.351562 231.085938 163.742188 229.652344 163.1875 228.191406 C 162.632812 226.730469 162.140625 225.253906 161.703125 223.753906 C 161.53125 223.261719 161.378906 222.757812 161.253906 222.25 C 161.128906 221.742188 161.03125 221.230469 160.957031 220.714844 C 160.882812 220.195312 160.832031 219.675781 160.808594 219.152344 C 160.789062 218.628906 160.789062 218.109375 160.820312 217.585938 C 160.847656 217.0625 160.902344 216.542969 160.980469 216.027344 C 161.0625 215.511719 161.164062 215 161.296875 214.492188 C 161.425781 213.984375 161.582031 213.488281 161.761719 212.996094 C 161.941406 212.503906 162.144531 212.023438 162.371094 211.550781 C 162.597656 211.082031 162.847656 210.621094 163.117188 210.175781 C 163.390625 209.730469 163.683594 209.296875 164 208.878906 C 164.3125 208.460938 164.648438 208.0625 165.003906 207.675781 C 165.359375 207.292969 165.730469 206.925781 166.121094 206.578125 C 166.511719 206.230469 166.917969 205.902344 167.339844 205.59375 C 167.765625 205.285156 168.203125 205 168.652344 204.734375 C 169.105469 204.472656 169.566406 204.230469 170.042969 204.011719 C 170.515625 203.792969 171 203.597656 171.496094 203.425781 C 171.988281 203.253906 172.492188 203.109375 173 202.988281 C 173.507812 202.867188 174.023438 202.769531 174.539062 202.699219 C 175.058594 202.628906 175.578125 202.582031 176.101562 202.5625 C 176.625 202.542969 177.144531 202.550781 177.667969 202.582031 C 178.191406 202.613281 178.710938 202.671875 179.226562 202.753906 C 179.742188 202.839844 180.253906 202.945312 180.757812 203.082031 C 181.265625 203.214844 181.761719 203.371094 182.253906 203.554688 C 182.742188 203.738281 183.222656 203.945312 183.691406 204.175781 C 184.160156 204.40625 184.617188 204.65625 185.0625 204.933594 C 185.507812 205.207031 185.9375 205.503906 186.351562 205.820312 C 186.769531 206.140625 187.167969 206.476562 187.550781 206.832031 C 187.933594 207.191406 188.296875 207.566406 188.640625 207.957031 C 188.984375 208.351562 189.3125 208.761719 189.617188 209.1875 C 189.921875 209.609375 190.203125 210.050781 190.464844 210.503906 C 190.726562 210.957031 190.964844 211.421875 191.179688 211.898438 C 191.394531 212.371094 191.585938 212.859375 191.753906 213.355469 C 192.109375 214.792969 192.574219 216.195312 193.152344 217.558594 C 193.730469 218.921875 194.414062 220.230469 195.199219 221.488281 C 195.988281 222.742188 196.871094 223.925781 197.847656 225.039062 C 198.824219 226.152344 199.882812 227.179688 201.023438 228.125 C 202.167969 229.070312 203.375 229.917969 204.652344 230.667969 C 205.929688 231.417969 207.261719 232.0625 208.640625 232.597656 C 210.019531 233.136719 211.433594 233.558594 212.882812 233.871094 C 214.332031 234.183594 215.796875 234.375 217.273438 234.453125 C 243.015625 234.453125 261 214.832031 261 186.753906 C 261 184.671875 260.898438 182.59375 260.695312 180.519531 C 260.492188 178.449219 260.1875 176.390625 259.78125 174.347656 C 259.375 172.304688 258.871094 170.285156 258.269531 168.292969 C 257.664062 166.300781 256.964844 164.339844 256.167969 162.414062 C 255.375 160.492188 254.484375 158.609375 253.507812 156.773438 C 252.527344 154.933594 251.457031 153.148438 250.300781 151.417969 C 249.148438 149.683594 247.910156 148.011719 246.589844 146.398438 C 245.269531 144.789062 243.875 143.246094 242.40625 141.769531 C 240.933594 140.296875 239.394531 138.898438 237.789062 137.574219 C 236.179688 136.25 234.511719 135.007812 232.78125 133.847656 C 231.050781 132.6875 229.269531 131.617188 227.433594 130.632812 C 225.597656 129.644531 223.71875 128.753906 221.796875 127.953125 C 219.875 127.152344 217.917969 126.445312 215.925781 125.839844 C 213.933594 125.230469 211.917969 124.71875 209.875 124.308594 C 207.832031 123.898438 205.777344 123.589844 203.703125 123.378906 C 201.632812 123.171875 199.554688 123.0625 197.472656 123.058594 L 197.398438 123.058594 C 196.128906 123.058594 194.859375 123.097656 193.589844 123.171875 C 192.320312 123.25 191.054688 123.363281 189.789062 123.515625 C 188.527344 123.667969 187.269531 123.859375 186.019531 124.085938 C 184.769531 124.3125 183.527344 124.578125 182.289062 124.878906 C 181.054688 125.183594 179.832031 125.523438 178.613281 125.898438 C 177.398438 126.273438 176.199219 126.683594 175.007812 127.132812 C 173.816406 127.582031 172.640625 128.0625 171.480469 128.582031 C 170.320312 129.101562 169.175781 129.652344 168.046875 130.242188 C 166.917969 130.828125 165.808594 131.449219 164.71875 132.101562 C 163.628906 132.753906 162.558594 133.441406 161.507812 134.160156 C 160.457031 134.875 159.429688 135.625 158.425781 136.40625 C 157.421875 137.183594 156.441406 137.992188 155.484375 138.832031 C 154.527344 139.667969 153.597656 140.535156 152.691406 141.429688 C 151.789062 142.324219 150.910156 143.242188 150.0625 144.191406 C 149.214844 145.136719 148.394531 146.109375 147.601562 147.105469 C 146.8125 148.101562 146.050781 149.117188 145.320312 150.160156 C 144.589844 151.203125 143.894531 152.265625 143.226562 153.347656 C 142.5625 154.429688 141.929688 155.53125 141.328125 156.652344 C 140.730469 157.773438 140.164062 158.914062 139.632812 160.070312 C 139.097656 161.222656 138.601562 162.394531 138.140625 163.578125 C 137.679688 164.765625 137.253906 165.960938 136.863281 167.171875 C 136.476562 168.382812 136.121094 169.605469 135.804688 170.835938 C 135.488281 172.066406 135.210938 173.308594 134.96875 174.554688 C 134.726562 175.804688 134.523438 177.058594 134.355469 178.320312 C 134.1875 179.582031 134.058594 180.84375 133.96875 182.113281 C 133.878906 183.382812 133.824219 184.652344 133.808594 185.921875 C 133.796875 187.195312 133.820312 188.464844 133.878906 189.734375 C 133.941406 191.007812 134.042969 192.273438 134.179688 193.539062 C 134.316406 194.800781 134.492188 196.0625 134.707031 197.3125 C 134.917969 198.566406 135.167969 199.8125 135.457031 201.054688 C 135.746094 202.292969 136.070312 203.519531 136.429688 204.738281 C 136.792969 205.960938 137.191406 207.167969 137.625 208.363281 C 137.800781 208.851562 137.953125 209.347656 138.082031 209.851562 C 138.210938 210.355469 138.316406 210.867188 138.394531 211.382812 C 138.472656 211.894531 138.527344 212.414062 138.554688 212.933594 C 138.582031 213.453125 138.585938 213.972656 138.5625 214.496094 C 138.539062 215.015625 138.492188 215.53125 138.417969 216.046875 C 138.34375 216.5625 138.242188 217.074219 138.121094 217.578125 C 137.996094 218.085938 137.847656 218.582031 137.671875 219.074219 C 137.5 219.566406 137.304688 220.046875 137.082031 220.519531 C 136.863281 220.992188 136.621094 221.449219 136.355469 221.898438 C 136.089844 222.347656 135.800781 222.78125 135.492188 223.199219 C 135.183594 223.621094 134.855469 224.023438 134.507812 224.410156 C 134.160156 224.796875 133.792969 225.167969 133.410156 225.519531 C 133.027344 225.871094 132.625 226.203125 132.207031 226.515625 C 131.792969 226.828125 131.359375 227.117188 130.914062 227.386719 C 130.46875 227.65625 130.011719 227.90625 129.542969 228.128906 C 129.074219 228.355469 128.59375 228.554688 128.105469 228.734375 C 127.613281 228.910156 127.117188 229.066406 126.613281 229.195312 C 126.109375 229.320312 125.597656 229.425781 125.082031 229.503906 C 124.570312 229.582031 124.050781 229.636719 123.53125 229.664062 C 123.011719 229.691406 122.492188 229.695312 121.972656 229.671875 C 121.449219 229.648438 120.933594 229.601562 120.417969 229.527344 C 119.902344 229.453125 119.390625 229.351562 118.886719 229.230469 C 118.378906 229.105469 117.882812 228.957031 117.390625 228.78125 C 116.898438 228.609375 116.417969 228.414062 115.945312 228.191406 C 115.472656 227.972656 115.015625 227.730469 114.566406 227.464844 C 114.117188 227.199219 113.683594 226.910156 113.265625 226.601562 C 112.84375 226.292969 112.441406 225.964844 112.054688 225.617188 C 111.667969 225.269531 111.296875 224.902344 110.945312 224.519531 C 110.59375 224.136719 110.261719 223.734375 109.949219 223.316406 C 109.636719 222.902344 109.347656 222.46875 109.078125 222.023438 C 108.808594 221.578125 108.5625 221.121094 108.335938 220.652344 C 108.109375 220.183594 107.910156 219.703125 107.730469 219.214844 C 107.082031 217.421875 106.484375 215.609375 105.941406 213.78125 C 105.398438 211.953125 104.914062 210.109375 104.480469 208.25 C 104.050781 206.390625 103.671875 204.523438 103.355469 202.640625 C 103.035156 200.761719 102.769531 198.875 102.566406 196.976562 C 102.359375 195.082031 102.210938 193.179688 102.117188 191.273438 C 102.023438 189.367188 101.988281 187.460938 102.011719 185.554688 C 102.035156 183.648438 102.113281 181.742188 102.25 179.839844 C 102.386719 177.9375 102.578125 176.039062 102.828125 174.148438 C 103.078125 172.257812 103.386719 170.375 103.75 168.503906 C 104.113281 166.628906 104.53125 164.769531 105.003906 162.921875 C 105.480469 161.074219 106.007812 159.242188 106.59375 157.429688 C 107.179688 155.613281 107.816406 153.816406 108.507812 152.039062 C 109.199219 150.261719 109.945312 148.503906 110.742188 146.773438 C 111.539062 145.039062 112.390625 143.332031 113.289062 141.648438 C 114.191406 139.96875 115.140625 138.316406 116.136719 136.691406 C 117.136719 135.066406 118.183594 133.472656 119.277344 131.910156 C 120.375 130.347656 121.515625 128.820312 122.699219 127.324219 C 123.886719 125.832031 125.117188 124.375 126.390625 122.953125 C 127.664062 121.535156 128.980469 120.152344 130.335938 118.8125 C 131.691406 117.472656 133.089844 116.171875 134.523438 114.914062 C 135.957031 113.65625 137.429688 112.445312 138.9375 111.277344 C 140.441406 110.105469 141.984375 108.984375 143.558594 107.90625 C 145.132812 106.832031 146.738281 105.800781 148.375 104.820312 C 150.011719 103.839844 151.675781 102.910156 153.367188 102.03125 C 155.058594 101.148438 156.777344 100.320312 158.519531 99.542969 C 160.261719 98.765625 162.023438 98.039062 163.808594 97.367188 C 165.59375 96.699219 167.398438 96.078125 169.222656 95.515625 C 171.042969 94.953125 172.882812 94.445312 174.734375 93.992188 C 176.589844 93.539062 178.453125 93.140625 180.328125 92.796875 C 182.207031 92.457031 184.089844 92.171875 185.984375 91.945312 C 187.878906 91.714844 189.777344 91.542969 191.683594 91.429688 C 193.585938 91.316406 195.492188 91.257812 197.398438 91.257812 L 197.519531 91.257812 C 199.078125 91.261719 200.640625 91.304688 202.199219 91.382812 C 203.757812 91.464844 205.3125 91.582031 206.863281 91.738281 C 208.417969 91.894531 209.964844 92.089844 211.507812 92.324219 C 213.050781 92.554688 214.589844 92.824219 216.117188 93.132812 C 217.648438 93.441406 219.167969 93.785156 220.683594 94.167969 C 222.195312 94.550781 223.699219 94.96875 225.191406 95.425781 C 226.683594 95.878906 228.164062 96.371094 229.632812 96.902344 C 231.101562 97.429688 232.554688 97.992188 233.996094 98.59375 C 235.4375 99.191406 236.859375 99.828125 238.269531 100.496094 C 239.679688 101.167969 241.074219 101.871094 242.449219 102.609375 C 243.824219 103.347656 245.179688 104.117188 246.515625 104.921875 C 247.855469 105.726562 249.171875 106.5625 250.46875 107.429688 C 251.761719 108.300781 253.039062 109.199219 254.289062 110.132812 C 255.542969 111.0625 256.769531 112.023438 257.976562 113.015625 C 259.179688 114.007812 260.359375 115.027344 261.515625 116.078125 C 262.671875 117.125 263.800781 118.203125 264.902344 119.308594 C 266.003906 120.414062 267.078125 121.542969 268.125 122.703125 C 269.171875 123.859375 270.191406 125.042969 271.179688 126.25 C 272.167969 127.457031 273.125 128.6875 274.054688 129.941406 C 274.984375 131.195312 275.878906 132.472656 276.746094 133.769531 C 277.613281 135.066406 278.445312 136.386719 279.246094 137.726562 C 280.046875 139.066406 280.816406 140.421875 281.550781 141.800781 C 282.285156 143.175781 282.988281 144.570312 283.652344 145.980469 C 284.320312 147.390625 284.949219 148.820312 285.546875 150.261719 C 286.144531 151.703125 286.703125 153.160156 287.230469 154.628906 C 287.753906 156.097656 288.242188 157.578125 288.695312 159.074219 C 289.148438 160.566406 289.5625 162.070312 289.941406 163.585938 C 290.320312 165.097656 290.664062 166.621094 290.96875 168.152344 C 291.273438 169.679688 291.539062 171.21875 291.765625 172.761719 C 291.996094 174.304688 292.1875 175.855469 292.339844 177.40625 C 292.492188 178.960938 292.609375 180.515625 292.683594 182.074219 C 292.761719 183.632812 292.800781 185.191406 292.800781 186.753906 C 292.800781 232.816406 261.039062 266.253906 217.273438 266.253906 Z M 217.273438 266.253906 " fill-opacity="1" fill-rule="nonzero"/><g clip-path="url(#3a15f76b21)"><path fill="#000000" d="M 197.398438 345.753906 C 194.796875 345.753906 192.195312 345.691406 189.597656 345.5625 C 187 345.433594 184.40625 345.242188 181.816406 344.988281 C 179.226562 344.734375 176.644531 344.414062 174.070312 344.03125 C 171.496094 343.652344 168.933594 343.207031 166.378906 342.699219 C 163.828125 342.191406 161.289062 341.621094 158.765625 340.988281 C 156.242188 340.355469 153.734375 339.664062 151.246094 338.90625 C 148.753906 338.152344 146.285156 337.335938 143.835938 336.460938 C 141.382812 335.582031 138.957031 334.644531 136.554688 333.648438 C 134.148438 332.65625 131.769531 331.601562 129.417969 330.488281 C 127.066406 329.375 124.742188 328.207031 122.449219 326.980469 C 120.152344 325.753906 117.890625 324.46875 115.65625 323.132812 C 113.425781 321.792969 111.226562 320.402344 109.0625 318.957031 C 106.902344 317.511719 104.773438 316.011719 102.683594 314.464844 C 100.59375 312.914062 98.542969 311.3125 96.53125 309.664062 C 94.519531 308.011719 92.550781 306.3125 90.621094 304.566406 C 88.695312 302.816406 86.808594 301.023438 84.96875 299.183594 C 83.128906 297.34375 81.335938 295.460938 79.589844 293.53125 C 77.839844 291.601562 76.140625 289.632812 74.492188 287.621094 C 72.839844 285.609375 71.238281 283.558594 69.691406 281.46875 C 68.140625 279.378906 66.640625 277.253906 65.195312 275.089844 C 63.75 272.925781 62.359375 270.726562 61.019531 268.496094 C 59.683594 266.265625 58.402344 264 57.175781 261.707031 C 55.949219 259.410156 54.777344 257.085938 53.664062 254.734375 C 52.554688 252.382812 51.5 250.003906 50.503906 247.601562 C 49.507812 245.195312 48.570312 242.769531 47.695312 240.320312 C 46.816406 237.867188 46 235.398438 45.246094 232.910156 C 44.492188 230.417969 43.796875 227.910156 43.164062 225.386719 C 42.53125 222.863281 41.960938 220.324219 41.457031 217.773438 C 40.949219 215.222656 40.503906 212.65625 40.121094 210.082031 C 39.738281 207.507812 39.421875 204.929688 39.164062 202.339844 C 38.910156 199.75 38.71875 197.15625 38.589844 194.554688 C 38.464844 191.957031 38.398438 189.355469 38.398438 186.753906 C 38.398438 184.152344 38.464844 181.550781 38.589844 178.953125 C 38.71875 176.351562 38.910156 173.757812 39.164062 171.167969 C 39.421875 168.578125 39.738281 165.996094 40.121094 163.421875 C 40.503906 160.847656 40.949219 158.285156 41.457031 155.734375 C 41.960938 153.183594 42.53125 150.644531 43.164062 148.121094 C 43.796875 145.59375 44.492188 143.089844 45.246094 140.597656 C 46 138.109375 46.816406 135.636719 47.695312 133.1875 C 48.570312 130.738281 49.507812 128.3125 50.503906 125.90625 C 51.5 123.503906 52.554688 121.125 53.664062 118.773438 C 54.777344 116.421875 55.949219 114.097656 57.175781 111.800781 C 58.402344 109.507812 59.683594 107.242188 61.019531 105.011719 C 62.359375 102.777344 63.75 100.582031 65.195312 98.417969 C 66.640625 96.253906 68.140625 94.128906 69.691406 92.039062 C 71.238281 89.949219 72.839844 87.898438 74.492188 85.886719 C 76.140625 83.875 77.839844 81.902344 79.589844 79.976562 C 81.335938 78.046875 83.128906 76.164062 84.96875 74.324219 C 86.808594 72.484375 88.695312 70.691406 90.621094 68.941406 C 92.550781 67.195312 94.519531 65.496094 96.53125 63.84375 C 98.542969 62.195312 100.59375 60.59375 102.683594 59.042969 C 104.773438 57.492188 106.902344 55.996094 109.0625 54.550781 C 111.226562 53.105469 113.425781 51.710938 115.65625 50.375 C 117.890625 49.035156 120.152344 47.753906 122.449219 46.527344 C 124.742188 45.300781 127.066406 44.132812 129.417969 43.019531 C 131.769531 41.90625 134.148438 40.851562 136.554688 39.855469 C 138.957031 38.859375 141.382812 37.925781 143.835938 37.046875 C 146.285156 36.171875 148.753906 35.355469 151.246094 34.601562 C 153.734375 33.84375 156.242188 33.152344 158.765625 32.519531 C 161.289062 31.886719 163.828125 31.316406 166.378906 30.808594 C 168.933594 30.300781 171.496094 29.855469 174.070312 29.472656 C 176.644531 29.09375 179.226562 28.773438 181.816406 28.519531 C 184.40625 28.265625 187 28.074219 189.597656 27.945312 C 192.195312 27.816406 194.796875 27.753906 197.398438 27.753906 C 200.003906 27.753906 202.601562 27.816406 205.203125 27.945312 C 207.800781 28.074219 210.394531 28.265625 212.984375 28.519531 C 215.574219 28.773438 218.15625 29.09375 220.730469 29.472656 C 223.304688 29.855469 225.867188 30.300781 228.417969 30.808594 C 230.972656 31.316406 233.507812 31.886719 236.035156 32.519531 C 238.558594 33.152344 241.066406 33.84375 243.554688 34.601562 C 246.046875 35.355469 248.515625 36.171875 250.964844 37.046875 C 253.414062 37.925781 255.84375 38.859375 258.246094 39.855469 C 260.652344 40.851562 263.027344 41.90625 265.382812 43.019531 C 267.734375 44.132812 270.058594 45.300781 272.351562 46.527344 C 274.648438 47.753906 276.910156 49.035156 279.140625 50.375 C 281.375 51.710938 283.570312 53.105469 285.734375 54.550781 C 287.898438 55.996094 290.027344 57.492188 292.117188 59.042969 C 294.207031 60.59375 296.257812 62.195312 298.269531 63.84375 C 300.28125 65.496094 302.25 67.195312 304.179688 68.941406 C 306.105469 70.691406 307.988281 72.484375 309.828125 74.324219 C 311.671875 76.164062 313.464844 78.046875 315.210938 79.976562 C 316.957031 81.902344 318.65625 83.875 320.308594 85.886719 C 321.960938 87.898438 323.558594 89.949219 325.109375 92.039062 C 326.660156 94.128906 328.15625 96.253906 329.605469 98.417969 C 331.050781 100.582031 332.441406 102.777344 333.777344 105.011719 C 335.117188 107.242188 336.398438 109.507812 337.625 111.800781 C 338.851562 114.097656 340.023438 116.421875 341.132812 118.773438 C 342.246094 121.125 343.300781 123.503906 344.296875 125.90625 C 345.292969 128.3125 346.230469 130.738281 347.105469 133.1875 C 347.980469 135.636719 348.796875 138.109375 349.554688 140.597656 C 350.308594 143.089844 351.003906 145.59375 351.636719 148.121094 C 352.265625 150.644531 352.835938 153.183594 353.34375 155.734375 C 353.851562 158.285156 354.296875 160.847656 354.679688 163.421875 C 355.0625 165.996094 355.378906 168.578125 355.632812 171.167969 C 355.890625 173.757812 356.082031 176.351562 356.207031 178.953125 C 356.335938 181.550781 356.398438 184.152344 356.398438 186.753906 C 356.398438 189.355469 356.332031 191.953125 356.199219 194.550781 C 356.070312 197.152344 355.875 199.742188 355.617188 202.332031 C 355.359375 204.921875 355.039062 207.5 354.65625 210.074219 C 354.269531 212.648438 353.824219 215.210938 353.316406 217.761719 C 352.804688 220.3125 352.234375 222.847656 351.597656 225.371094 C 350.964844 227.894531 350.269531 230.398438 349.511719 232.886719 C 348.753906 235.378906 347.9375 237.847656 347.058594 240.292969 C 346.183594 242.742188 345.246094 245.167969 344.25 247.570312 C 343.25 249.972656 342.195312 252.351562 341.082031 254.703125 C 339.96875 257.054688 338.800781 259.375 337.570312 261.667969 C 336.34375 263.964844 335.0625 266.226562 333.722656 268.457031 C 332.386719 270.6875 330.992188 272.882812 329.546875 275.046875 C 328.101562 277.207031 326.605469 279.335938 325.054688 281.421875 C 323.503906 283.511719 321.902344 285.5625 320.253906 287.574219 C 318.601562 289.582031 316.902344 291.550781 315.15625 293.480469 C 313.410156 295.40625 311.617188 297.289062 309.777344 299.128906 C 307.9375 300.96875 306.054688 302.761719 304.125 304.511719 C 302.199219 306.257812 300.230469 307.957031 298.21875 309.605469 C 296.207031 311.257812 294.160156 312.855469 292.070312 314.40625 C 289.980469 315.957031 287.855469 317.457031 285.691406 318.902344 C 283.53125 320.347656 281.332031 321.738281 279.101562 323.078125 C 276.871094 324.414062 274.609375 325.699219 272.316406 326.925781 C 270.023438 328.152344 267.699219 329.324219 265.347656 330.4375 C 262.996094 331.550781 260.621094 332.605469 258.21875 333.601562 C 255.816406 334.597656 253.390625 335.535156 250.941406 336.414062 C 248.492188 337.292969 246.023438 338.109375 243.535156 338.867188 C 241.046875 339.621094 238.539062 340.320312 236.015625 340.953125 C 233.496094 341.585938 230.957031 342.160156 228.40625 342.667969 C 225.855469 343.179688 223.292969 343.625 220.722656 344.007812 C 218.148438 344.394531 215.566406 344.714844 212.980469 344.972656 C 210.390625 345.230469 207.796875 345.421875 205.199219 345.554688 C 202.601562 345.683594 200 345.75 197.398438 345.753906 Z M 197.398438 59.554688 C 195.316406 59.554688 193.238281 59.605469 191.160156 59.707031 C 189.078125 59.808594 187.003906 59.960938 184.933594 60.167969 C 182.859375 60.371094 180.796875 60.625 178.734375 60.929688 C 176.675781 61.234375 174.625 61.589844 172.585938 61.996094 C 170.542969 62.402344 168.511719 62.859375 166.492188 63.367188 C 164.472656 63.871094 162.46875 64.425781 160.476562 65.03125 C 158.484375 65.636719 156.507812 66.289062 154.546875 66.988281 C 152.585938 67.691406 150.644531 68.4375 148.722656 69.234375 C 146.800781 70.03125 144.898438 70.875 143.015625 71.765625 C 141.132812 72.65625 139.273438 73.59375 137.4375 74.574219 C 135.601562 75.554688 133.792969 76.582031 132.007812 77.652344 C 130.21875 78.71875 128.460938 79.835938 126.730469 80.992188 C 125 82.148438 123.300781 83.34375 121.628906 84.585938 C 119.953125 85.824219 118.3125 87.105469 116.707031 88.425781 C 115.097656 89.746094 113.519531 91.105469 111.976562 92.503906 C 110.433594 93.902344 108.929688 95.335938 107.457031 96.808594 C 105.984375 98.28125 104.550781 99.789062 103.152344 101.332031 C 101.753906 102.875 100.394531 104.449219 99.074219 106.058594 C 97.753906 107.667969 96.472656 109.308594 95.230469 110.980469 C 93.992188 112.652344 92.792969 114.355469 91.636719 116.085938 C 90.480469 117.816406 89.367188 119.574219 88.296875 121.359375 C 87.226562 123.144531 86.199219 124.957031 85.21875 126.792969 C 84.238281 128.628906 83.300781 130.488281 82.414062 132.367188 C 81.523438 134.25 80.679688 136.152344 79.882812 138.078125 C 79.085938 140 78.335938 141.941406 77.636719 143.902344 C 76.933594 145.859375 76.28125 147.835938 75.675781 149.828125 C 75.074219 151.820312 74.519531 153.828125 74.011719 155.847656 C 73.507812 157.867188 73.050781 159.894531 72.644531 161.9375 C 72.238281 163.980469 71.882812 166.03125 71.578125 168.089844 C 71.269531 170.148438 71.015625 172.214844 70.8125 174.285156 C 70.609375 176.359375 70.457031 178.433594 70.351562 180.511719 C 70.25 182.589844 70.199219 184.671875 70.199219 186.753906 C 70.199219 188.835938 70.25 190.914062 70.351562 192.996094 C 70.457031 195.074219 70.609375 197.148438 70.8125 199.222656 C 71.015625 201.292969 71.269531 203.359375 71.578125 205.417969 C 71.882812 207.476562 72.238281 209.527344 72.644531 211.570312 C 73.050781 213.609375 73.507812 215.640625 74.011719 217.660156 C 74.519531 219.679688 75.074219 221.6875 75.675781 223.679688 C 76.28125 225.667969 76.933594 227.644531 77.636719 229.605469 C 78.335938 231.566406 79.085938 233.507812 79.882812 235.429688 C 80.679688 237.355469 81.523438 239.257812 82.414062 241.136719 C 83.300781 243.019531 84.238281 244.878906 85.21875 246.714844 C 86.199219 248.550781 87.226562 250.363281 88.296875 252.148438 C 89.367188 253.933594 90.480469 255.691406 91.636719 257.421875 C 92.792969 259.152344 93.992188 260.855469 95.230469 262.527344 C 96.472656 264.199219 97.753906 265.839844 99.074219 267.449219 C 100.394531 269.058594 101.753906 270.632812 103.152344 272.175781 C 104.550781 273.71875 105.984375 275.226562 107.457031 276.699219 C 108.929688 278.167969 110.433594 279.605469 111.976562 281.003906 C 113.519531 282.402344 115.097656 283.761719 116.707031 285.082031 C 118.3125 286.402344 119.953125 287.679688 121.628906 288.921875 C 123.300781 290.160156 125 291.359375 126.730469 292.515625 C 128.460938 293.671875 130.21875 294.785156 132.007812 295.855469 C 133.792969 296.925781 135.601562 297.953125 137.4375 298.933594 C 139.273438 299.914062 141.132812 300.851562 143.015625 301.742188 C 144.898438 302.632812 146.800781 303.472656 148.722656 304.269531 C 150.644531 305.066406 152.585938 305.816406 154.546875 306.519531 C 156.507812 307.21875 158.484375 307.871094 160.476562 308.476562 C 162.46875 309.082031 164.472656 309.636719 166.492188 310.140625 C 168.511719 310.648438 170.542969 311.101562 172.585938 311.507812 C 174.625 311.914062 176.675781 312.269531 178.734375 312.578125 C 180.796875 312.882812 182.859375 313.136719 184.933594 313.339844 C 187.003906 313.546875 189.078125 313.699219 191.160156 313.800781 C 193.238281 313.902344 195.316406 313.953125 197.398438 313.953125 C 199.480469 313.953125 201.5625 313.902344 203.640625 313.800781 C 205.71875 313.699219 207.796875 313.546875 209.867188 313.339844 C 211.941406 313.136719 214.003906 312.882812 216.0625 312.578125 C 218.125 312.269531 220.171875 311.914062 222.214844 311.507812 C 224.257812 311.101562 226.289062 310.648438 228.308594 310.140625 C 230.328125 309.636719 232.332031 309.082031 234.324219 308.476562 C 236.316406 307.871094 238.292969 307.21875 240.253906 306.519531 C 242.210938 305.816406 244.152344 305.066406 246.078125 304.269531 C 248 303.472656 249.902344 302.632812 251.785156 301.742188 C 253.667969 300.851562 255.527344 299.914062 257.363281 298.933594 C 259.199219 297.953125 261.007812 296.925781 262.792969 295.855469 C 264.578125 294.785156 266.335938 293.671875 268.070312 292.515625 C 269.800781 291.359375 271.5 290.160156 273.171875 288.921875 C 274.84375 287.679688 276.484375 286.402344 278.09375 285.082031 C 279.703125 283.761719 281.28125 282.402344 282.820312 281.003906 C 284.363281 279.605469 285.871094 278.167969 287.34375 276.699219 C 288.816406 275.226562 290.25 273.71875 291.648438 272.175781 C 293.046875 270.632812 294.40625 269.058594 295.726562 267.449219 C 297.046875 265.839844 298.328125 264.199219 299.566406 262.527344 C 300.808594 260.855469 302.007812 259.152344 303.164062 257.421875 C 304.320312 255.691406 305.433594 253.933594 306.503906 252.148438 C 307.574219 250.363281 308.597656 248.550781 309.582031 246.714844 C 310.5625 244.878906 311.496094 243.019531 312.386719 241.136719 C 313.277344 239.257812 314.121094 237.355469 314.917969 235.429688 C 315.714844 233.507812 316.464844 231.566406 317.164062 229.605469 C 317.867188 227.644531 318.519531 225.667969 319.121094 223.679688 C 319.726562 221.6875 320.28125 219.679688 320.789062 217.660156 C 321.292969 215.640625 321.75 213.609375 322.15625 211.570312 C 322.5625 209.527344 322.917969 207.476562 323.222656 205.417969 C 323.527344 203.359375 323.785156 201.292969 323.988281 199.222656 C 324.191406 197.148438 324.34375 195.074219 324.445312 192.996094 C 324.550781 190.914062 324.601562 188.835938 324.601562 186.753906 C 324.597656 184.671875 324.542969 182.59375 324.441406 180.515625 C 324.335938 178.4375 324.179688 176.359375 323.972656 174.289062 C 323.769531 172.21875 323.511719 170.15625 323.203125 168.097656 C 322.894531 166.039062 322.539062 163.988281 322.132812 161.949219 C 321.722656 159.90625 321.265625 157.878906 320.757812 155.859375 C 320.25 153.839844 319.695312 151.835938 319.089844 149.847656 C 318.484375 147.855469 317.828125 145.878906 317.128906 143.921875 C 316.425781 141.960938 315.675781 140.023438 314.878906 138.101562 C 314.078125 136.175781 313.234375 134.277344 312.34375 132.394531 C 311.453125 130.515625 310.519531 128.65625 309.535156 126.820312 C 308.554688 124.988281 307.527344 123.175781 306.457031 121.390625 C 305.386719 119.609375 304.273438 117.851562 303.117188 116.121094 C 301.960938 114.390625 300.761719 112.691406 299.523438 111.019531 C 298.28125 109.347656 297 107.707031 295.679688 106.097656 C 294.359375 104.492188 293 102.914062 291.605469 101.375 C 290.207031 99.832031 288.769531 98.324219 287.300781 96.855469 C 285.828125 95.382812 284.320312 93.949219 282.78125 92.550781 C 281.238281 91.152344 279.664062 89.792969 278.054688 88.472656 C 276.445312 87.152344 274.804688 85.871094 273.132812 84.632812 C 271.464844 83.390625 269.761719 82.195312 268.03125 81.035156 C 266.304688 79.878906 264.546875 78.765625 262.761719 77.695312 C 260.976562 76.625 259.167969 75.597656 257.332031 74.617188 C 255.496094 73.636719 253.640625 72.699219 251.757812 71.808594 C 249.878906 70.917969 247.976562 70.074219 246.054688 69.277344 C 244.132812 68.480469 242.191406 67.730469 240.230469 67.027344 C 238.273438 66.324219 236.296875 65.671875 234.308594 65.066406 C 232.316406 64.460938 230.3125 63.902344 228.292969 63.394531 C 226.273438 62.886719 224.246094 62.429688 222.203125 62.023438 C 220.164062 61.613281 218.113281 61.257812 216.054688 60.949219 C 214 60.640625 211.933594 60.386719 209.863281 60.179688 C 207.792969 59.972656 205.71875 59.816406 203.640625 59.714844 C 201.5625 59.609375 199.480469 59.554688 197.398438 59.554688 Z M 197.398438 59.554688 " fill-opacity="1" fill-rule="nonzero"/></g></svg>