<svg xmlns="http://www.w3.org/2000/svg" xmlns:xlink="http://www.w3.org/1999/xlink" width="512" zoomAndPan="magnify" viewBox="0 0 384 383.999986" height="512" preserveAspectRatio="xMidYMid meet" version="1.0"><defs><clipPath id="6bb6eb9d7c"><path d="M 28 76.851562 L 355.75 76.851562 L 355.75 307.101562 L 28 307.101562 Z M 28 76.851562 " clip-rule="nonzero"/></clipPath></defs><g clip-path="url(#6bb6eb9d7c)"><path fill="#252323" d="M 348.359375 112.804688 C 344.605469 98.652344 333.539062 87.507812 319.484375 83.722656 C 294.011719 76.851562 191.871094 76.851562 191.871094 76.851562 C 191.871094 76.851562 89.734375 76.851562 64.261719 83.722656 C 50.207031 87.507812 39.140625 98.652344 35.382812 112.804688 C 28.558594 138.457031 28.558594 191.976562 28.558594 191.976562 C 28.558594 191.976562 28.558594 245.492188 35.382812 271.148438 C 39.140625 285.296875 50.207031 296.445312 64.261719 300.226562 C 89.734375 307.101562 191.871094 307.101562 191.871094 307.101562 C 191.871094 307.101562 294.011719 307.101562 319.484375 300.226562 C 333.539062 296.445312 344.605469 285.296875 348.359375 271.148438 C 355.1875 245.492188 355.1875 191.976562 355.1875 191.976562 C 355.1875 191.976562 355.1875 138.457031 348.359375 112.804688 " fill-opacity="1" fill-rule="nonzero"/></g><path fill="#ffffff" d="M 158.46875 240.566406 L 243.835938 191.976562 L 158.46875 143.382812 Z M 158.46875 240.566406 " fill-opacity="1" fill-rule="nonzero"/></svg>