<svg xmlns="http://www.w3.org/2000/svg" xmlns:xlink="http://www.w3.org/1999/xlink" width="512" zoomAndPan="magnify" viewBox="0 0 384 383.999986" height="512" preserveAspectRatio="xMidYMid meet" version="1.0"><defs><clipPath id="6dbf35172e"><path d="M 48.617188 27.824219 L 335 27.824219 L 335 356.324219 L 48.617188 356.324219 Z M 48.617188 27.824219 " clip-rule="nonzero"/></clipPath></defs><g clip-path="url(#6dbf35172e)"><path fill="#000000" d="M 292.179688 93.667969 C 274.503906 82.132812 261.757812 63.664062 257.777344 42.152344 C 256.917969 37.503906 256.441406 32.71875 256.441406 27.824219 L 200.042969 27.824219 L 199.953125 254.15625 C 199.007812 279.5 178.171875 299.847656 152.636719 299.847656 C 144.699219 299.847656 137.226562 297.859375 130.644531 294.390625 C 115.550781 286.441406 105.222656 270.601562 105.222656 252.375 C 105.222656 226.199219 126.496094 204.898438 152.628906 204.898438 C 157.507812 204.898438 162.191406 205.707031 166.617188 207.089844 L 166.617188 149.433594 C 162.035156 148.808594 157.378906 148.421875 152.628906 148.421875 C 95.390625 148.421875 48.824219 195.050781 48.824219 252.375 C 48.824219 287.542969 66.367188 318.664062 93.144531 337.484375 C 110.003906 349.34375 130.519531 356.320312 152.636719 356.320312 C 209.875 356.320312 256.441406 309.691406 256.441406 252.375 L 256.441406 137.601562 C 278.5625 153.496094 305.667969 162.867188 334.910156 162.867188 L 334.910156 106.390625 C 319.160156 106.390625 304.488281 101.703125 292.179688 93.667969 Z M 292.179688 93.667969 " fill-opacity="1" fill-rule="nonzero"/></g></svg>