<svg xmlns="http://www.w3.org/2000/svg" xmlns:xlink="http://www.w3.org/1999/xlink" width="500" zoomAndPan="magnify" viewBox="0 0 375 374.999991" height="500" preserveAspectRatio="xMidYMid meet" version="1.0"><defs><clipPath id="2e2046c407"><path d="M 112.5 84.316406 L 262.5 84.316406 L 262.5 207 L 112.5 207 Z M 112.5 84.316406 " clip-rule="nonzero"/></clipPath><clipPath id="939a3d70f6"><path d="M 206.066406 161.90625 L 232.152344 161.90625 L 232.152344 171.796875 L 206.066406 171.796875 Z M 206.066406 161.90625 " clip-rule="nonzero"/></clipPath><clipPath id="92bd009409"><path d="M 206.625 170.324219 C 231.675781 162 232.050781 162.226562 232.125 162.449219 C 232.125 162.675781 231.226562 163.425781 231.074219 163.351562 C 230.925781 163.273438 230.851562 162.148438 231.074219 162 C 231.226562 161.851562 231.976562 162.148438 232.050781 162.375 C 232.199219 162.601562 232.050781 163.050781 231.601562 163.425781 C 229.648438 165.226562 209.699219 172.125 207.074219 171.75 C 206.476562 171.75 206.175781 171.449219 206.101562 171.148438 C 206.101562 170.925781 206.625 170.324219 206.625 170.324219 " clip-rule="nonzero"/></clipPath><clipPath id="a43b2cb311"><path d="M 208.488281 176.238281 L 226.738281 176.238281 L 226.738281 178.375 L 208.488281 178.375 Z M 208.488281 176.238281 " clip-rule="nonzero"/></clipPath><clipPath id="e628e03702"><path d="M 209.25 176.25 C 226.5 176.476562 226.800781 176.773438 226.726562 177 C 226.726562 177.300781 226.125 177.824219 225.898438 177.75 C 225.675781 177.675781 225.375 176.550781 225.523438 176.476562 C 225.601562 176.324219 226.726562 176.699219 226.726562 176.925781 C 226.800781 177.148438 226.5 177.523438 225.976562 177.75 C 224.101562 178.574219 211.125 178.574219 209.25 177.75 C 208.726562 177.523438 208.5 177.148438 208.5 176.925781 C 208.5 176.625 209.25 176.25 209.25 176.25 " clip-rule="nonzero"/></clipPath><clipPath id="d58566138b"><path d="M 207.734375 182.773438 L 228.457031 182.773438 L 228.457031 199.351562 L 207.734375 199.351562 Z M 207.734375 182.773438 " clip-rule="nonzero"/></clipPath><clipPath id="8eb93f0979"><path d="M 208.949219 182.773438 C 228.449219 198.601562 228.300781 199.199219 228.074219 199.273438 C 227.925781 199.425781 227.023438 198.976562 227.023438 198.75 C 226.949219 198.523438 227.699219 197.851562 227.925781 197.925781 C 228.148438 198 228.449219 198.898438 228.375 199.050781 C 228.226562 199.273438 227.773438 199.351562 227.25 199.199219 C 224.773438 198.523438 209.398438 186.148438 208.050781 183.976562 C 207.75 183.523438 207.675781 183.226562 207.824219 183 C 207.976562 182.773438 208.949219 182.773438 208.949219 182.773438 " clip-rule="nonzero"/></clipPath><clipPath id="8add2f57f9"><path d="M 148.039062 168.417969 L 175.75 168.417969 L 175.75 171.910156 L 148.039062 171.910156 Z M 148.039062 168.417969 " clip-rule="nonzero"/></clipPath><clipPath id="3db566ce9e"><path d="M 174.976562 171.898438 C 148.273438 169.875 148.050781 169.351562 148.125 169.125 C 148.273438 168.898438 149.25 168.824219 149.398438 168.976562 C 149.550781 169.125 149.324219 170.101562 149.101562 170.175781 C 148.875 170.25 148.125 169.726562 148.050781 169.425781 C 148.050781 169.199219 148.351562 168.898438 148.875 168.75 C 151.5 167.851562 172.949219 169.125 175.125 170.398438 C 175.574219 170.699219 175.726562 171 175.726562 171.226562 C 175.726562 171.449219 174.976562 171.898438 174.976562 171.898438 " clip-rule="nonzero"/></clipPath><clipPath id="84e1b80304"><path d="M 156.289062 176.851562 L 172.8125 176.851562 L 172.8125 180.121094 L 156.289062 180.121094 Z M 156.289062 176.851562 " clip-rule="nonzero"/></clipPath><clipPath id="09d481f775"><path d="M 172.050781 178.574219 C 161.101562 179.023438 158.25 180.300781 157.199219 180.074219 C 156.75 179.925781 156.300781 179.625 156.300781 179.398438 C 156.300781 179.175781 157.351562 178.574219 157.5 178.726562 C 157.648438 178.800781 157.5 179.925781 157.273438 180 C 157.050781 180.148438 156.523438 179.925781 156.449219 179.699219 C 156.300781 179.476562 156.375 178.949219 156.675781 178.648438 C 157.5 177.898438 160.875 177.523438 163.199219 177.300781 C 165.976562 177 170.773438 176.625 172.050781 177.074219 C 172.5 177.226562 172.800781 177.523438 172.800781 177.75 C 172.800781 177.976562 172.050781 178.574219 172.050781 178.574219 " clip-rule="nonzero"/></clipPath><clipPath id="6cf1d47266"><path d="M 161.488281 185.265625 L 176.75 185.265625 L 176.75 192.535156 L 161.488281 192.535156 Z M 161.488281 185.265625 " clip-rule="nonzero"/></clipPath><clipPath id="acdaf6d131"><path d="M 176.101562 186.824219 C 165.226562 190.199219 163.5 192.375 162.601562 192.449219 C 162.148438 192.523438 161.625 192.226562 161.550781 192 C 161.476562 191.773438 161.851562 191.101562 162.074219 191.023438 C 162.375 190.949219 162.976562 191.324219 163.050781 191.625 C 163.050781 191.851562 162.601562 192.523438 162.375 192.523438 C 162.226562 192.449219 161.699219 191.625 161.773438 191.175781 C 162.074219 190.199219 164.550781 188.773438 166.5 187.875 C 168.976562 186.75 174.449219 185.023438 175.875 185.324219 C 176.324219 185.398438 176.699219 185.773438 176.699219 186.074219 C 176.773438 186.300781 176.101562 186.824219 176.101562 186.824219 " clip-rule="nonzero"/></clipPath></defs><g clip-path="url(#2e2046c407)"><path fill="#070505" d="M 237.859375 175.613281 C 238.425781 175.320312 238.71875 175.191406 238.988281 175.023438 C 239.824219 174.496094 240.730469 174.167969 241.710938 174.035156 C 244.566406 173.636719 247.433594 173.484375 250.296875 173.933594 C 252.277344 174.277344 254.144531 174.929688 255.910156 175.890625 C 256.4375 176.183594 256.925781 176.53125 257.375 176.9375 C 257.96875 177.453125 258.507812 178.035156 259.082031 178.570312 C 260.738281 180.105469 261.644531 182.066406 262.246094 184.191406 C 262.410156 184.679688 262.472656 185.183594 262.441406 185.699219 C 262.257812 187.261719 262.117188 188.847656 261.71875 190.363281 C 261.152344 192.515625 259.59375 193.914062 257.621094 194.820312 C 256.460938 195.324219 255.28125 195.367188 254.085938 194.953125 C 253.382812 194.734375 252.691406 194.464844 251.957031 194.203125 C 251.820312 194.316406 251.6875 194.4375 251.558594 194.5625 C 249.910156 196.375 247.808594 197.207031 245.410156 197.386719 C 244.375 197.457031 243.378906 197.300781 242.414062 196.910156 C 241.902344 196.710938 241.390625 196.503906 240.820312 196.273438 C 239.734375 197.101562 238.464844 197.171875 237.144531 197.070312 C 235.039062 196.875 233.066406 196.246094 231.234375 195.191406 C 230.34375 194.671875 229.578125 194.003906 228.945312 193.1875 C 228.710938 192.90625 228.488281 192.609375 228.21875 192.261719 C 227.90625 192.492188 227.613281 192.707031 227.324219 192.921875 C 224.410156 195.101562 221.308594 196.921875 217.820312 198.011719 C 216.097656 198.585938 214.335938 198.957031 212.53125 199.128906 C 209.453125 199.367188 206.429688 199.164062 203.519531 197.996094 C 202.234375 197.480469 200.917969 197.050781 199.570312 196.5625 C 199.40625 197.300781 199.546875 197.9375 199.585938 198.570312 C 199.679688 199.9375 199.453125 201.25 198.917969 202.507812 C 198.519531 203.40625 197.988281 204.210938 197.320312 204.929688 C 195.53125 206.917969 191.894531 207.316406 189.605469 205.421875 C 187.8125 203.9375 186.65625 202.117188 186.359375 199.785156 C 186.34375 199.652344 186.300781 199.519531 186.246094 199.296875 C 186.035156 199.339844 185.824219 199.402344 185.621094 199.484375 C 182.65625 201.050781 179.5 201.832031 176.144531 201.832031 C 175.730469 201.828125 175.308594 201.824219 174.894531 201.855469 C 170.917969 202.140625 167.046875 201.464844 163.199219 200.574219 C 159.105469 199.621094 155.539062 197.601562 152.257812 195.042969 C 151.527344 194.472656 150.847656 193.839844 150.140625 193.238281 C 149.898438 193.03125 149.648438 192.835938 149.34375 192.589844 C 149.09375 192.953125 148.90625 193.257812 148.691406 193.542969 C 146.660156 196.234375 144.078125 198.085938 140.710938 198.679688 C 138.390625 199.089844 137.617188 198.851562 135.824219 197.894531 C 135.636719 198.027344 135.414062 198.175781 135.199219 198.335938 C 133.640625 199.507812 131.890625 200.171875 129.945312 200.324219 C 128.355469 200.457031 126.9375 199.910156 125.605469 199.105469 C 125.25 198.890625 124.917969 198.636719 124.566406 198.394531 C 123.703125 198.550781 122.847656 198.757812 121.980469 198.84375 C 121.335938 198.925781 120.695312 198.902344 120.054688 198.777344 C 116.265625 197.933594 113.886719 195.558594 112.832031 191.859375 C 112.5 190.6875 112.648438 189.460938 112.816406 188.261719 C 113.160156 186.066406 114 184.082031 115.335938 182.304688 C 118.082031 178.5 121.867188 176.347656 126.371094 175.382812 C 127.824219 175.082031 129.289062 174.871094 130.769531 174.757812 C 133.136719 174.558594 135.492188 174.671875 137.746094 175.5625 C 137.851562 175.578125 137.960938 175.574219 138.066406 175.550781 C 138.097656 175.4375 138.105469 175.324219 138.09375 175.207031 C 137.261719 172.714844 137.109375 170.117188 136.964844 167.523438 C 136.753906 164.375 136.722656 161.222656 136.867188 158.066406 C 136.9375 156.773438 136.933594 155.472656 136.933594 154.171875 C 136.882812 152.746094 137.152344 151.386719 137.742188 150.089844 C 137.0625 148.839844 136.441406 147.542969 135.683594 146.335938 C 133.777344 143.277344 132.460938 139.980469 131.730469 136.449219 C 131.078125 133.367188 130.433594 130.285156 130.125 127.136719 C 129.953125 125.148438 129.941406 123.15625 130.082031 121.164062 C 130.339844 116.734375 131.457031 112.476562 132.570312 108.214844 C 133.308594 105.421875 134.378906 102.765625 135.789062 100.246094 C 136.394531 99.152344 136.933594 98.023438 137.496094 96.90625 C 138.476562 94.847656 139.667969 92.917969 141.066406 91.121094 C 141.269531 90.867188 141.464844 90.605469 141.6875 90.371094 C 141.980469 90.03125 142.335938 89.777344 142.75 89.605469 C 143.164062 89.433594 143.59375 89.363281 144.042969 89.390625 C 145.027344 89.425781 145.964844 89.644531 146.863281 90.050781 C 148.84375 90.96875 150.761719 91.988281 152.425781 93.433594 C 152.773438 93.734375 153.121094 94.046875 153.5 94.3125 C 155.519531 95.742188 157.238281 97.492188 158.878906 99.328125 C 160.09375 100.671875 161.191406 102.101562 162.175781 103.625 C 162.871094 104.71875 163.597656 105.796875 164.328125 106.867188 C 165.523438 108.582031 166.574219 110.382812 167.476562 112.265625 C 168.089844 113.511719 168.777344 114.714844 169.542969 115.875 C 169.832031 115.761719 170.054688 115.691406 170.257812 115.59375 C 173.921875 113.863281 177.742188 112.632812 181.722656 111.894531 C 183.765625 111.5 185.804688 111.066406 187.855469 110.695312 C 189.824219 110.347656 191.808594 110.226562 193.808594 110.339844 C 195.195312 110.410156 196.585938 110.480469 197.972656 110.523438 C 199.742188 110.566406 201.476562 110.835938 203.175781 111.328125 C 204.453125 111.699219 205.753906 112 207.082031 112.339844 C 207.265625 111.914062 207.433594 111.535156 207.585938 111.15625 C 208.457031 108.949219 209.511719 106.839844 210.757812 104.824219 C 212.140625 102.628906 213.523438 100.429688 214.96875 98.277344 C 215.71875 97.164062 216.601562 96.144531 217.4375 95.089844 C 218.5 93.746094 219.582031 92.414062 220.644531 91.070312 C 221.476562 90.015625 222.285156 88.941406 223.121094 87.890625 C 223.949219 86.878906 224.890625 85.988281 225.945312 85.222656 C 226.28125 84.976562 226.636719 84.761719 227.003906 84.570312 C 227.492188 84.308594 227.980469 84.296875 228.476562 84.539062 C 229.484375 84.9375 230.34375 85.550781 231.058594 86.371094 C 231.382812 86.765625 231.679688 87.175781 231.953125 87.605469 C 234.5625 91.679688 236.769531 95.933594 238.175781 100.59375 C 239.023438 103.351562 239.554688 106.167969 239.769531 109.042969 C 240.144531 114.417969 240.210938 119.796875 240.125 125.179688 C 240.09375 128.957031 239.542969 132.660156 238.472656 136.285156 C 237.550781 139.339844 236.753906 142.4375 235.929688 145.417969 C 237.609375 148.917969 238.65625 152.597656 239.074219 156.457031 C 239.441406 160.097656 239.691406 163.761719 239.488281 167.429688 C 239.316406 169.65625 238.917969 171.84375 238.296875 173.988281 C 238.179688 174.425781 238.0625 174.863281 237.859375 175.613281 Z M 237.859375 175.613281 " fill-opacity="1" fill-rule="nonzero"/></g><path fill="#f2d5b6" d="M 229.074219 89.1875 C 232.03125 93.453125 234.183594 98.09375 235.535156 103.105469 C 235.976562 104.71875 236.273438 106.359375 236.421875 108.023438 C 236.902344 113.761719 237.070312 119.507812 236.917969 125.261719 C 236.855469 128.855469 236.304688 132.367188 235.269531 135.808594 C 234.546875 138.152344 233.9375 140.535156 233.28125 142.898438 C 233.230469 143.078125 233.207031 143.261719 233.152344 143.441406 C 232.65625 144.984375 232.941406 146.46875 233.527344 147.914062 C 234.550781 150.457031 235.289062 153.085938 235.746094 155.789062 C 235.832031 156.246094 235.886719 156.707031 235.921875 157.167969 C 236.039062 159.066406 236.109375 160.96875 236.253906 162.863281 C 236.542969 166.988281 236.011719 171.007812 234.65625 174.914062 C 233.980469 176.933594 233.226562 178.925781 232.398438 180.890625 C 231.027344 184.089844 229.082031 186.886719 226.5625 189.285156 C 226.070312 189.773438 225.542969 190.230469 224.988281 190.648438 C 221.394531 193.296875 217.472656 195.246094 213.003906 195.832031 C 210.230469 196.195312 207.457031 196.082031 204.789062 195.046875 C 203.796875 194.660156 202.792969 194.308594 201.792969 193.945312 C 199.652344 193.160156 197.671875 192.054688 195.703125 190.925781 C 195.183594 190.628906 194.699219 190.277344 194.175781 189.933594 C 194.136719 188.5 194.09375 187.074219 194.050781 185.53125 C 194.285156 185.371094 194.53125 185.230469 194.789062 185.109375 C 196.941406 184.253906 198.519531 182.757812 199.730469 180.804688 C 201.082031 178.628906 201.742188 176.25 202.011719 173.726562 C 202.171875 172.1875 201.585938 171.039062 200.386719 170.113281 C 199.117188 169.164062 197.691406 168.691406 196.109375 168.695312 C 195.085938 168.667969 194.070312 168.730469 193.0625 168.882812 C 190.546875 169.257812 188.035156 169.6875 185.53125 170.140625 C 184.898438 170.269531 184.28125 170.46875 183.6875 170.734375 C 180.710938 171.964844 180.199219 175.175781 181.28125 177.355469 C 181.515625 177.808594 181.78125 178.242188 182.074219 178.660156 C 183.667969 181.054688 185.660156 183.011719 188.257812 184.3125 C 189.042969 184.703125 189.808594 185.128906 190.589844 185.546875 C 190.871094 186.4375 191.09375 188.835938 190.804688 189.496094 C 190.324219 190.585938 190.003906 191.757812 189.085938 192.636719 C 188.015625 193.664062 187.003906 194.742188 185.773438 195.59375 C 183.25 197.378906 180.445312 198.363281 177.363281 198.546875 C 174.679688 198.707031 171.988281 198.90625 169.316406 198.453125 C 167.21875 198.097656 165.117188 197.71875 163.058594 197.1875 C 159.6875 196.3125 156.753906 194.535156 154.066406 192.359375 C 151.257812 190.066406 148.675781 187.542969 146.320312 184.789062 C 144.605469 182.855469 143.328125 180.667969 142.488281 178.226562 C 141.847656 176.292969 141.269531 174.335938 140.722656 172.375 C 140.585938 171.695312 140.503906 171.011719 140.476562 170.316406 C 141.042969 169.960938 141.566406 170.277344 142.070312 170.460938 C 145.453125 171.6875 148.90625 172.503906 152.539062 172.179688 C 156.089844 171.859375 159.648438 171.589844 163.085938 170.535156 C 164.28125 170.167969 165.492188 169.847656 166.710938 169.558594 C 171.441406 168.453125 175.773438 166.546875 179.175781 162.960938 C 182.988281 158.945312 184.796875 153.988281 185.734375 148.632812 C 186.976562 141.550781 186.210938 134.585938 184.523438 127.679688 C 183.65625 124.121094 182.832031 120.550781 181.941406 116.996094 C 181.800781 116.425781 181.519531 115.835938 181.9375 115.257812 C 183.058594 114.988281 184.179688 114.714844 185.304688 114.449219 C 188.894531 113.585938 192.527344 113.34375 196.203125 113.730469 C 196.800781 113.792969 197.410156 113.757812 198.007812 113.804688 C 198.976562 113.886719 199.949219 113.941406 200.902344 114.109375 C 202.320312 114.347656 203.746094 114.484375 205.183594 114.527344 C 205.457031 114.539062 205.730469 114.558594 206.089844 114.578125 C 206.117188 114.816406 206.152344 115.03125 206.167969 115.246094 C 206.257812 116.425781 206.566406 116.796875 207.691406 117.042969 C 207.828125 117.0625 207.96875 117.078125 208.105469 117.085938 C 208.855469 117.261719 209.398438 117.769531 210 118.203125 C 213.511719 120.722656 216.46875 123.832031 219.367188 127.003906 C 219.832031 127.511719 220.304688 128.035156 220.976562 128.296875 C 221.09375 128.351562 221.210938 128.417969 221.316406 128.5 C 221.472656 128.625 221.605469 128.773438 221.710938 128.945312 C 222.414062 130.296875 223.054688 131.679688 224.039062 132.863281 C 224.515625 133.441406 225.085938 133.902344 225.75 134.242188 C 227.128906 134.957031 227.949219 134.773438 228.992188 133.542969 C 230.335938 131.421875 230.476562 128.980469 230.734375 126.609375 C 231.589844 118.761719 231.058594 111.007812 229.148438 103.347656 C 228.589844 100.941406 227.617188 98.710938 226.242188 96.660156 C 226.527344 94.292969 227.453125 92.089844 228 89.785156 C 228.023438 89.667969 228.074219 89.566406 228.140625 89.46875 C 228.210938 89.375 228.300781 89.296875 228.402344 89.242188 C 228.503906 89.183594 228.613281 89.148438 228.734375 89.140625 C 228.851562 89.132812 228.964844 89.144531 229.074219 89.1875 Z M 229.074219 89.1875 " fill-opacity="1" fill-rule="nonzero"/><path fill="#d1a87d" d="M 181.9375 115.257812 C 182.34375 116.964844 182.746094 118.671875 183.160156 120.375 C 183.839844 123.15625 184.5625 125.929688 185.1875 128.71875 C 185.578125 130.472656 185.835938 132.257812 186.140625 134.027344 C 186.324219 135.117188 186.59375 136.210938 186.625 137.304688 C 186.699219 139.898438 186.75 142.5 186.628906 145.089844 C 186.550781 146.691406 186.125 148.273438 185.886719 149.867188 C 185.585938 151.699219 185.082031 153.46875 184.375 155.1875 C 183.558594 157.363281 182.476562 159.402344 181.132812 161.300781 C 179.609375 163.375 177.804688 165.175781 175.550781 166.421875 C 173.734375 167.425781 171.820312 168.265625 169.917969 169.105469 C 169.140625 169.410156 168.34375 169.632812 167.523438 169.777344 C 165.714844 170.160156 163.953125 170.714844 162.175781 171.203125 C 160.835938 171.539062 159.480469 171.800781 158.113281 171.992188 C 156.796875 172.207031 155.46875 172.347656 154.144531 172.507812 C 153.777344 172.550781 153.40625 172.566406 153.035156 172.566406 C 151.925781 172.570312 150.8125 172.5625 149.699219 172.566406 C 148.023438 172.570312 146.394531 172.296875 144.8125 171.738281 C 143.378906 171.238281 141.921875 170.789062 140.476562 170.316406 C 140.421875 170.144531 140.378906 169.964844 140.355469 169.78125 C 140.105469 165.757812 139.835938 161.738281 140.117188 157.695312 C 140.269531 155.527344 140.203125 153.339844 140.238281 151.160156 C 140.203125 150.839844 140.21875 150.519531 140.289062 150.203125 C 140.621094 149.34375 140.371094 148.558594 140.066406 147.777344 C 139.914062 147.386719 139.738281 147.011719 139.542969 146.640625 C 139.28125 146.097656 138.992188 145.570312 138.671875 145.058594 C 136.371094 141.59375 135.1875 137.714844 134.433594 133.675781 C 134.132812 132.082031 133.820312 130.488281 133.585938 128.886719 C 132.867188 124.003906 133.242188 119.175781 134.367188 114.394531 C 135.023438 111.355469 135.847656 108.363281 136.835938 105.421875 C 136.960938 105.070312 137.070312 104.714844 137.214844 104.375 C 138.53125 101.261719 139.824219 98.132812 141.191406 95.042969 C 141.710938 93.863281 142.410156 92.761719 143.054688 91.578125 C 143.972656 91.804688 144.835938 92.164062 145.644531 92.65625 C 147.296875 93.601562 148.855469 94.683594 150.320312 95.902344 C 150.660156 96.214844 151.019531 96.507812 151.390625 96.785156 C 153.535156 98.285156 155.320312 100.167969 157.019531 102.132812 C 157.660156 102.867188 158.253906 103.636719 158.808594 104.4375 C 160.015625 106.195312 161.203125 107.964844 162.34375 109.765625 C 163.082031 110.9375 163.730469 112.171875 164.40625 113.382812 C 164.882812 114.234375 165.339844 115.089844 165.796875 115.949219 C 166.152344 116.546875 166.46875 117.164062 166.738281 117.804688 C 166.859375 118.148438 167.050781 118.449219 167.304688 118.710938 C 167.558594 118.96875 167.855469 119.164062 168.195312 119.296875 C 168.535156 119.425781 168.886719 119.480469 169.25 119.457031 C 169.613281 119.433594 169.953125 119.335938 170.273438 119.164062 C 171.089844 118.730469 171.964844 118.410156 172.804688 118.019531 C 175.648438 116.746094 178.601562 115.820312 181.664062 115.246094 C 181.753906 115.242188 181.847656 115.242188 181.9375 115.257812 Z M 181.9375 115.257812 " fill-opacity="1" fill-rule="nonzero"/><path fill="#cfa77c" d="M 127.660156 196.496094 C 128.023438 196.148438 128.363281 195.78125 128.683594 195.394531 C 129.15625 194.769531 129.59375 194.121094 129.996094 193.449219 C 130.148438 193.15625 130.21875 192.847656 130.203125 192.519531 C 130.199219 192.316406 130.148438 192.128906 130.054688 191.953125 C 129.957031 191.777344 129.828125 191.632812 129.660156 191.519531 C 129.496094 191.40625 129.3125 191.339844 129.113281 191.316406 C 128.914062 191.292969 128.71875 191.316406 128.53125 191.390625 C 128.066406 191.59375 127.640625 191.867188 127.261719 192.203125 C 126.875 192.527344 126.566406 192.949219 126.210938 193.3125 C 125.25 194.359375 124.082031 195.082031 122.714844 195.472656 C 122.207031 195.59375 121.691406 195.636719 121.171875 195.609375 C 120.652344 195.582031 120.148438 195.480469 119.65625 195.308594 C 119.164062 195.132812 118.707031 194.894531 118.28125 194.59375 C 117.859375 194.289062 117.484375 193.933594 117.164062 193.523438 C 115.851562 191.835938 115.675781 189.980469 116.152344 187.996094 C 116.269531 187.453125 116.445312 186.925781 116.675781 186.417969 C 118.128906 183.449219 120.273438 181.175781 123.316406 179.796875 C 125.371094 178.910156 127.511719 178.355469 129.734375 178.121094 C 131.160156 177.917969 132.589844 177.878906 134.023438 178.007812 C 135.316406 178.167969 136.554688 178.519531 137.742188 179.0625 C 138.375 179.339844 138.992188 179.65625 139.699219 179.996094 C 141.113281 183.957031 143.871094 187.078125 146.796875 190.09375 C 146.640625 190.800781 146.324219 191.421875 145.847656 191.96875 C 144.265625 193.894531 142.308594 195.207031 139.800781 195.589844 C 139.160156 195.6875 138.507812 195.78125 137.941406 195.277344 C 138.179688 194.621094 138.421875 193.972656 138.65625 193.320312 C 138.863281 192.769531 138.835938 192.226562 138.570312 191.699219 C 138.5 191.535156 138.402344 191.394531 138.273438 191.273438 C 138.144531 191.152344 137.996094 191.0625 137.828125 191.007812 C 137.660156 190.949219 137.488281 190.929688 137.3125 190.949219 C 137.136719 190.96875 136.972656 191.023438 136.820312 191.113281 C 136.425781 191.355469 136.097656 191.667969 135.835938 192.050781 C 135.605469 192.453125 135.398438 192.863281 135.21875 193.289062 C 134.242188 195.058594 132.902344 196.402344 130.878906 196.914062 C 129.820312 197.183594 128.789062 197.230469 127.660156 196.496094 Z M 127.660156 196.496094 " fill-opacity="1" fill-rule="nonzero"/><path fill="#cfa77c" d="M 238.511719 194.234375 C 238.269531 194.265625 238.023438 194.261719 237.777344 194.226562 C 236.542969 193.832031 235.316406 193.421875 234.09375 192.996094 C 233.324219 192.734375 232.640625 192.328125 232.039062 191.78125 C 231.4375 191.234375 230.964844 190.59375 230.628906 189.855469 C 230.753906 189.632812 230.894531 189.417969 231.042969 189.210938 C 233.097656 186.726562 234.710938 183.980469 235.882812 180.976562 C 236.1875 180.191406 236.605469 179.609375 237.386719 179.277344 C 237.847656 179.058594 238.292969 178.8125 238.722656 178.535156 C 240.269531 177.617188 241.941406 177.128906 243.738281 177.066406 C 245.445312 176.980469 247.164062 177.003906 248.875 177.027344 C 250.191406 177.042969 251.398438 177.570312 252.632812 177.964844 C 255.011719 178.726562 256.5625 180.496094 258.042969 182.359375 C 258.425781 183.351562 258.824219 184.335938 259.191406 185.335938 C 259.253906 185.5625 259.265625 185.792969 259.21875 186.023438 C 259.085938 186.984375 258.925781 187.945312 258.777344 188.90625 C 258.578125 190.210938 257.757812 191.058594 256.6875 191.703125 C 256.230469 192.003906 255.742188 192.078125 255.21875 191.925781 C 253.742188 191.476562 252.304688 190.980469 251.386719 189.597656 C 251.167969 189.296875 250.910156 189.035156 250.609375 188.8125 C 250.230469 188.503906 249.792969 188.378906 249.308594 188.433594 C 248.992188 188.449219 248.726562 188.570312 248.503906 188.796875 C 248.285156 189.023438 248.171875 189.296875 248.167969 189.613281 C 248.144531 190.136719 248.273438 190.621094 248.542969 191.070312 C 248.746094 191.433594 248.976562 191.78125 249.214844 192.171875 C 249.117188 192.378906 248.988281 192.566406 248.835938 192.734375 C 247.128906 194.109375 245.261719 194.617188 243.144531 193.753906 C 242.496094 193.472656 241.941406 193.066406 241.476562 192.535156 C 241.132812 192.160156 240.808594 191.761719 240.433594 191.417969 C 239.773438 190.820312 238.949219 190.726562 238.40625 191.132812 C 237.851562 191.550781 237.664062 192.367188 237.96875 193.160156 C 238.101562 193.5 238.300781 193.816406 238.511719 194.234375 Z M 238.511719 194.234375 " fill-opacity="1" fill-rule="nonzero"/><path fill="#cea77c" d="M 221.132812 128.585938 C 220.679688 128.648438 220.3125 128.5 220.027344 128.140625 C 218.875 126.886719 217.609375 125.738281 216.503906 124.425781 C 215.488281 123.289062 214.394531 122.234375 213.222656 121.261719 C 212.222656 120.378906 211.152344 119.578125 210.105469 118.742188 C 209.675781 118.398438 209.226562 118.078125 208.796875 117.726562 C 208.554688 117.53125 208.335938 117.300781 208.105469 117.085938 C 208.832031 116.683594 209.300781 116.085938 209.515625 115.285156 C 210.90625 110.921875 213.109375 106.96875 215.609375 103.15625 C 217.289062 100.59375 219.015625 98.082031 221.089844 95.816406 C 221.816406 94.972656 222.492188 94.089844 223.117188 93.171875 C 224.398438 91.40625 225.773438 89.71875 227.25 88.113281 C 227.410156 87.917969 227.554688 87.714844 227.691406 87.5 C 228.261719 87.972656 228.726562 88.535156 229.074219 89.1875 C 228.84375 89.230469 228.644531 89.339844 228.480469 89.515625 C 228.320312 89.6875 228.222656 89.894531 228.195312 90.128906 C 227.859375 92.347656 227.035156 94.429688 226.449219 96.574219 C 226.074219 96.984375 225.488281 96.898438 225.054688 97.171875 C 224.34375 97.472656 223.816406 97.972656 223.472656 98.667969 C 221.746094 101.871094 220.488281 105.25 219.699219 108.800781 C 218.914062 112.355469 218.625 115.949219 218.835938 119.585938 C 218.980469 122.121094 219.867188 124.570312 220.890625 126.925781 C 221.117188 127.445312 221.605469 127.953125 221.132812 128.585938 Z M 221.132812 128.585938 " fill-opacity="1" fill-rule="nonzero"/><path fill="#f7b0aa" d="M 188.699219 197.515625 C 189.402344 196.851562 190.070312 196.214844 190.746094 195.589844 C 190.804688 195.535156 190.914062 195.53125 191.027344 195.496094 C 191.25 196.230469 191.449219 196.980469 191.707031 197.703125 C 191.882812 198.179688 192.105469 198.636719 192.371094 199.070312 C 192.480469 199.242188 192.640625 199.320312 192.847656 199.304688 C 193.054688 199.285156 193.195312 199.179688 193.277344 198.988281 C 193.449219 198.5625 193.59375 198.125 193.703125 197.675781 C 193.933594 196.773438 194.007812 195.851562 193.925781 194.921875 C 193.902344 194.570312 193.921875 194.210938 193.921875 193.765625 C 194.65625 194 195.195312 194.4375 195.8125 194.699219 C 196.136719 196.25 196.429688 197.75 196.386719 199.28125 C 196.382812 200.542969 195.957031 201.640625 195.109375 202.570312 C 194.898438 202.824219 194.648438 203.027344 194.359375 203.179688 C 194.070312 203.332031 193.761719 203.425781 193.433594 203.457031 C 193.109375 203.488281 192.789062 203.457031 192.472656 203.359375 C 192.160156 203.265625 191.875 203.113281 191.621094 202.90625 C 191.003906 202.472656 190.519531 201.917969 190.171875 201.246094 C 189.601562 200.035156 189.113281 198.792969 188.699219 197.515625 Z M 188.699219 197.515625 " fill-opacity="1" fill-rule="nonzero"/><path fill="#040302" d="M 221.132812 128.585938 C 221.0625 128.324219 220.972656 128.066406 220.871094 127.8125 C 219.832031 125.628906 219.195312 123.316406 218.648438 120.96875 C 218.355469 119.652344 218.238281 118.320312 218.300781 116.976562 C 218.382812 114.378906 218.710938 111.816406 219.292969 109.28125 C 219.578125 108.070312 219.859375 106.851562 220.160156 105.640625 C 220.839844 102.925781 222.164062 100.480469 223.425781 98.011719 C 223.777344 97.324219 224.371094 97.035156 225.058594 96.855469 C 226.277344 96.914062 226.722656 97.320312 226.820312 98.589844 C 226.929688 100.03125 226.644531 101.457031 226.449219 102.871094 C 226.019531 106.035156 225.667969 109.214844 225.53125 112.398438 C 225.351562 116.511719 226.398438 120.480469 227.5 124.40625 C 228.128906 126.636719 228.710938 128.875 229.1875 131.140625 C 229.433594 132.058594 229.410156 132.972656 229.109375 133.875 C 228.410156 135.078125 227.570312 135.386719 226.246094 134.867188 C 225.269531 134.511719 224.460938 133.925781 223.824219 133.105469 C 223 132 222.175781 130.894531 221.707031 129.574219 C 221.597656 129.324219 221.46875 129.078125 221.324219 128.84375 C 221.324219 128.730469 221.269531 128.660156 221.15625 128.632812 Z M 221.132812 128.585938 " fill-opacity="1" fill-rule="nonzero"/><path fill="#040302" d="M 213.15625 162.527344 C 209.546875 162.421875 205.957031 159.632812 206.03125 155.152344 C 206.042969 154.675781 206.097656 154.207031 206.203125 153.738281 C 206.304688 153.273438 206.449219 152.824219 206.640625 152.386719 C 206.835938 151.953125 207.066406 151.539062 207.339844 151.148438 C 207.613281 150.757812 207.921875 150.398438 208.265625 150.070312 C 208.609375 149.738281 208.980469 149.445312 209.382812 149.191406 C 209.785156 148.9375 210.207031 148.722656 210.652344 148.550781 C 211.09375 148.378906 211.550781 148.25 212.019531 148.171875 C 212.488281 148.089844 212.960938 148.054688 213.4375 148.066406 C 217.054688 148.136719 220.539062 150.976562 220.480469 155.355469 C 220.417969 159.894531 216.761719 162.550781 213.15625 162.527344 Z M 213.15625 162.527344 " fill-opacity="1" fill-rule="nonzero"/><path fill="#fbb4ad" d="M 229.109375 133.875 C 229.070312 132.484375 228.863281 131.113281 228.492188 129.769531 C 227.964844 127.808594 227.40625 125.851562 226.902344 123.882812 C 226.183594 121.058594 225.484375 118.230469 225.21875 115.320312 C 225.105469 114.214844 225.085938 113.105469 225.164062 111.996094 C 225.402344 108.996094 225.714844 106.007812 226.015625 103.015625 C 226.144531 101.773438 226.320312 100.535156 226.472656 99.296875 C 226.652344 97.820312 226.46875 97.5 225.058594 96.855469 C 225.449219 96.402344 225.980469 96.648438 226.449219 96.574219 C 227.984375 98.261719 228.824219 100.28125 229.296875 102.484375 C 229.820312 104.910156 230.386719 107.328125 230.855469 109.765625 C 231.066406 110.84375 231.03125 111.96875 231.195312 113.054688 C 231.734375 116.601562 231.347656 120.164062 231.445312 123.71875 C 231.460938 124.261719 231.242188 124.808594 231.226562 125.351562 C 231.199219 126.324219 231.035156 127.273438 230.929688 128.234375 C 230.769531 129.65625 230.472656 131.050781 230.039062 132.410156 C 229.863281 132.957031 229.742188 133.597656 229.109375 133.875 Z M 229.109375 133.875 " fill-opacity="1" fill-rule="nonzero"/><path fill="#cea77c" d="M 221.15625 128.632812 C 221.214844 128.703125 221.269531 128.773438 221.324219 128.847656 C 221.269531 128.773438 221.214844 128.703125 221.15625 128.632812 Z M 221.15625 128.632812 " fill-opacity="1" fill-rule="nonzero"/><path fill="#040303" d="M 146.410156 103.019531 C 146.449219 102.992188 146.480469 102.960938 146.511719 102.925781 C 147.378906 101.648438 148.171875 101.480469 149.382812 102.328125 C 150.25 102.964844 150.988281 103.726562 151.601562 104.613281 C 153.289062 106.914062 154.589844 109.398438 155.242188 112.203125 C 155.566406 113.601562 155.988281 114.976562 156.375 116.359375 C 156.910156 118.242188 157.230469 120.15625 157.339844 122.109375 C 157.503906 124.535156 157.003906 126.816406 155.839844 128.949219 C 154.355469 131.597656 152.222656 133.625 149.679688 135.238281 C 149.128906 135.609375 148.523438 135.820312 147.863281 135.875 C 147.09375 135.929688 146.386719 135.847656 145.8125 135.273438 C 145.113281 134.933594 145.179688 134.328125 145.296875 133.722656 C 145.398438 133.261719 145.601562 132.847656 145.90625 132.488281 C 148.46875 129.371094 148.917969 125.640625 149.035156 121.804688 C 149.210938 115.964844 148.433594 110.289062 146.304688 104.820312 C 146.074219 104.226562 145.816406 103.585938 146.410156 103.019531 Z M 146.410156 103.019531 " fill-opacity="1" fill-rule="nonzero"/><path fill="#fcb4ad" d="M 146.410156 103.019531 C 146.332031 103.785156 146.585938 104.476562 146.84375 105.175781 C 147.453125 106.824219 148.097656 108.460938 148.429688 110.199219 C 149.25 114.484375 149.792969 118.792969 149.457031 123.171875 C 149.285156 125.253906 148.890625 127.296875 148.28125 129.292969 C 148.058594 130.058594 147.703125 130.757812 147.214844 131.386719 C 146.847656 131.863281 146.492188 132.347656 146.121094 132.820312 C 145.53125 133.578125 145.339844 134.382812 145.8125 135.273438 C 145.652344 135.324219 145.40625 135.460938 145.351562 135.40625 C 144.96875 135.074219 144.640625 134.695312 144.363281 134.273438 C 143.433594 132.65625 142.925781 130.867188 142.496094 129.070312 C 142.140625 127.597656 141.9375 126.085938 141.683594 124.589844 C 141.644531 124.269531 141.632812 123.945312 141.644531 123.621094 C 141.636719 122 141.664062 120.375 141.625 118.753906 C 141.628906 117.320312 141.789062 115.90625 142.101562 114.503906 C 142.355469 113.195312 142.5 111.863281 142.773438 110.554688 C 143.15625 108.703125 143.527344 106.832031 144.453125 105.15625 C 144.910156 104.40625 145.40625 103.691406 145.953125 103.003906 C 146.082031 102.824219 146.261719 102.847656 146.410156 103.019531 Z M 146.410156 103.019531 " fill-opacity="1" fill-rule="nonzero"/><path fill="#030202" d="M 160.484375 156.839844 C 160.480469 156.375 160.523438 155.914062 160.609375 155.457031 C 160.699219 155 160.828125 154.558594 161.003906 154.128906 C 161.175781 153.699219 161.390625 153.289062 161.644531 152.902344 C 161.902344 152.511719 162.191406 152.152344 162.515625 151.824219 C 162.84375 151.492188 163.199219 151.199219 163.582031 150.9375 C 163.964844 150.675781 164.371094 150.457031 164.800781 150.277344 C 165.226562 150.097656 165.667969 149.960938 166.121094 149.867188 C 166.574219 149.773438 167.035156 149.726562 167.5 149.726562 C 170.761719 149.664062 174.648438 152.175781 174.640625 156.863281 C 174.636719 157.328125 174.589844 157.789062 174.496094 158.242188 C 174.402344 158.695312 174.265625 159.136719 174.085938 159.566406 C 173.90625 159.992188 173.6875 160.398438 173.429688 160.785156 C 173.167969 161.167969 172.875 161.523438 172.546875 161.851562 C 172.21875 162.179688 171.859375 162.46875 171.472656 162.726562 C 171.085938 162.984375 170.679688 163.199219 170.25 163.375 C 169.824219 163.554688 169.382812 163.6875 168.925781 163.773438 C 168.472656 163.863281 168.011719 163.910156 167.550781 163.90625 C 167.085938 163.90625 166.628906 163.863281 166.171875 163.769531 C 165.71875 163.679688 165.277344 163.542969 164.851562 163.367188 C 164.421875 163.1875 164.015625 162.972656 163.628906 162.714844 C 163.246094 162.457031 162.886719 162.164062 162.558594 161.835938 C 162.234375 161.507812 161.941406 161.148438 161.683594 160.761719 C 161.425781 160.378906 161.207031 159.972656 161.027344 159.542969 C 160.851562 159.113281 160.714844 158.671875 160.625 158.21875 C 160.535156 157.761719 160.488281 157.304688 160.484375 156.839844 Z M 160.484375 156.839844 " fill-opacity="1" fill-rule="nonzero"/><g clip-path="url(#939a3d70f6)"><g clip-path="url(#92bd009409)"><path fill="#000000" d="M 203.101562 159 L 235.121094 159 L 235.121094 174.824219 L 203.101562 174.824219 Z M 203.101562 159 " fill-opacity="1" fill-rule="nonzero"/></g></g><g clip-path="url(#a43b2cb311)"><g clip-path="url(#e628e03702)"><path fill="#000000" d="M 205.5 173.25 L 229.785156 173.25 L 229.785156 180.75 L 205.5 180.75 Z M 205.5 173.25 " fill-opacity="1" fill-rule="nonzero"/></g></g><g clip-path="url(#d58566138b)"><g clip-path="url(#8eb93f0979)"><path fill="#000000" d="M 204.824219 179.773438 L 231.367188 179.773438 L 231.367188 202.351562 L 204.824219 202.351562 Z M 204.824219 179.773438 " fill-opacity="1" fill-rule="nonzero"/></g></g><g clip-path="url(#8add2f57f9)"><g clip-path="url(#3db566ce9e)"><path fill="#000000" d="M 145.050781 165.75 L 178.742188 165.75 L 178.742188 174.976562 L 145.050781 174.976562 Z M 145.050781 165.75 " fill-opacity="1" fill-rule="nonzero"/></g></g><g clip-path="url(#84e1b80304)"><g clip-path="url(#09d481f775)"><path fill="#000000" d="M 153.300781 174.074219 L 175.871094 174.074219 L 175.871094 183.074219 L 153.300781 183.074219 Z M 153.300781 174.074219 " fill-opacity="1" fill-rule="nonzero"/></g></g><g clip-path="url(#6cf1d47266)"><g clip-path="url(#acdaf6d131)"><path fill="#000000" d="M 158.550781 182.324219 L 179.691406 182.324219 L 179.691406 195.523438 L 158.550781 195.523438 Z M 158.550781 182.324219 " fill-opacity="1" fill-rule="nonzero"/></g></g></svg>