<svg xmlns="http://www.w3.org/2000/svg" xmlns:xlink="http://www.w3.org/1999/xlink" width="512" zoomAndPan="magnify" viewBox="0 0 384 383.999986" height="512" preserveAspectRatio="xMidYMid meet" version="1.0"><defs><clipPath id="757b6aa1f3"><path d="M 82 29.601562 L 299.4375 29.601562 L 299.4375 207 L 82 207 Z M 82 29.601562 " clip-rule="nonzero"/></clipPath><clipPath id="31878a1670"><path d="M 217.609375 142.105469 L 255.433594 142.105469 L 255.433594 156.449219 L 217.609375 156.449219 Z M 217.609375 142.105469 " clip-rule="nonzero"/></clipPath><clipPath id="95ff131a96"><path d="M 218.417969 154.3125 C 254.742188 142.242188 255.289062 142.570312 255.394531 142.894531 C 255.394531 143.222656 254.09375 144.308594 253.871094 144.203125 C 253.65625 144.089844 253.546875 142.457031 253.871094 142.242188 C 254.09375 142.027344 255.179688 142.457031 255.289062 142.785156 C 255.503906 143.113281 255.289062 143.765625 254.636719 144.308594 C 251.804688 146.921875 222.878906 156.921875 219.070312 156.378906 C 218.203125 156.378906 217.769531 155.945312 217.660156 155.507812 C 217.660156 155.183594 218.417969 154.3125 218.417969 154.3125 " clip-rule="nonzero"/></clipPath><clipPath id="6ce4df493a"><path d="M 221.121094 162.886719 L 247.585938 162.886719 L 247.585938 165.984375 L 221.121094 165.984375 Z M 221.121094 162.886719 " clip-rule="nonzero"/></clipPath><clipPath id="8a4ba26844"><path d="M 222.226562 162.90625 C 247.238281 163.234375 247.675781 163.664062 247.566406 163.992188 C 247.566406 164.429688 246.695312 165.1875 246.367188 165.078125 C 246.042969 164.972656 245.605469 163.339844 245.824219 163.234375 C 245.9375 163.011719 247.566406 163.554688 247.566406 163.886719 C 247.675781 164.207031 247.238281 164.75 246.480469 165.078125 C 243.761719 166.273438 224.945312 166.273438 222.226562 165.078125 C 221.46875 164.75 221.136719 164.207031 221.136719 163.886719 C 221.136719 163.449219 222.226562 162.90625 222.226562 162.90625 " clip-rule="nonzero"/></clipPath><clipPath id="f77ba073f5"><path d="M 220.027344 172.363281 L 250 172.363281 L 250 196.402344 L 220.027344 196.402344 Z M 220.027344 172.363281 " clip-rule="nonzero"/></clipPath><clipPath id="88225bf2be"><path d="M 221.789062 172.363281 C 250.066406 195.316406 249.851562 196.179688 249.519531 196.289062 C 249.304688 196.511719 247.996094 195.859375 247.996094 195.53125 C 247.890625 195.203125 248.976562 194.226562 249.304688 194.335938 C 249.628906 194.441406 250.066406 195.746094 249.957031 195.964844 C 249.742188 196.289062 249.085938 196.402344 248.324219 196.179688 C 244.734375 195.203125 222.441406 177.257812 220.488281 174.109375 C 220.050781 173.453125 219.945312 173.019531 220.160156 172.691406 C 220.378906 172.363281 221.789062 172.363281 221.789062 172.363281 " clip-rule="nonzero"/></clipPath><clipPath id="a7d7679eb5"><path d="M 133.46875 151.546875 L 173.652344 151.546875 L 173.652344 156.613281 L 133.46875 156.613281 Z M 133.46875 151.546875 " clip-rule="nonzero"/></clipPath><clipPath id="10e67a14c1"><path d="M 172.53125 156.59375 C 133.808594 153.660156 133.488281 152.902344 133.59375 152.574219 C 133.808594 152.246094 135.226562 152.136719 135.441406 152.359375 C 135.664062 152.574219 135.332031 153.988281 135.011719 154.097656 C 134.683594 154.203125 133.59375 153.445312 133.488281 153.011719 C 133.488281 152.679688 133.921875 152.246094 134.683594 152.03125 C 138.488281 150.726562 169.589844 152.574219 172.746094 154.421875 C 173.394531 154.855469 173.617188 155.292969 173.617188 155.621094 C 173.617188 155.945312 172.53125 156.59375 172.53125 156.59375 " clip-rule="nonzero"/></clipPath><clipPath id="a73748ae46"><path d="M 145.433594 163.777344 L 169.390625 163.777344 L 169.390625 168.519531 L 145.433594 168.519531 Z M 145.433594 163.777344 " clip-rule="nonzero"/></clipPath><clipPath id="0a147ed104"><path d="M 168.289062 166.273438 C 152.410156 166.925781 148.277344 168.777344 146.753906 168.449219 C 146.101562 168.234375 145.449219 167.796875 145.449219 167.46875 C 145.449219 167.148438 146.972656 166.273438 147.1875 166.496094 C 147.402344 166.605469 147.1875 168.234375 146.859375 168.34375 C 146.539062 168.558594 145.773438 168.234375 145.664062 167.90625 C 145.449219 167.582031 145.558594 166.820312 145.992188 166.382812 C 147.1875 165.296875 152.082031 164.75 155.453125 164.429688 C 159.480469 163.992188 166.433594 163.449219 168.289062 164.101562 C 168.9375 164.320312 169.375 164.75 169.375 165.078125 C 169.375 165.410156 168.289062 166.273438 168.289062 166.273438 " clip-rule="nonzero"/></clipPath><clipPath id="c13b716fa6"><path d="M 153 176 L 175.101562 176 L 175.101562 186.519531 L 153 186.519531 Z M 153 176 " clip-rule="nonzero"/></clipPath><clipPath id="6290d8cbf0"><path d="M 174.160156 178.238281 C 158.390625 183.132812 155.886719 186.285156 154.585938 186.394531 C 153.929688 186.5 153.167969 186.070312 153.0625 185.742188 C 152.953125 185.414062 153.5 184.441406 153.820312 184.328125 C 154.257812 184.21875 155.128906 184.761719 155.238281 185.199219 C 155.238281 185.527344 154.585938 186.5 154.257812 186.5 C 154.042969 186.394531 153.277344 185.199219 153.386719 184.546875 C 153.820312 183.132812 157.414062 181.0625 160.238281 179.761719 C 163.828125 178.128906 171.765625 175.625 173.832031 176.0625 C 174.484375 176.171875 175.027344 176.714844 175.027344 177.148438 C 175.136719 177.480469 174.160156 178.238281 174.160156 178.238281 " clip-rule="nonzero"/></clipPath></defs><path fill="#000000" d="M 74.417969 269.785156 C 72.90625 269.664062 71.621094 269.183594 70.566406 268.332031 C 69.507812 267.488281 68.617188 266.449219 67.894531 265.207031 C 67.167969 263.972656 66.5 262.75 65.898438 261.535156 C 63.78125 257.050781 61.664062 252.515625 59.535156 247.921875 C 57.414062 243.316406 55.691406 238.625 54.367188 233.851562 C 54.0625 232.761719 53.871094 231.402344 53.777344 229.773438 C 53.6875 228.140625 53.761719 226.511719 54.003906 224.878906 C 54.242188 223.238281 54.695312 221.855469 55.363281 220.734375 C 56.027344 219.617188 56.949219 219 58.128906 218.875 C 59.308594 218.757812 60.808594 219.453125 62.636719 220.960938 C 64.085938 222.171875 65.230469 223.746094 66.082031 225.695312 C 66.925781 227.632812 67.710938 229.445312 68.4375 231.132812 C 69.761719 234.277344 71.019531 237.425781 72.199219 240.578125 C 73.375 243.722656 74.539062 246.894531 75.6875 250.09375 C 76.414062 248.34375 76.9375 247.003906 77.273438 246.0625 C 77.601562 245.128906 77.527344 243.808594 77.046875 242.097656 C 76.867188 241.316406 76.605469 240.527344 76.277344 239.742188 C 75.941406 238.960938 75.625 238.199219 75.324219 237.476562 C 74.78125 235.96875 74.28125 234.441406 73.828125 232.898438 C 73.375 231.359375 73.085938 229.835938 72.96875 228.324219 C 72.789062 225.710938 73.132812 223.710938 74.011719 222.320312 C 74.882812 220.929688 76.03125 220.144531 77.453125 219.960938 C 78.886719 219.78125 80.378906 220.1875 81.917969 221.1875 C 83.457031 222.183594 84.773438 223.78125 85.859375 225.964844 C 86.703125 224.378906 87.835938 223.078125 89.257812 222.046875 C 90.675781 221.023438 92.140625 220.371094 93.652344 220.097656 C 95.160156 219.828125 96.535156 220.117188 97.777344 220.960938 C 99.027344 221.808594 99.929688 223.382812 100.472656 225.695312 C 100.953125 227.871094 100.863281 230 100.203125 232.082031 C 99.53125 234.167969 98.683594 236.207031 97.640625 238.199219 C 96.609375 240.195312 95.8125 242.183594 95.238281 244.160156 C 94.660156 246.125 94.742188 248.101562 95.464844 250.09375 C 95.886719 249.070312 96.464844 247.484375 97.1875 245.335938 C 97.925781 243.179688 98.78125 240.785156 99.75 238.15625 C 100.710938 235.527344 101.816406 232.945312 103.054688 230.40625 C 104.289062 227.871094 105.640625 225.648438 107.089844 223.746094 C 108.539062 221.832031 110.089844 220.539062 111.757812 219.871094 C 113.414062 219.210938 115.1875 219.480469 117.082031 220.6875 C 118.832031 221.835938 119.945312 223.328125 120.433594 225.152344 C 120.914062 226.964844 120.941406 228.992188 120.523438 231.222656 C 120.097656 233.460938 119.390625 235.753906 118.394531 238.109375 C 117.398438 240.464844 116.269531 242.753906 115.019531 244.976562 C 113.777344 247.183594 112.582031 249.1875 111.4375 251 C 110.289062 252.8125 109.355469 254.296875 108.628906 255.441406 C 107.722656 256.835938 106.691406 258.535156 105.546875 260.539062 C 104.398438 262.535156 103.101562 264.363281 101.652344 266.023438 C 100.203125 267.6875 98.59375 268.785156 96.824219 269.332031 C 94.832031 269.929688 93.09375 269.828125 91.613281 269.011719 C 90.128906 268.199219 88.878906 267.007812 87.855469 265.433594 C 86.824219 263.863281 85.980469 262.285156 85.316406 260.699219 C 84.464844 261.984375 83.53125 263.347656 82.507812 264.800781 C 81.476562 266.25 80.320312 267.472656 79.039062 268.46875 C 77.773438 269.464844 76.230469 269.902344 74.417969 269.785156 Z M 74.417969 269.785156 " fill-opacity="1" fill-rule="nonzero"/><path fill="#000000" d="M 129.117188 269.238281 C 126.761719 268.578125 125.1875 267.445312 124.40625 265.839844 C 123.617188 264.246094 123.316406 262.398438 123.5 260.3125 C 123.679688 258.21875 124.054688 256.121094 124.632812 254.039062 C 125.203125 251.953125 125.703125 250.066406 126.125 248.375 C 127.214844 243.886719 128.421875 239.425781 129.75 234.984375 C 131.09375 230.542969 132.492188 226.113281 133.941406 221.683594 C 135.148438 217.941406 136.898438 214.90625 139.199219 212.578125 C 141.492188 210.253906 144.753906 209.03125 148.988281 208.90625 C 151.355469 208.851562 153.296875 209.40625 154.808594 210.582031 C 156.316406 211.761719 157.539062 213.300781 158.480469 215.203125 C 159.414062 217.109375 160.210938 219.117188 160.882812 221.230469 C 161.542969 223.351562 162.179688 225.320312 162.785156 227.144531 L 173.410156 256.984375 C 174.136719 258.976562 174.464844 260.765625 174.40625 262.351562 C 174.34375 263.925781 173.4375 265.433594 171.6875 266.882812 C 169.933594 268.277344 168.234375 268.910156 166.589844 268.785156 C 164.960938 268.667969 163.507812 267.671875 162.242188 265.796875 C 161.632812 264.890625 161.136719 263.746094 160.746094 262.351562 C 160.347656 260.949219 159.929688 259.582031 159.476562 258.25 C 159.023438 256.925781 158.371094 255.929688 157.527344 255.261719 C 157.402344 255.140625 156.667969 255.023438 155.308594 254.898438 C 153.949219 254.78125 152.367188 254.671875 150.574219 254.582031 C 148.789062 254.492188 147.15625 254.460938 145.679688 254.492188 C 144.195312 254.523438 143.277344 254.6875 142.914062 254.988281 C 142.066406 255.714844 141.476562 256.871094 141.148438 258.457031 C 140.8125 260.03125 140.511719 261.644531 140.242188 263.304688 C 139.96875 264.96875 139.4375 266.285156 138.65625 267.246094 C 137.566406 268.578125 136.117188 269.363281 134.304688 269.601562 C 132.492188 269.839844 130.757812 269.726562 129.117188 269.238281 Z M 147.082031 242.097656 C 147.925781 241.980469 148.761719 241.824219 149.574219 241.644531 C 150.402344 241.464844 151.210938 241.316406 152 241.191406 C 151.574219 239.984375 151.167969 238.777344 150.777344 237.566406 C 150.378906 236.359375 150.007812 235.152344 149.644531 233.941406 C 149.203125 235.273438 148.769531 236.613281 148.351562 237.972656 C 147.925781 239.332031 147.503906 240.710938 147.082031 242.097656 Z M 147.082031 242.097656 " fill-opacity="1" fill-rule="nonzero"/><path fill="#000000" d="M 184.546875 262.625 C 181.765625 259.769531 179.800781 256.5625 178.65625 252.996094 C 177.503906 249.433594 177.050781 245.71875 177.296875 241.847656 C 177.535156 237.96875 178.347656 234.214844 179.742188 230.589844 C 181.128906 226.964844 182.949219 223.695312 185.203125 220.777344 C 186.046875 219.632812 187.207031 218.304688 188.691406 216.789062 C 190.171875 215.285156 191.820312 213.835938 193.632812 212.441406 C 195.445312 211.054688 197.328125 209.921875 199.296875 209.042969 C 201.253906 208.171875 203.148438 207.746094 204.960938 207.773438 C 206.78125 207.808594 208.453125 208.542969 209.964844 209.992188 C 211.652344 211.625 212.695312 213.390625 213.09375 215.296875 C 213.484375 217.199219 213.238281 218.921875 212.367188 220.460938 C 211.488281 222 209.996094 223.105469 207.882812 223.769531 C 205.164062 224.574219 202.632812 225.847656 200.292969 227.597656 C 197.964844 229.355469 196.078125 231.464844 194.628906 233.941406 C 193.179688 236.421875 192.363281 239.167969 192.179688 242.1875 C 192.117188 244.5 192.554688 246.757812 193.496094 248.960938 C 194.429688 251.171875 195.953125 252.8125 198.070312 253.902344 C 198.851562 254.265625 199.851562 254.554688 201.0625 254.761719 C 202.269531 254.976562 203.464844 254.988281 204.640625 254.808594 C 205.832031 254.625 206.703125 254.082031 207.246094 253.175781 C 207.792969 252.269531 207.957031 251.609375 207.746094 251.183594 C 207.53125 250.765625 207.121094 250.445312 206.523438 250.230469 C 205.917969 250.023438 205.265625 249.8125 204.574219 249.597656 C 203.878906 249.386719 203.3125 249.042969 202.875 248.554688 C 201.90625 247.53125 201.378906 246.035156 201.289062 244.070312 C 201.199219 242.09375 201.453125 240.464844 202.058594 239.199219 C 202.859375 237.566406 204.011719 236.449219 205.527344 235.84375 C 207.03125 235.246094 208.679688 235.027344 210.464844 235.210938 C 212.242188 235.390625 214 235.890625 215.722656 236.707031 C 217.441406 237.519531 218.9375 238.550781 220.207031 239.785156 C 221.488281 241.027344 222.34375 242.382812 222.765625 243.84375 C 223.855469 247.773438 224.046875 251.308594 223.355469 254.445312 C 222.660156 257.589844 221.292969 260.300781 219.253906 262.578125 C 217.226562 264.84375 214.78125 266.601562 211.914062 267.835938 C 209.042969 269.074219 205.984375 269.738281 202.738281 269.828125 C 199.503906 269.917969 196.316406 269.375 193.179688 268.199219 C 190.035156 267.019531 187.15625 265.160156 184.546875 262.625 Z M 184.546875 262.625 " fill-opacity="1" fill-rule="nonzero"/><path fill="#000000" d="M 240.265625 269.238281 C 238.933594 269.003906 237.445312 268.714844 235.800781 268.378906 C 234.171875 268.050781 232.628906 267.550781 231.179688 266.882812 C 229.730469 266.222656 228.578125 265.285156 227.734375 264.074219 C 226.585938 262.386719 226.160156 260.847656 226.46875 259.453125 C 226.765625 258.046875 227.566406 256.925781 228.867188 256.078125 C 230.164062 255.234375 231.6875 254.84375 233.445312 254.898438 C 234.542969 254.898438 235.761719 255.140625 237.09375 255.625 C 238.417969 256.109375 239.765625 256.5625 241.125 256.984375 C 242.484375 257.40625 243.765625 257.515625 244.976562 257.300781 C 246.183594 257.089844 247.207031 256.257812 248.058594 254.808594 C 249.019531 253.238281 249.15625 251.835938 248.464844 250.59375 C 247.769531 249.359375 246.746094 248.300781 245.386719 247.421875 C 244.027344 246.550781 242.769531 245.835938 241.625 245.292969 C 237.03125 243.042969 233.65625 240.058594 231.496094 236.34375 C 229.351562 232.628906 228.640625 228.164062 229.367188 222.953125 C 230.09375 217.757812 232.175781 213.273438 235.621094 209.496094 C 239.074219 205.707031 243.285156 203.117188 248.238281 201.722656 C 250.652344 201 253.296875 200.609375 256.167969 200.546875 C 259.050781 200.488281 261.613281 201.152344 263.851562 202.539062 C 265.117188 203.328125 266.082031 204.410156 266.75 205.78125 C 267.414062 207.140625 267.578125 208.46875 267.25 209.765625 C 266.914062 211.070312 265.808594 212.023438 263.941406 212.621094 C 262.003906 213.226562 260.054688 214.0625 258.09375 215.113281 C 256.128906 216.171875 254.386719 217.398438 252.863281 218.785156 C 251.347656 220.179688 250.261719 221.707031 249.597656 223.382812 C 248.929688 225.050781 248.875 226.78125 249.417969 228.59375 C 249.960938 230.40625 251.355469 232.253906 253.609375 234.121094 C 254.996094 235.335938 256.417969 236.433594 257.867188 237.429688 C 259.320312 238.425781 260.679688 239.515625 261.945312 240.691406 C 263.214844 241.871094 264.242188 243.378906 265.027344 245.203125 C 266.054688 247.4375 266.613281 249.867188 266.703125 252.496094 C 266.796875 255.125 266.351562 257.589844 265.390625 259.882812 C 264.359375 262.375 262.910156 264.347656 261.039062 265.796875 C 259.164062 267.246094 257.058594 268.277344 254.71875 268.878906 C 252.390625 269.484375 249.988281 269.785156 247.515625 269.785156 C 245.035156 269.785156 242.621094 269.601562 240.265625 269.238281 Z M 240.265625 269.238281 " fill-opacity="1" fill-rule="nonzero"/><path fill="#000000" d="M 324.277344 269.238281 C 323.1875 269.964844 322.011719 270.054688 320.742188 269.511719 C 319.472656 268.96875 318.253906 268.199219 317.09375 267.199219 C 315.945312 266.203125 315.011719 265.378906 314.285156 264.707031 C 313.679688 264.109375 313.289062 263.699219 313.105469 263.484375 C 312.925781 263.277344 312.746094 263.203125 312.5625 263.257812 C 312.382812 263.320312 311.957031 263.472656 311.292969 263.710938 C 310.386719 264.019531 309.539062 264.527344 308.757812 265.253906 C 307.96875 265.976562 307.089844 266.519531 306.128906 266.882812 C 304.316406 267.609375 302.492188 267.851562 300.667969 267.609375 C 298.855469 267.371094 297.253906 266.765625 295.867188 265.796875 C 294.472656 264.832031 293.519531 263.53125 293.011719 261.898438 C 292.496094 260.257812 292.660156 258.375 293.507812 256.257812 C 293.929688 255.296875 294.671875 254.28125 295.730469 253.222656 C 296.78125 252.167969 297.796875 251.136719 298.765625 250.140625 C 299.726562 249.144531 300.214844 248.28125 300.214844 247.558594 C 300.214844 247.015625 299.898438 246.277344 299.265625 245.335938 C 298.628906 244.402344 298.1875 243.660156 297.949219 243.117188 C 297.644531 242.136719 297.390625 241.179688 297.179688 240.238281 C 296.964844 239.304688 296.863281 238.355469 296.863281 237.386719 C 296.917969 235.027344 297.570312 232.855469 298.8125 230.859375 C 300.0625 228.867188 301.6875 227.222656 303.683594 225.921875 C 305.675781 224.605469 307.816406 223.859375 310.117188 223.679688 C 312.472656 223.441406 314.421875 223.871094 315.960938 224.96875 C 317.503906 226.058594 318.574219 227.523438 319.179688 229.363281 C 319.796875 231.210938 319.800781 233.214844 319.203125 235.390625 C 318.757812 237.023438 318.101562 238.582031 317.230469 240.058594 C 316.351562 241.542969 315.402344 242.925781 314.375 244.203125 C 313.769531 244.875 313.027344 245.554688 312.15625 246.242188 C 311.277344 246.941406 310.625 247.683594 310.207031 248.464844 C 308.695312 249.132812 308.695312 249.949219 310.207031 250.910156 C 310.570312 251.398438 310.914062 251.878906 311.25 252.359375 C 311.578125 252.847656 311.929688 253.328125 312.292969 253.8125 C 313.253906 252.605469 314.25 251.199219 315.28125 249.597656 C 316.308594 248 317.421875 246.503906 318.636719 245.109375 C 319.859375 243.722656 321.222656 242.75 322.734375 242.1875 C 323.878906 241.769531 324.875 241.757812 325.726562 242.164062 C 326.570312 242.5625 327.160156 243.195312 327.492188 244.070312 C 327.820312 244.945312 327.75 245.898438 327.265625 246.921875 C 326.542969 248.4375 325.4375 249.867188 323.960938 251.226562 C 322.476562 252.585938 321.132812 253.875 319.925781 255.078125 L 317.546875 257.617188 C 315.972656 258.34375 315.917969 259.066406 317.367188 259.792969 C 317.847656 260.597656 318.574219 261.238281 319.542969 261.71875 C 320.519531 262.207031 321.375 262.625 322.101562 262.988281 C 322.882812 263.410156 323.652344 263.972656 324.414062 264.664062 C 325.164062 265.359375 325.617188 266.101562 325.773438 266.882812 C 325.917969 267.671875 325.421875 268.457031 324.277344 269.238281 Z M 305.949219 244.296875 C 307.398438 243.207031 308.964844 241.910156 310.660156 240.398438 C 312.347656 238.875 313.433594 237.175781 313.921875 235.300781 C 314.339844 233.667969 314.113281 232.265625 313.242188 231.085938 C 312.363281 229.910156 311.050781 229.410156 309.300781 229.589844 C 307.363281 229.835938 305.976562 230.496094 305.132812 231.585938 C 304.28125 232.671875 303.828125 233.988281 303.773438 235.527344 C 303.710938 237.066406 303.910156 238.609375 304.363281 240.148438 C 304.816406 241.691406 305.339844 243.070312 305.949219 244.296875 Z M 302.414062 258.070312 C 302.414062 259.339844 302.785156 259.972656 303.546875 259.972656 C 304.300781 259.972656 305.144531 259.71875 306.082031 259.203125 C 307.019531 258.695312 307.726562 258.25 308.214844 257.890625 C 307.605469 257.164062 306.972656 256.4375 306.308594 255.714844 C 305.640625 254.988281 305.007812 254.234375 304.40625 253.449219 C 303.800781 254.054688 303.320312 254.75 302.957031 255.53125 C 302.59375 256.320312 302.414062 257.164062 302.414062 258.070312 Z M 302.414062 258.070312 " fill-opacity="1" fill-rule="nonzero"/><path fill="#000000" d="M 29.101562 345.910156 C 27.589844 345.789062 26.300781 345.308594 25.25 344.457031 C 24.191406 343.613281 23.300781 342.574219 22.574219 341.332031 C 21.851562 340.097656 21.183594 338.875 20.582031 337.660156 C 18.464844 333.175781 16.34375 328.640625 14.214844 324.046875 C 12.097656 319.441406 10.375 314.75 9.050781 309.976562 C 8.742188 308.886719 8.550781 307.527344 8.460938 305.898438 C 8.371094 304.265625 8.445312 302.636719 8.6875 301.003906 C 8.925781 299.363281 9.378906 297.980469 10.046875 296.859375 C 10.710938 295.742188 11.632812 295.125 12.8125 295 C 13.988281 294.882812 15.488281 295.578125 17.320312 297.085938 C 18.769531 298.296875 19.914062 299.871094 20.761719 301.820312 C 21.605469 303.757812 22.394531 305.570312 23.121094 307.257812 C 24.445312 310.402344 25.703125 313.550781 26.878906 316.703125 C 28.058594 319.847656 29.21875 323.019531 30.371094 326.21875 C 31.09375 324.46875 31.621094 323.128906 31.957031 322.1875 C 32.285156 321.253906 32.210938 319.933594 31.730469 318.222656 C 31.546875 317.441406 31.285156 316.652344 30.957031 315.867188 C 30.625 315.085938 30.308594 314.324219 30.007812 313.601562 C 29.464844 312.09375 28.964844 310.566406 28.511719 309.023438 C 28.058594 307.484375 27.769531 305.960938 27.652344 304.449219 C 27.46875 301.835938 27.816406 299.835938 28.691406 298.445312 C 29.566406 297.054688 30.714844 296.269531 32.136719 296.085938 C 33.570312 295.90625 35.058594 296.3125 36.601562 297.3125 C 38.140625 298.308594 39.453125 299.90625 40.542969 302.089844 C 41.386719 300.503906 42.519531 299.203125 43.941406 298.171875 C 45.355469 297.148438 46.824219 296.496094 48.335938 296.222656 C 49.84375 295.953125 51.21875 296.242188 52.460938 297.085938 C 53.710938 297.933594 54.613281 299.507812 55.15625 301.820312 C 55.636719 303.996094 55.546875 306.125 54.882812 308.207031 C 54.214844 310.292969 53.367188 312.332031 52.324219 314.324219 C 51.292969 316.320312 50.492188 318.308594 49.921875 320.285156 C 49.34375 322.25 49.421875 324.226562 50.148438 326.21875 C 50.566406 325.195312 51.144531 323.609375 51.871094 321.460938 C 52.605469 319.304688 53.460938 316.910156 54.429688 314.28125 C 55.394531 311.652344 56.496094 309.070312 57.738281 306.53125 C 58.972656 303.996094 60.320312 301.773438 61.769531 299.871094 C 63.222656 297.957031 64.773438 296.664062 66.4375 295.996094 C 68.097656 295.335938 69.871094 295.605469 71.761719 296.8125 C 73.511719 297.960938 74.628906 299.453125 75.117188 301.277344 C 75.597656 303.089844 75.625 305.117188 75.207031 307.347656 C 74.78125 309.585938 74.074219 311.878906 73.078125 314.234375 C 72.078125 316.589844 70.953125 318.878906 69.699219 321.101562 C 68.460938 323.308594 67.265625 325.3125 66.121094 327.125 C 64.972656 328.9375 64.035156 330.421875 63.3125 331.566406 C 62.40625 332.960938 61.375 334.660156 60.230469 336.664062 C 59.082031 338.660156 57.785156 340.488281 56.332031 342.148438 C 54.882812 343.8125 53.273438 344.910156 51.507812 345.457031 C 49.515625 346.054688 47.773438 345.953125 46.296875 345.136719 C 44.8125 344.324219 43.5625 343.132812 42.535156 341.558594 C 41.503906 339.988281 40.660156 338.410156 40 336.824219 C 39.148438 338.109375 38.214844 339.472656 37.1875 340.925781 C 36.15625 342.375 35.003906 343.597656 33.722656 344.59375 C 32.453125 345.589844 30.914062 346.027344 29.101562 345.910156 Z M 29.101562 345.910156 " fill-opacity="1" fill-rule="nonzero"/><path fill="#000000" d="M 89.710938 344.1875 C 88.199219 345.636719 86.683594 346.191406 85.15625 345.863281 C 83.644531 345.535156 82.347656 344.703125 81.261719 343.371094 C 80.171875 342.046875 79.476562 340.597656 79.175781 339.019531 C 78.570312 335.984375 78.34375 333.242188 78.496094 330.796875 C 78.644531 328.351562 78.691406 325.585938 78.632812 322.503906 C 78.570312 318.382812 78.480469 314.28125 78.359375 310.203125 C 78.238281 306.125 78.179688 302.058594 78.179688 297.992188 C 78.179688 296.359375 78.238281 294.71875 78.359375 293.050781 C 78.480469 291.390625 78.90625 289.898438 79.628906 288.566406 C 80.355469 287.242188 81.589844 286.242188 83.34375 285.574219 C 85.777344 284.667969 87.746094 284.460938 89.257812 284.941406 C 90.765625 285.429688 91.898438 286.363281 92.65625 287.75 C 93.410156 289.144531 93.910156 290.804688 94.152344 292.734375 C 94.390625 294.671875 94.480469 296.6875 94.425781 298.785156 C 94.363281 300.867188 94.226562 302.832031 94.015625 304.675781 C 93.800781 306.519531 93.636719 308.042969 93.519531 309.25 C 95.511719 309.132812 97.488281 309.113281 99.453125 309.207031 C 101.414062 309.296875 103.375 309.339844 105.320312 309.339844 C 105.078125 307.292969 104.765625 305.128906 104.394531 302.863281 C 104.03125 300.585938 103.816406 298.308594 103.757812 296.042969 C 103.695312 293.777344 103.945312 291.617188 104.507812 289.5625 C 104.988281 287.8125 105.921875 286.210938 107.316406 284.757812 C 108.703125 283.308594 110.316406 282.402344 112.164062 282.039062 C 114.003906 281.667969 115.773438 282.210938 117.464844 283.671875 C 118.492188 284.523438 119.214844 286.089844 119.640625 288.382812 C 120.058594 290.683594 120.285156 293.410156 120.320312 296.5625 C 120.347656 299.707031 120.273438 303.015625 120.09375 306.488281 C 119.914062 309.964844 119.652344 313.339844 119.324219 316.613281 C 118.988281 319.875 118.6875 322.75 118.417969 325.222656 C 118.144531 327.703125 117.949219 329.515625 117.828125 330.660156 C 117.765625 331.511719 117.613281 332.65625 117.375 334.105469 C 117.132812 335.554688 116.769531 337.015625 116.289062 338.476562 C 115.800781 339.925781 115.183594 341.152344 114.429688 342.148438 C 113.671875 343.144531 112.78125 343.632812 111.757812 343.597656 C 110.726562 343.570312 109.546875 342.800781 108.222656 341.285156 C 106.773438 339.597656 105.921875 337.558594 105.683594 335.167969 C 105.441406 332.769531 105.457031 330.332031 105.730469 327.851562 C 106 325.375 106.167969 323.171875 106.226562 321.234375 C 105.261719 321.359375 103.984375 321.453125 102.398438 321.507812 C 100.824219 321.570312 99.285156 321.6875 97.777344 321.871094 C 96.265625 322.050781 95.085938 322.386719 94.242188 322.867188 C 93.15625 323.472656 92.640625 324.378906 92.703125 325.585938 C 92.757812 326.796875 92.757812 328.1875 92.703125 329.753906 C 92.640625 331.203125 92.613281 332.847656 92.613281 334.671875 C 92.613281 336.484375 92.414062 338.238281 92.023438 339.925781 C 91.625 341.621094 90.855469 343.042969 89.710938 344.1875 Z M 89.710938 344.1875 " fill-opacity="1" fill-rule="nonzero"/><path fill="#000000" d="M 123.8125 288.65625 C 123.324219 286.84375 123.417969 285.03125 124.085938 283.21875 C 124.746094 281.394531 125.789062 279.769531 127.210938 278.347656 C 128.628906 276.933594 130.222656 275.980469 131.992188 275.492188 C 132.714844 275.3125 133.652344 275.265625 134.800781 275.355469 C 135.945312 275.449219 137.09375 275.71875 138.246094 276.171875 C 139.390625 276.625 140.285156 277.25 140.917969 278.03125 C 141.550781 278.816406 141.6875 279.785156 141.324219 280.929688 C 141.925781 282.761719 141.835938 284.59375 141.054688 286.4375 C 140.265625 288.28125 139.089844 289.878906 137.519531 291.238281 C 135.945312 292.597656 134.234375 293.523438 132.375 294.003906 C 130.53125 294.492188 128.824219 294.335938 127.257812 293.550781 C 125.683594 292.769531 124.539062 291.136719 123.8125 288.65625 Z M 135.707031 344.640625 C 133.714844 346.027344 131.769531 346.300781 129.882812 345.457031 C 128.007812 344.613281 126.589844 343.191406 125.625 341.195312 C 124.71875 339.265625 124.128906 337.042969 123.859375 334.535156 C 123.585938 332.015625 123.496094 329.390625 123.585938 326.671875 C 123.675781 323.953125 123.839844 321.296875 124.085938 318.699219 C 124.324219 316.085938 124.539062 313.78125 124.71875 311.789062 C 124.835938 310.519531 124.957031 309.058594 125.082031 307.394531 C 125.199219 305.734375 125.472656 304.085938 125.898438 302.453125 C 126.316406 300.8125 126.984375 299.503906 127.890625 298.535156 C 129.214844 297.148438 130.609375 296.496094 132.058594 296.585938 C 133.519531 296.675781 134.902344 297.21875 136.207031 298.21875 C 137.503906 299.214844 138.484375 300.476562 139.152344 302 C 140.65625 305.261719 141.519531 308.910156 141.734375 312.945312 C 141.941406 316.964844 141.777344 321 141.234375 325.042969 C 140.691406 329.09375 140.085938 332.808594 139.421875 336.1875 C 139.117188 337.71875 138.769531 339.246094 138.378906 340.789062 C 137.984375 342.328125 137.09375 343.613281 135.707031 344.640625 Z M 135.707031 344.640625 " fill-opacity="1" fill-rule="nonzero"/><path fill="#000000" d="M 158.296875 345.363281 C 156.964844 345.128906 155.472656 344.839844 153.832031 344.503906 C 152.199219 344.175781 150.660156 343.675781 149.210938 343.007812 C 147.761719 342.347656 146.609375 341.410156 145.765625 340.199219 C 144.617188 338.511719 144.191406 336.972656 144.496094 335.578125 C 144.796875 334.171875 145.597656 333.050781 146.898438 332.203125 C 148.195312 331.359375 149.71875 330.96875 151.476562 331.023438 C 152.574219 331.023438 153.792969 331.265625 155.125 331.75 C 156.449219 332.234375 157.796875 332.6875 159.15625 333.109375 C 160.515625 333.53125 161.796875 333.640625 163.007812 333.425781 C 164.214844 333.214844 165.238281 332.382812 166.089844 330.933594 C 167.050781 329.363281 167.1875 327.960938 166.496094 326.71875 C 165.800781 325.484375 164.773438 324.425781 163.414062 323.546875 C 162.054688 322.675781 160.796875 321.960938 159.65625 321.417969 C 155.0625 319.167969 151.683594 316.183594 149.527344 312.46875 C 147.378906 308.753906 146.671875 304.289062 147.398438 299.078125 C 148.121094 293.882812 150.207031 289.398438 153.652344 285.621094 C 157.105469 281.832031 161.3125 279.242188 166.269531 277.847656 C 168.683594 277.125 171.328125 276.734375 174.199219 276.671875 C 177.082031 276.613281 179.644531 277.277344 181.878906 278.664062 C 183.148438 279.453125 184.113281 280.535156 184.78125 281.90625 C 185.441406 283.265625 185.605469 284.59375 185.277344 285.890625 C 184.945312 287.195312 183.839844 288.148438 181.972656 288.746094 C 180.035156 289.351562 178.085938 290.1875 176.125 291.238281 C 174.160156 292.296875 172.414062 293.523438 170.890625 294.910156 C 169.378906 296.304688 168.292969 297.832031 167.628906 299.507812 C 166.960938 301.175781 166.90625 302.90625 167.449219 304.71875 C 167.992188 306.53125 169.386719 308.378906 171.640625 310.246094 C 173.027344 311.460938 174.449219 312.558594 175.898438 313.554688 C 177.347656 314.550781 178.707031 315.640625 179.976562 316.816406 C 181.246094 317.996094 182.269531 319.503906 183.058594 321.328125 C 184.082031 323.5625 184.644531 325.992188 184.734375 328.621094 C 184.824219 331.25 184.382812 333.714844 183.421875 336.007812 C 182.390625 338.5 180.941406 340.472656 179.070312 341.921875 C 177.195312 343.371094 175.089844 344.402344 172.75 345.003906 C 170.421875 345.609375 168.019531 345.910156 165.546875 345.910156 C 163.0625 345.910156 160.652344 345.726562 158.296875 345.363281 Z M 158.296875 345.363281 " fill-opacity="1" fill-rule="nonzero"/><path fill="#000000" d="M 224.882812 343.460938 C 222.707031 345.21875 220.679688 346.042969 218.8125 345.953125 C 216.9375 345.863281 215.21875 345.15625 213.667969 343.824219 C 212.128906 342.5 210.722656 340.777344 209.453125 338.660156 C 208.183594 336.527344 207.050781 334.273438 206.054688 331.882812 C 205.058594 329.5 204.164062 327.25 203.382812 325.132812 C 202.59375 323.019531 201.898438 321.296875 201.296875 319.96875 C 201.054688 320.148438 200.933594 320.828125 200.933594 322.007812 C 200.933594 323.183594 201.007812 324.578125 201.160156 326.175781 C 201.308594 327.777344 201.445312 329.273438 201.570312 330.660156 C 201.6875 332.054688 201.714844 333.050781 201.660156 333.652344 C 201.535156 334.800781 201.28125 336.09375 200.890625 337.527344 C 200.492188 338.949219 199.902344 340.199219 199.121094 341.285156 C 198.335938 342.375 197.246094 343.070312 195.859375 343.371094 C 194.03125 343.734375 192.574219 343.496094 191.488281 342.644531 C 190.398438 341.800781 189.613281 340.5625 189.132812 338.929688 C 188.644531 337.289062 188.34375 335.4375 188.226562 333.378906 C 188.101562 331.328125 188.101562 329.257812 188.226562 327.171875 C 188.34375 325.085938 188.480469 323.183594 188.632812 321.460938 C 188.78125 319.742188 188.859375 318.421875 188.859375 317.496094 C 188.914062 314.480469 188.960938 311.460938 188.996094 308.433594 C 189.023438 305.417969 189.007812 302.421875 188.949219 299.441406 C 188.949219 297.992188 189.007812 296.394531 189.132812 294.636719 C 189.25 292.886719 189.65625 291.273438 190.355469 289.789062 C 191.046875 288.3125 192.269531 287.332031 194.023438 286.84375 C 196.09375 286.242188 197.730469 286.273438 198.941406 286.933594 C 200.148438 287.601562 201.054688 288.65625 201.660156 290.105469 C 202.261719 291.554688 202.621094 293.25 202.746094 295.179688 C 202.867188 297.117188 202.839844 299.074219 202.65625 301.050781 C 202.476562 303.015625 202.230469 304.808594 201.933594 306.441406 C 201.625 308.074219 201.355469 309.3125 201.117188 310.15625 C 201.597656 309.675781 202.519531 308.742188 203.878906 307.347656 C 205.238281 305.960938 206.898438 304.390625 208.863281 302.636719 C 210.824219 300.867188 212.898438 299.140625 215.074219 297.445312 C 217.257812 295.757812 219.398438 294.355469 221.484375 293.234375 C 223.570312 292.117188 225.425781 291.5 227.058594 291.375 C 228.6875 291.257812 229.921875 291.917969 230.773438 293.367188 C 231.871094 295.125 232.097656 296.851562 231.453125 298.558594 C 230.820312 300.25 229.667969 301.863281 228.007812 303.40625 C 226.34375 304.945312 224.484375 306.386719 222.4375 307.710938 C 220.378906 309.042969 218.425781 310.191406 216.566406 311.152344 C 214.722656 312.121094 213.289062 312.910156 212.261719 313.511719 C 213.605469 314.296875 215.167969 315.605469 216.953125 317.429688 C 218.730469 319.242188 220.441406 321.34375 222.074219 323.726562 C 223.703125 326.117188 225.03125 328.566406 226.0625 331.070312 C 227.085938 333.578125 227.566406 335.929688 227.511719 338.113281 C 227.449219 340.289062 226.570312 342.074219 224.882812 343.460938 Z M 224.882812 343.460938 " fill-opacity="1" fill-rule="nonzero"/><path fill="#000000" d="M 248.109375 345.726562 C 246.898438 345.726562 245.601562 345.773438 244.210938 345.863281 C 242.820312 345.953125 241.472656 345.863281 240.15625 345.589844 C 238.855469 345.320312 237.691406 344.703125 236.667969 343.734375 C 235.582031 342.644531 234.910156 341.347656 234.675781 339.835938 C 234.429688 338.332031 234.367188 336.746094 234.492188 335.078125 C 234.613281 333.402344 234.703125 331.902344 234.765625 330.570312 C 234.882812 327.976562 235.003906 325.394531 235.128906 322.820312 C 235.246094 320.257812 235.363281 317.667969 235.488281 315.050781 C 235.609375 312.03125 235.746094 308.996094 235.898438 305.941406 C 236.042969 302.894531 236.152344 299.847656 236.214844 296.8125 C 236.332031 295.125 236.332031 293.25 236.214844 291.195312 C 236.089844 289.144531 236.332031 287.296875 236.941406 285.664062 C 237.484375 284.160156 238.492188 283.027344 239.976562 282.265625 C 241.472656 281.496094 243.214844 281.011719 245.210938 280.792969 C 247.203125 280.585938 249.269531 280.558594 251.417969 280.703125 C 253.558594 280.855469 255.585938 281.066406 257.488281 281.339844 C 259.402344 281.609375 260.964844 281.835938 262.179688 282.019531 C 263.566406 282.199219 264.898438 282.484375 266.167969 282.855469 C 267.433594 283.21875 268.503906 283.808594 269.382812 284.625 C 270.253906 285.4375 270.789062 286.664062 270.96875 288.292969 C 271.207031 289.988281 270.933594 291.527344 270.152344 292.914062 C 269.367188 294.308594 268.1875 295.335938 266.621094 295.996094 C 265.40625 296.484375 264.199219 296.632812 262.996094 296.449219 C 261.78125 296.269531 260.570312 296.058594 259.347656 295.816406 C 258.132812 295.578125 256.957031 295.605469 255.8125 295.90625 C 255.085938 296.03125 254.363281 296.511719 253.636719 297.355469 C 252.914062 298.207031 252.503906 299.144531 252.414062 300.1875 C 252.324219 301.21875 252.789062 302.125 253.820312 302.90625 C 254.601562 303.449219 255.722656 303.695312 257.171875 303.632812 C 258.621094 303.574219 260.117188 303.484375 261.65625 303.359375 C 263.210938 303.242188 264.472656 303.359375 265.441406 303.722656 C 267.011719 304.328125 268.113281 305.117188 268.75 306.078125 C 269.382812 307.046875 269.757812 308.316406 269.882812 309.886719 C 270.121094 311.761719 269.9375 313.644531 269.339844 315.550781 C 268.730469 317.453125 267.433594 318.714844 265.441406 319.332031 C 264.230469 319.640625 262.925781 319.621094 261.523438 319.289062 C 260.128906 318.960938 258.769531 318.714844 257.445312 318.5625 C 256.113281 318.398438 254.933594 318.804688 253.910156 319.785156 C 252.640625 321 252.109375 322.070312 252.324219 323.003906 C 252.53125 323.945312 253.183594 324.742188 254.273438 325.40625 C 255.359375 326.074219 256.546875 326.582031 257.851562 326.945312 C 259.148438 327.308594 260.230469 327.523438 261.089844 327.578125 C 262.359375 327.640625 263.746094 327.625 265.261719 327.535156 C 266.765625 327.445312 268.25 327.476562 269.699219 327.625 C 271.152344 327.777344 272.417969 328.277344 273.507812 329.121094 C 274.53125 329.84375 275.183594 330.875 275.457031 332.203125 C 275.726562 333.53125 275.773438 334.886719 275.589844 336.257812 C 275.410156 337.617188 275.136719 338.8125 274.777344 339.835938 C 273.871094 342.074219 272.566406 343.507812 270.878906 344.140625 C 269.183594 344.777344 267.191406 345.15625 264.898438 345.273438 C 262.117188 345.398438 259.328125 345.472656 256.539062 345.5 C 253.757812 345.535156 250.945312 345.609375 248.109375 345.726562 Z M 248.109375 345.726562 " fill-opacity="1" fill-rule="nonzero"/><path fill="#000000" d="M 325.957031 342.828125 C 323.964844 344.765625 322.140625 345.789062 320.496094 345.910156 C 318.867188 346.027344 317.398438 345.5 316.101562 344.324219 C 314.800781 343.144531 313.667969 341.59375 312.703125 339.65625 C 311.734375 337.707031 310.902344 335.632812 310.210938 333.425781 C 309.515625 331.222656 308.953125 329.136719 308.535156 327.171875 C 308.109375 325.210938 307.777344 323.683594 307.539062 322.59375 C 307.050781 322.71875 306.210938 322.867188 305.023438 323.046875 C 303.84375 323.230469 302.710938 323.445312 301.625 323.683594 C 300.539062 323.925781 299.8125 324.226562 299.449219 324.589844 C 299.023438 325.015625 298.78125 325.847656 298.726562 327.082031 C 298.664062 328.320312 298.570312 329.246094 298.453125 329.84375 C 298.027344 331.601562 297.558594 333.390625 297.046875 335.214844 C 296.53125 337.027344 295.671875 338.660156 294.464844 340.109375 C 292.890625 341.984375 291.089844 343.089844 289.050781 343.417969 C 287.023438 343.75 285.136719 343.371094 283.386719 342.285156 C 281.628906 341.195312 280.332031 339.535156 279.488281 337.300781 C 278.582031 334.808594 278.222656 332.054688 278.402344 329.03125 C 278.582031 326.011719 278.929688 322.976562 279.445312 319.921875 C 279.953125 316.859375 280.304688 314.054688 280.488281 311.515625 C 280.785156 307.347656 280.847656 303.078125 280.667969 298.691406 C 280.488281 294.296875 280.722656 290.078125 281.394531 286.027344 C 281.8125 283.480469 282.84375 281.464844 284.472656 279.980469 C 286.117188 278.5 288.167969 277.457031 290.613281 276.851562 C 293.0625 276.253906 295.699219 275.964844 298.542969 275.992188 C 301.382812 276.027344 304.207031 276.308594 307.015625 276.851562 C 309.835938 277.394531 312.433594 278.109375 314.789062 278.980469 C 317.144531 279.859375 319.074219 280.785156 320.589844 281.746094 C 323.804688 283.820312 326.105469 286.242188 327.5 289.019531 C 328.886719 291.800781 329.503906 294.707031 329.355469 297.742188 C 329.203125 300.765625 328.371094 303.738281 326.863281 306.667969 C 325.351562 309.601562 323.316406 312.242188 320.769531 314.597656 C 321.867188 316.292969 323.101562 318.351562 324.460938 320.78125 C 325.820312 323.203125 326.953125 325.757812 327.859375 328.441406 C 328.765625 331.132812 329.15625 333.738281 329.039062 336.257812 C 328.914062 338.765625 327.890625 340.957031 325.957031 342.828125 Z M 298 311.246094 C 299.75 310.582031 301.472656 309.855469 303.164062 309.070312 C 304.871094 308.289062 306.480469 307.347656 307.992188 306.261719 C 309.984375 304.871094 311.101562 303.496094 311.34375 302.136719 C 311.582031 300.765625 311.253906 299.519531 310.347656 298.398438 C 309.441406 297.28125 308.199219 296.40625 306.632812 295.769531 C 305.058594 295.136719 303.421875 294.882812 301.714844 295 C 300.382812 295.0625 299.28125 295.179688 298.40625 295.363281 C 297.53125 295.542969 296.914062 296.242188 296.550781 297.445312 C 296.1875 298.535156 296.109375 299.949219 296.324219 301.683594 C 296.53125 303.40625 296.832031 305.128906 297.230469 306.847656 C 297.621094 308.570312 297.875 310.039062 298 311.246094 Z M 298 311.246094 " fill-opacity="1" fill-rule="nonzero"/><path fill="#000000" d="M 345.816406 345.363281 C 344.484375 345.128906 342.996094 344.839844 341.351562 344.503906 C 339.722656 344.175781 338.179688 343.675781 336.730469 343.007812 C 335.28125 342.347656 334.132812 341.410156 333.289062 340.199219 C 332.136719 338.511719 331.710938 336.972656 332.019531 335.578125 C 332.320312 334.171875 333.117188 333.050781 334.421875 332.203125 C 335.71875 331.359375 337.242188 330.96875 338.996094 331.023438 C 340.09375 331.023438 341.3125 331.265625 342.644531 331.75 C 343.96875 332.234375 345.316406 332.6875 346.675781 333.109375 C 348.035156 333.53125 349.316406 333.640625 350.527344 333.425781 C 351.734375 333.214844 352.761719 332.382812 353.609375 330.933594 C 354.574219 329.363281 354.707031 327.960938 354.019531 326.71875 C 353.320312 325.484375 352.296875 324.425781 350.9375 323.546875 C 349.578125 322.675781 348.320312 321.960938 347.175781 321.417969 C 342.582031 319.167969 339.207031 316.183594 337.046875 312.46875 C 334.902344 308.753906 334.195312 304.289062 334.917969 299.078125 C 335.644531 293.882812 337.726562 289.398438 341.171875 285.621094 C 344.625 281.832031 348.835938 279.242188 353.792969 277.847656 C 356.203125 277.125 358.847656 276.734375 361.722656 276.671875 C 364.605469 276.613281 367.164062 277.277344 369.402344 278.664062 C 370.671875 279.453125 371.632812 280.535156 372.300781 281.90625 C 372.964844 283.265625 373.128906 284.59375 372.800781 285.890625 C 372.464844 287.195312 371.359375 288.148438 369.492188 288.746094 C 367.554688 289.351562 365.605469 290.1875 363.648438 291.238281 C 361.679688 292.296875 359.9375 293.523438 358.414062 294.910156 C 356.902344 296.304688 355.8125 297.832031 355.152344 299.507812 C 354.480469 301.175781 354.425781 302.90625 354.96875 304.71875 C 355.511719 306.53125 356.90625 308.378906 359.160156 310.246094 C 360.546875 311.460938 361.96875 312.558594 363.421875 313.554688 C 364.871094 314.550781 366.230469 315.640625 367.5 316.816406 C 368.765625 317.996094 369.792969 319.503906 370.578125 321.328125 C 371.605469 323.5625 372.164062 325.992188 372.257812 328.621094 C 372.347656 331.25 371.90625 333.714844 370.941406 336.007812 C 369.910156 338.5 368.460938 340.472656 366.59375 341.921875 C 364.71875 343.371094 362.609375 344.402344 360.269531 345.003906 C 357.941406 345.609375 355.542969 345.910156 353.066406 345.910156 C 350.585938 345.910156 348.171875 345.726562 345.816406 345.363281 Z M 345.816406 345.363281 " fill-opacity="1" fill-rule="nonzero"/><g clip-path="url(#757b6aa1f3)"><path fill="#070505" d="M 263.710938 161.980469 C 264.53125 161.558594 264.957031 161.371094 265.347656 161.125 C 266.558594 160.363281 267.871094 159.886719 269.292969 159.695312 C 273.433594 159.117188 277.59375 158.894531 281.742188 159.546875 C 284.617188 160.042969 287.324219 160.992188 289.882812 162.382812 C 290.648438 162.808594 291.355469 163.3125 292.007812 163.902344 C 292.867188 164.648438 293.648438 165.492188 294.484375 166.269531 C 296.882812 168.496094 298.199219 171.339844 299.070312 174.421875 C 299.308594 175.128906 299.398438 175.859375 299.355469 176.605469 C 299.085938 178.871094 298.882812 181.171875 298.304688 183.371094 C 297.484375 186.488281 295.222656 188.519531 292.363281 189.832031 C 290.683594 190.5625 288.972656 190.625 287.238281 190.023438 C 286.21875 189.707031 285.214844 189.316406 284.152344 188.9375 C 283.953125 189.101562 283.761719 189.277344 283.574219 189.457031 C 281.183594 192.085938 278.136719 193.292969 274.660156 193.554688 C 273.15625 193.65625 271.714844 193.429688 270.3125 192.863281 C 269.570312 192.574219 268.828125 192.273438 268.003906 191.9375 C 266.429688 193.140625 264.585938 193.242188 262.671875 193.09375 C 259.621094 192.8125 256.761719 191.898438 254.101562 190.371094 C 252.8125 189.617188 251.703125 188.648438 250.785156 187.464844 C 250.445312 187.054688 250.121094 186.625 249.730469 186.121094 C 249.277344 186.457031 248.851562 186.769531 248.433594 187.078125 C 244.207031 190.238281 239.710938 192.878906 234.652344 194.460938 C 232.15625 195.292969 229.601562 195.832031 226.984375 196.078125 C 222.519531 196.425781 218.136719 196.128906 213.917969 194.4375 C 212.054688 193.6875 210.144531 193.066406 208.191406 192.359375 C 207.953125 193.429688 208.15625 194.351562 208.214844 195.269531 C 208.347656 197.25 208.019531 199.15625 207.246094 200.980469 C 206.667969 202.28125 205.898438 203.449219 204.929688 204.492188 C 202.332031 207.375 197.0625 207.953125 193.742188 205.203125 C 191.140625 203.050781 189.464844 200.414062 189.035156 197.03125 C 189.011719 196.839844 188.949219 196.644531 188.871094 196.324219 C 188.566406 196.386719 188.257812 196.476562 187.964844 196.59375 C 183.664062 198.867188 179.089844 200 174.222656 200 C 173.621094 199.992188 173.011719 199.988281 172.410156 200.03125 C 166.644531 200.445312 161.03125 199.464844 155.453125 198.175781 C 149.515625 196.792969 144.34375 193.863281 139.585938 190.15625 C 138.527344 189.328125 137.542969 188.410156 136.515625 187.539062 C 136.167969 187.238281 135.804688 186.953125 135.363281 186.597656 C 135 187.125 134.726562 187.566406 134.417969 187.980469 C 131.472656 191.882812 127.726562 194.566406 122.84375 195.429688 C 119.480469 196.023438 118.359375 195.675781 115.757812 194.289062 C 115.488281 194.480469 115.164062 194.699219 114.851562 194.929688 C 112.59375 196.628906 110.054688 197.589844 107.234375 197.8125 C 104.929688 198.003906 102.871094 197.210938 100.941406 196.046875 C 100.425781 195.734375 99.945312 195.367188 99.433594 195.015625 C 98.183594 195.242188 96.941406 195.542969 95.683594 195.664062 C 94.75 195.785156 93.820312 195.75 92.894531 195.570312 C 87.398438 194.347656 83.949219 190.902344 82.421875 185.539062 C 81.9375 183.839844 82.152344 182.0625 82.398438 180.320312 C 82.894531 177.140625 84.113281 174.261719 86.050781 171.683594 C 90.03125 166.167969 95.519531 163.046875 102.050781 161.648438 C 104.160156 161.210938 106.28125 160.90625 108.429688 160.742188 C 111.863281 160.453125 115.277344 160.617188 118.546875 161.90625 C 118.699219 161.929688 118.855469 161.925781 119.011719 161.890625 C 119.054688 161.726562 119.066406 161.5625 119.050781 161.394531 C 117.84375 157.777344 117.621094 154.011719 117.414062 150.25 C 117.105469 145.6875 117.0625 141.117188 117.269531 136.539062 C 117.371094 134.664062 117.367188 132.777344 117.367188 130.890625 C 117.292969 128.824219 117.683594 126.851562 118.539062 124.972656 C 117.554688 123.160156 116.652344 121.28125 115.554688 119.53125 C 112.789062 115.09375 110.882812 110.3125 109.824219 105.195312 C 108.875 100.726562 107.941406 96.257812 107.496094 91.691406 C 107.246094 88.808594 107.230469 85.917969 107.433594 83.03125 C 107.804688 76.605469 109.425781 70.433594 111.039062 64.253906 C 112.109375 60.203125 113.664062 56.351562 115.707031 52.699219 C 116.585938 51.113281 117.367188 49.476562 118.183594 47.855469 C 119.605469 44.871094 121.332031 42.074219 123.359375 39.46875 C 123.65625 39.101562 123.9375 38.71875 124.261719 38.378906 C 124.683594 37.886719 125.199219 37.519531 125.800781 37.269531 C 126.402344 37.019531 127.023438 36.917969 127.675781 36.957031 C 129.101562 37.011719 130.460938 37.328125 131.765625 37.917969 C 134.636719 39.246094 137.417969 40.726562 139.832031 42.820312 C 140.335938 43.257812 140.839844 43.710938 141.386719 44.09375 C 144.316406 46.167969 146.808594 48.707031 149.1875 51.367188 C 150.949219 53.316406 152.542969 55.390625 153.96875 57.597656 C 154.976562 59.183594 156.03125 60.746094 157.089844 62.300781 C 158.824219 64.785156 160.347656 67.398438 161.65625 70.128906 C 162.542969 71.933594 163.539062 73.679688 164.652344 75.359375 C 165.070312 75.195312 165.394531 75.09375 165.6875 74.953125 C 171 72.445312 176.539062 70.660156 182.3125 69.589844 C 185.273438 69.015625 188.230469 68.390625 191.203125 67.851562 C 194.058594 67.347656 196.9375 67.171875 199.835938 67.335938 C 201.847656 67.4375 203.863281 67.539062 205.875 67.601562 C 208.441406 67.664062 210.953125 68.054688 213.417969 68.769531 C 215.269531 69.304688 217.15625 69.742188 219.082031 70.234375 C 219.347656 69.617188 219.59375 69.070312 219.8125 68.519531 C 221.078125 65.320312 222.605469 62.261719 224.414062 59.335938 C 226.417969 56.15625 228.421875 52.964844 230.519531 49.84375 C 231.605469 48.230469 232.886719 46.753906 234.097656 45.222656 C 235.636719 43.273438 237.207031 41.34375 238.75 39.394531 C 239.953125 37.863281 241.128906 36.308594 242.339844 34.785156 C 243.539062 33.316406 244.90625 32.027344 246.433594 30.914062 C 246.921875 30.558594 247.4375 30.246094 247.96875 29.96875 C 248.675781 29.589844 249.386719 29.574219 250.105469 29.925781 C 251.566406 30.5 252.8125 31.390625 253.847656 32.582031 C 254.320312 33.152344 254.75 33.746094 255.144531 34.371094 C 258.929688 40.277344 262.128906 46.445312 264.167969 53.203125 C 265.398438 57.203125 266.167969 61.285156 266.480469 65.453125 C 267.023438 73.25 267.121094 81.046875 266.996094 88.851562 C 266.949219 94.332031 266.152344 99.699219 264.597656 104.957031 C 263.261719 109.386719 262.105469 113.875 260.910156 118.199219 C 263.347656 123.273438 264.863281 128.609375 265.472656 134.207031 C 266.003906 139.484375 266.367188 144.796875 266.070312 150.117188 C 265.824219 153.34375 265.246094 156.515625 264.34375 159.625 C 264.175781 160.261719 264.003906 160.894531 263.710938 161.980469 Z M 263.710938 161.980469 " fill-opacity="1" fill-rule="nonzero"/></g><path fill="#f2d5b6" d="M 250.972656 36.664062 C 255.257812 42.847656 258.378906 49.578125 260.339844 56.84375 C 260.980469 59.183594 261.410156 61.5625 261.625 63.976562 C 262.320312 72.296875 262.566406 80.628906 262.34375 88.972656 C 262.253906 94.183594 261.457031 99.273438 259.953125 104.265625 C 258.90625 107.664062 258.023438 111.117188 257.070312 114.546875 C 256.996094 114.804688 256.964844 115.070312 256.882812 115.332031 C 256.164062 117.570312 256.578125 119.722656 257.429688 121.816406 C 258.914062 125.503906 259.984375 129.316406 260.644531 133.238281 C 260.769531 133.898438 260.847656 134.566406 260.898438 135.234375 C 261.070312 137.988281 261.171875 140.746094 261.382812 143.496094 C 261.800781 149.476562 261.03125 155.304688 259.066406 160.96875 C 258.085938 163.894531 256.992188 166.785156 255.792969 169.632812 C 253.804688 174.273438 250.984375 178.328125 247.328125 181.804688 C 246.617188 182.515625 245.851562 183.175781 245.046875 183.78125 C 239.835938 187.621094 234.148438 190.449219 227.667969 191.300781 C 223.648438 191.824219 219.625 191.660156 215.757812 190.160156 C 214.320312 189.601562 212.863281 189.089844 211.414062 188.5625 C 208.308594 187.425781 205.4375 185.820312 202.582031 184.183594 C 201.828125 183.753906 201.128906 183.246094 200.367188 182.746094 C 200.3125 180.667969 200.25 178.601562 200.1875 176.363281 C 200.527344 176.128906 200.882812 175.925781 201.257812 175.75 C 204.378906 174.511719 206.667969 172.339844 208.421875 169.507812 C 210.382812 166.355469 211.339844 162.90625 211.730469 159.246094 C 211.960938 157.015625 211.113281 155.347656 209.375 154.007812 C 207.535156 152.628906 205.464844 151.945312 203.171875 151.949219 C 201.6875 151.910156 200.214844 152 198.753906 152.222656 C 195.105469 152.765625 191.464844 153.390625 187.832031 154.046875 C 186.917969 154.234375 186.019531 154.523438 185.160156 154.90625 C 180.84375 156.691406 180.101562 161.347656 181.671875 164.507812 C 182.011719 165.164062 182.394531 165.792969 182.820312 166.398438 C 185.132812 169.871094 188.019531 172.710938 191.789062 174.59375 C 192.925781 175.160156 194.035156 175.78125 195.167969 176.386719 C 195.578125 177.675781 195.898438 181.15625 195.480469 182.113281 C 194.785156 183.691406 194.320312 185.390625 192.988281 186.664062 C 191.4375 188.15625 189.96875 189.71875 188.183594 190.953125 C 184.527344 193.542969 180.460938 194.96875 175.992188 195.234375 C 172.097656 195.46875 168.195312 195.757812 164.324219 195.097656 C 161.28125 194.585938 158.234375 194.035156 155.25 193.265625 C 150.359375 191.996094 146.105469 189.417969 142.210938 186.261719 C 138.136719 182.9375 134.394531 179.28125 130.976562 175.285156 C 128.492188 172.484375 126.640625 169.3125 125.421875 165.769531 C 124.492188 162.96875 123.65625 160.128906 122.863281 157.285156 C 122.664062 156.300781 122.542969 155.308594 122.503906 154.300781 C 123.324219 153.785156 124.085938 154.246094 124.816406 154.511719 C 129.71875 156.289062 134.726562 157.472656 139.996094 157.003906 C 145.144531 156.539062 150.304688 156.148438 155.289062 154.617188 C 157.019531 154.085938 158.777344 153.621094 160.542969 153.203125 C 167.402344 151.597656 173.683594 148.835938 178.617188 143.636719 C 184.148438 137.8125 186.769531 130.625 188.128906 122.859375 C 189.929688 112.589844 188.820312 102.492188 186.371094 92.476562 C 185.113281 87.316406 183.921875 82.140625 182.628906 76.988281 C 182.425781 76.160156 182.015625 75.304688 182.621094 74.464844 C 184.25 74.074219 185.875 73.679688 187.503906 73.292969 C 192.710938 72.042969 197.976562 71.691406 203.308594 72.25 C 204.175781 72.34375 205.058594 72.292969 205.925781 72.359375 C 207.328125 72.476562 208.738281 72.558594 210.121094 72.800781 C 212.179688 73.148438 214.246094 73.34375 216.328125 73.40625 C 216.726562 73.425781 217.121094 73.453125 217.644531 73.480469 C 217.683594 73.828125 217.734375 74.136719 217.757812 74.449219 C 217.886719 76.160156 218.335938 76.699219 219.964844 77.054688 C 220.164062 77.082031 220.367188 77.105469 220.566406 77.117188 C 221.652344 77.371094 222.441406 78.109375 223.3125 78.738281 C 228.40625 82.390625 232.691406 86.898438 236.894531 91.5 C 237.570312 92.234375 238.253906 92.992188 239.230469 93.371094 C 239.398438 93.453125 239.570312 93.546875 239.722656 93.667969 C 239.949219 93.847656 240.140625 94.0625 240.292969 94.3125 C 241.3125 96.273438 242.242188 98.277344 243.671875 99.996094 C 244.359375 100.832031 245.1875 101.5 246.152344 101.992188 C 248.152344 103.03125 249.339844 102.765625 250.851562 100.980469 C 252.800781 97.902344 253.003906 94.363281 253.378906 90.925781 C 254.617188 79.546875 253.847656 68.304688 251.078125 57.195312 C 250.269531 53.707031 248.859375 50.472656 246.863281 47.5 C 247.277344 44.066406 248.621094 40.871094 249.414062 37.53125 C 249.449219 37.359375 249.519531 37.214844 249.617188 37.070312 C 249.71875 36.9375 249.851562 36.824219 249.996094 36.742188 C 250.144531 36.660156 250.304688 36.609375 250.476562 36.597656 C 250.648438 36.585938 250.8125 36.601562 250.972656 36.664062 Z M 250.972656 36.664062 " fill-opacity="1" fill-rule="nonzero"/><path fill="#d1a87d" d="M 182.621094 74.464844 C 183.210938 76.941406 183.796875 79.417969 184.394531 81.886719 C 185.382812 85.917969 186.429688 89.941406 187.335938 93.984375 C 187.902344 96.527344 188.277344 99.117188 188.71875 101.683594 C 188.984375 103.261719 189.375 104.847656 189.417969 106.433594 C 189.527344 110.195312 189.601562 113.96875 189.425781 117.722656 C 189.3125 120.046875 188.695312 122.339844 188.347656 124.648438 C 187.914062 127.304688 187.183594 129.871094 186.15625 132.363281 C 184.972656 135.519531 183.40625 138.476562 181.457031 141.230469 C 179.246094 144.234375 176.628906 146.847656 173.363281 148.652344 C 170.726562 150.109375 167.953125 151.328125 165.195312 152.546875 C 164.066406 152.988281 162.910156 153.308594 161.722656 153.519531 C 159.101562 154.074219 156.546875 154.878906 153.96875 155.585938 C 152.027344 156.074219 150.058594 156.453125 148.078125 156.730469 C 146.167969 157.042969 144.242188 157.246094 142.324219 157.480469 C 141.789062 157.542969 141.253906 157.5625 140.714844 157.5625 C 139.105469 157.570312 137.492188 157.558594 135.878906 157.5625 C 133.449219 157.570312 131.085938 157.171875 128.792969 156.363281 C 126.714844 155.636719 124.601562 154.988281 122.503906 154.300781 C 122.425781 154.050781 122.363281 153.792969 122.328125 153.523438 C 121.964844 147.691406 121.574219 141.863281 121.984375 136 C 122.203125 132.855469 122.109375 129.683594 122.160156 126.523438 C 122.109375 126.058594 122.128906 125.597656 122.234375 125.136719 C 122.714844 123.890625 122.351562 122.753906 121.910156 121.621094 C 121.6875 121.054688 121.433594 120.507812 121.152344 119.972656 C 120.769531 119.183594 120.351562 118.417969 119.886719 117.675781 C 116.550781 112.652344 114.835938 107.027344 113.742188 101.171875 C 113.304688 98.863281 112.851562 96.550781 112.511719 94.226562 C 111.472656 87.148438 112.015625 80.148438 113.644531 73.214844 C 114.597656 68.808594 115.792969 64.46875 117.226562 60.203125 C 117.40625 59.695312 117.566406 59.179688 117.773438 58.6875 C 119.683594 54.171875 121.558594 49.636719 123.542969 45.15625 C 124.292969 43.445312 125.308594 41.847656 126.242188 40.128906 C 127.574219 40.460938 128.824219 40.980469 130 41.695312 C 132.394531 43.066406 134.652344 44.632812 136.777344 46.402344 C 137.269531 46.855469 137.792969 47.277344 138.328125 47.679688 C 141.441406 49.855469 144.027344 52.585938 146.492188 55.433594 C 147.421875 56.5 148.28125 57.617188 149.085938 58.777344 C 150.835938 61.324219 152.558594 63.890625 154.210938 66.503906 C 155.28125 68.203125 156.222656 69.992188 157.203125 71.746094 C 157.894531 72.980469 158.554688 74.222656 159.21875 75.46875 C 159.734375 76.335938 160.191406 77.230469 160.585938 78.160156 C 160.757812 78.65625 161.039062 79.09375 161.40625 79.472656 C 161.773438 79.847656 162.203125 80.128906 162.695312 80.324219 C 163.191406 80.511719 163.699219 80.589844 164.226562 80.554688 C 164.753906 80.519531 165.246094 80.378906 165.710938 80.128906 C 166.894531 79.5 168.164062 79.039062 169.378906 78.472656 C 173.503906 76.625 177.785156 75.28125 182.226562 74.449219 C 182.355469 74.445312 182.492188 74.445312 182.621094 74.464844 Z M 182.621094 74.464844 " fill-opacity="1" fill-rule="nonzero"/><path fill="#cfa77c" d="M 103.921875 192.261719 C 104.449219 191.757812 104.941406 191.226562 105.40625 190.664062 C 106.089844 189.757812 106.722656 188.816406 107.308594 187.84375 C 107.527344 187.417969 107.628906 186.972656 107.609375 186.496094 C 107.601562 186.203125 107.527344 185.929688 107.394531 185.675781 C 107.25 185.417969 107.0625 185.210938 106.820312 185.046875 C 106.582031 184.882812 106.316406 184.785156 106.027344 184.75 C 105.738281 184.71875 105.457031 184.75 105.183594 184.859375 C 104.511719 185.152344 103.890625 185.550781 103.34375 186.035156 C 102.78125 186.507812 102.335938 187.117188 101.820312 187.644531 C 100.425781 189.164062 98.734375 190.210938 96.75 190.777344 C 96.015625 190.953125 95.265625 191.015625 94.511719 190.976562 C 93.757812 190.9375 93.027344 190.789062 92.316406 190.539062 C 91.601562 190.285156 90.9375 189.941406 90.320312 189.503906 C 89.710938 189.0625 89.164062 188.546875 88.703125 187.953125 C 86.796875 185.503906 86.542969 182.8125 87.234375 179.9375 C 87.40625 179.148438 87.660156 178.386719 87.992188 177.648438 C 90.101562 173.34375 93.210938 170.046875 97.621094 168.046875 C 100.601562 166.761719 103.707031 165.957031 106.929688 165.617188 C 108.996094 165.324219 111.070312 165.265625 113.148438 165.453125 C 115.023438 165.6875 116.816406 166.195312 118.539062 166.984375 C 119.457031 167.386719 120.351562 167.84375 121.378906 168.335938 C 123.429688 174.082031 127.425781 178.605469 131.667969 182.976562 C 131.441406 184.003906 130.984375 184.902344 130.292969 185.695312 C 128 188.488281 125.160156 190.394531 121.523438 190.949219 C 120.597656 191.089844 119.648438 191.226562 118.828125 190.496094 C 119.175781 189.542969 119.523438 188.601562 119.863281 187.65625 C 120.164062 186.859375 120.125 186.070312 119.742188 185.304688 C 119.636719 185.070312 119.496094 184.863281 119.308594 184.6875 C 119.125 184.511719 118.90625 184.382812 118.664062 184.304688 C 118.421875 184.21875 118.171875 184.191406 117.917969 184.21875 C 117.660156 184.246094 117.425781 184.328125 117.203125 184.457031 C 116.632812 184.808594 116.15625 185.261719 115.777344 185.816406 C 115.441406 186.398438 115.140625 186.996094 114.878906 187.613281 C 113.464844 190.175781 111.523438 192.125 108.589844 192.867188 C 107.054688 193.257812 105.558594 193.328125 103.921875 192.261719 Z M 103.921875 192.261719 " fill-opacity="1" fill-rule="nonzero"/><path fill="#cfa77c" d="M 264.65625 188.980469 C 264.304688 189.027344 263.949219 189.023438 263.589844 188.972656 C 261.800781 188.398438 260.023438 187.804688 258.25 187.1875 C 257.132812 186.808594 256.140625 186.21875 255.269531 185.425781 C 254.398438 184.632812 253.710938 183.703125 253.226562 182.632812 C 253.40625 182.308594 253.609375 182 253.824219 181.699219 C 256.804688 178.097656 259.144531 174.113281 260.84375 169.757812 C 261.285156 168.621094 261.890625 167.777344 263.023438 167.292969 C 263.691406 166.976562 264.339844 166.621094 264.960938 166.21875 C 267.203125 164.886719 269.628906 164.179688 272.234375 164.089844 C 274.710938 163.964844 277.203125 164 279.683594 164.03125 C 281.589844 164.054688 283.339844 164.820312 285.132812 165.390625 C 288.582031 166.496094 290.828125 169.0625 292.976562 171.761719 C 293.53125 173.203125 294.109375 174.628906 294.640625 176.078125 C 294.730469 176.40625 294.75 176.742188 294.679688 177.078125 C 294.488281 178.46875 294.257812 179.863281 294.039062 181.257812 C 293.75 183.148438 292.5625 184.378906 291.011719 185.3125 C 290.347656 185.75 289.640625 185.855469 288.878906 185.636719 C 286.738281 184.984375 284.65625 184.265625 283.324219 182.257812 C 283.007812 181.824219 282.632812 181.445312 282.195312 181.121094 C 281.648438 180.671875 281.011719 180.492188 280.3125 180.570312 C 279.851562 180.59375 279.46875 180.769531 279.144531 181.097656 C 278.828125 181.425781 278.664062 181.824219 278.65625 182.28125 C 278.625 183.039062 278.808594 183.742188 279.199219 184.394531 C 279.496094 184.921875 279.828125 185.425781 280.175781 185.992188 C 280.035156 186.292969 279.847656 186.5625 279.625 186.808594 C 277.152344 188.800781 274.441406 189.539062 271.375 188.285156 C 270.433594 187.878906 269.628906 187.289062 268.953125 186.519531 C 268.457031 185.976562 267.984375 185.398438 267.441406 184.898438 C 266.484375 184.03125 265.289062 183.894531 264.503906 184.484375 C 263.699219 185.089844 263.425781 186.273438 263.867188 187.425781 C 264.0625 187.917969 264.351562 188.375 264.65625 188.980469 Z M 264.65625 188.980469 " fill-opacity="1" fill-rule="nonzero"/><path fill="#cea77c" d="M 239.457031 93.792969 C 238.800781 93.882812 238.265625 93.667969 237.851562 93.144531 C 236.183594 91.328125 234.347656 89.664062 232.746094 87.761719 C 231.273438 86.113281 229.6875 84.582031 227.988281 83.171875 C 226.535156 81.890625 224.984375 80.730469 223.464844 79.519531 C 222.84375 79.019531 222.191406 78.554688 221.570312 78.046875 C 221.21875 77.761719 220.902344 77.429688 220.566406 77.117188 C 221.621094 76.535156 222.300781 75.667969 222.609375 74.507812 C 224.628906 68.179688 227.820312 62.445312 231.445312 56.917969 C 233.882812 53.203125 236.386719 49.5625 239.394531 46.277344 C 240.449219 45.054688 241.425781 43.773438 242.332031 42.441406 C 244.191406 39.882812 246.183594 37.433594 248.324219 35.105469 C 248.558594 34.824219 248.769531 34.527344 248.964844 34.21875 C 249.792969 34.902344 250.46875 35.71875 250.972656 36.664062 C 250.636719 36.726562 250.347656 36.886719 250.109375 37.140625 C 249.878906 37.390625 249.738281 37.691406 249.695312 38.03125 C 249.210938 41.246094 248.015625 44.265625 247.164062 47.375 C 246.621094 47.96875 245.773438 47.84375 245.144531 48.242188 C 244.113281 48.679688 243.347656 49.402344 242.847656 50.410156 C 240.34375 55.054688 238.523438 59.953125 237.378906 65.105469 C 236.238281 70.257812 235.820312 75.46875 236.125 80.742188 C 236.335938 84.417969 237.621094 87.96875 239.105469 91.386719 C 239.433594 92.136719 240.140625 92.875 239.457031 93.792969 Z M 239.457031 93.792969 " fill-opacity="1" fill-rule="nonzero"/><path fill="#f7b0aa" d="M 192.425781 193.738281 C 193.445312 192.777344 194.414062 191.855469 195.394531 190.949219 C 195.480469 190.867188 195.640625 190.863281 195.804688 190.8125 C 196.125 191.875 196.414062 192.964844 196.789062 194.011719 C 197.042969 194.703125 197.367188 195.367188 197.75 195.996094 C 197.910156 196.242188 198.140625 196.355469 198.441406 196.335938 C 198.742188 196.304688 198.945312 196.152344 199.066406 195.875 C 199.316406 195.257812 199.523438 194.625 199.683594 193.972656 C 200.015625 192.664062 200.125 191.328125 200.007812 189.980469 C 199.972656 189.46875 200 188.949219 200 188.300781 C 201.066406 188.640625 201.847656 189.277344 202.742188 189.65625 C 203.210938 191.90625 203.636719 194.078125 203.574219 196.300781 C 203.570312 198.128906 202.953125 199.722656 201.722656 201.070312 C 201.417969 201.4375 201.054688 201.730469 200.632812 201.953125 C 200.214844 202.175781 199.769531 202.308594 199.292969 202.355469 C 198.820312 202.402344 198.359375 202.355469 197.898438 202.214844 C 197.445312 202.078125 197.03125 201.855469 196.664062 201.554688 C 195.769531 200.929688 195.066406 200.125 194.5625 199.148438 C 193.734375 197.394531 193.027344 195.59375 192.425781 193.738281 Z M 192.425781 193.738281 " fill-opacity="1" fill-rule="nonzero"/><path fill="#040302" d="M 239.457031 93.792969 C 239.355469 93.414062 239.222656 93.039062 239.078125 92.671875 C 237.570312 89.503906 236.648438 86.152344 235.855469 82.746094 C 235.429688 80.839844 235.257812 78.90625 235.351562 76.957031 C 235.46875 73.191406 235.945312 69.476562 236.789062 65.800781 C 237.203125 64.042969 237.609375 62.277344 238.046875 60.519531 C 239.03125 56.585938 240.953125 53.039062 242.78125 49.460938 C 243.289062 48.460938 244.152344 48.042969 245.148438 47.78125 C 246.914062 47.867188 247.5625 48.457031 247.703125 50.296875 C 247.863281 52.386719 247.449219 54.457031 247.164062 56.503906 C 246.542969 61.09375 246.03125 65.703125 245.832031 70.320312 C 245.574219 76.285156 247.089844 82.039062 248.6875 87.730469 C 249.601562 90.964844 250.445312 94.210938 251.136719 97.496094 C 251.492188 98.828125 251.457031 100.152344 251.023438 101.460938 C 250.007812 103.207031 248.789062 103.652344 246.871094 102.898438 C 245.453125 102.382812 244.28125 101.535156 243.359375 100.34375 C 242.164062 98.742188 240.96875 97.140625 240.289062 95.226562 C 240.128906 94.863281 239.941406 94.503906 239.734375 94.164062 C 239.734375 94 239.65625 93.898438 239.488281 93.859375 Z M 239.457031 93.792969 " fill-opacity="1" fill-rule="nonzero"/><path fill="#040302" d="M 227.890625 143.007812 C 222.65625 142.855469 217.453125 138.808594 217.558594 132.3125 C 217.574219 131.621094 217.65625 130.941406 217.808594 130.261719 C 217.957031 129.589844 218.164062 128.9375 218.441406 128.304688 C 218.726562 127.675781 219.058594 127.074219 219.457031 126.507812 C 219.851562 125.941406 220.300781 125.421875 220.796875 124.945312 C 221.296875 124.464844 221.835938 124.039062 222.417969 123.671875 C 223.003906 123.300781 223.613281 122.992188 224.257812 122.742188 C 224.898438 122.492188 225.5625 122.304688 226.242188 122.191406 C 226.921875 122.074219 227.605469 122.023438 228.296875 122.039062 C 233.542969 122.140625 238.59375 126.257812 238.511719 132.609375 C 238.417969 139.191406 233.117188 143.042969 227.890625 143.007812 Z M 227.890625 143.007812 " fill-opacity="1" fill-rule="nonzero"/><path fill="#fbb4ad" d="M 251.023438 101.460938 C 250.964844 99.445312 250.664062 97.457031 250.128906 95.507812 C 249.363281 92.664062 248.550781 89.828125 247.820312 86.972656 C 246.78125 82.878906 245.765625 78.777344 245.378906 74.558594 C 245.214844 72.953125 245.1875 71.34375 245.300781 69.738281 C 245.648438 65.386719 246.101562 61.054688 246.535156 56.714844 C 246.722656 54.914062 246.976562 53.117188 247.199219 51.324219 C 247.460938 49.183594 247.191406 48.71875 245.148438 47.78125 C 245.714844 47.125 246.484375 47.484375 247.164062 47.375 C 249.390625 49.820312 250.609375 52.75 251.292969 55.945312 C 252.054688 59.460938 252.875 62.96875 253.554688 66.503906 C 253.859375 68.066406 253.808594 69.695312 254.046875 71.273438 C 254.828125 76.414062 254.269531 81.582031 254.410156 86.734375 C 254.433594 87.523438 254.113281 88.316406 254.09375 89.101562 C 254.050781 90.511719 253.816406 91.890625 253.660156 93.28125 C 253.429688 95.34375 253 97.367188 252.371094 99.335938 C 252.117188 100.128906 251.941406 101.058594 251.023438 101.460938 Z M 251.023438 101.460938 " fill-opacity="1" fill-rule="nonzero"/><path fill="#cea77c" d="M 239.488281 93.859375 C 239.574219 93.960938 239.65625 94.0625 239.734375 94.171875 C 239.65625 94.0625 239.574219 93.960938 239.488281 93.859375 Z M 239.488281 93.859375 " fill-opacity="1" fill-rule="nonzero"/><path fill="#040303" d="M 131.109375 56.722656 C 131.164062 56.679688 131.210938 56.636719 131.253906 56.585938 C 132.511719 54.734375 133.664062 54.488281 135.417969 55.71875 C 136.675781 56.640625 137.746094 57.746094 138.636719 59.03125 C 141.082031 62.367188 142.96875 65.96875 143.914062 70.035156 C 144.386719 72.066406 144.996094 74.058594 145.558594 76.0625 C 146.332031 78.792969 146.796875 81.570312 146.957031 84.402344 C 147.195312 87.917969 146.46875 91.226562 144.78125 94.320312 C 142.628906 98.160156 139.535156 101.097656 135.847656 103.4375 C 135.050781 103.976562 134.171875 104.28125 133.214844 104.359375 C 132.097656 104.441406 131.074219 104.320312 130.242188 103.488281 C 129.226562 102.996094 129.324219 102.117188 129.492188 101.242188 C 129.640625 100.570312 129.9375 99.972656 130.378906 99.449219 C 134.09375 94.929688 134.746094 89.519531 134.914062 83.960938 C 135.167969 75.492188 134.042969 67.261719 130.957031 59.332031 C 130.621094 58.472656 130.246094 57.542969 131.109375 56.722656 Z M 131.109375 56.722656 " fill-opacity="1" fill-rule="nonzero"/><path fill="#fcb4ad" d="M 131.109375 56.722656 C 130.996094 57.832031 131.363281 58.832031 131.738281 59.847656 C 132.621094 62.238281 133.554688 64.609375 134.035156 67.132812 C 135.226562 73.34375 136.011719 79.59375 135.527344 85.941406 C 135.277344 88.960938 134.703125 91.921875 133.820312 94.816406 C 133.5 95.925781 132.984375 96.941406 132.273438 97.851562 C 131.742188 98.542969 131.226562 99.246094 130.6875 99.933594 C 129.832031 101.03125 129.554688 102.199219 130.242188 103.488281 C 130.007812 103.5625 129.652344 103.761719 129.574219 103.679688 C 129.019531 103.199219 128.542969 102.652344 128.140625 102.039062 C 126.792969 99.695312 126.054688 97.101562 125.433594 94.496094 C 124.917969 92.359375 124.621094 90.167969 124.253906 87.996094 C 124.199219 87.535156 124.179688 87.0625 124.199219 86.59375 C 124.1875 84.242188 124.226562 81.886719 124.167969 79.535156 C 124.175781 77.457031 124.40625 75.40625 124.859375 73.375 C 125.230469 71.476562 125.4375 69.542969 125.835938 67.648438 C 126.390625 64.960938 126.929688 62.25 128.269531 59.820312 C 128.933594 58.730469 129.652344 57.695312 130.445312 56.699219 C 130.632812 56.4375 130.894531 56.472656 131.109375 56.722656 Z M 131.109375 56.722656 " fill-opacity="1" fill-rule="nonzero"/><path fill="#030202" d="M 151.515625 134.761719 C 151.511719 134.085938 151.574219 133.417969 151.695312 132.753906 C 151.828125 132.09375 152.015625 131.453125 152.269531 130.828125 C 152.519531 130.207031 152.828125 129.613281 153.199219 129.050781 C 153.570312 128.484375 153.992188 127.964844 154.460938 127.488281 C 154.9375 127.007812 155.453125 126.582031 156.007812 126.203125 C 156.5625 125.824219 157.152344 125.503906 157.773438 125.246094 C 158.390625 124.984375 159.03125 124.785156 159.6875 124.648438 C 160.347656 124.515625 161.015625 124.445312 161.6875 124.445312 C 166.417969 124.355469 172.054688 127.996094 172.042969 134.792969 C 172.035156 135.46875 171.96875 136.136719 171.832031 136.792969 C 171.695312 137.449219 171.5 138.089844 171.238281 138.714844 C 170.976562 139.332031 170.660156 139.921875 170.285156 140.480469 C 169.90625 141.035156 169.480469 141.550781 169.007812 142.027344 C 168.53125 142.503906 168.007812 142.921875 167.449219 143.296875 C 166.886719 143.667969 166.300781 143.980469 165.675781 144.234375 C 165.058594 144.496094 164.417969 144.6875 163.757812 144.8125 C 163.097656 144.945312 162.429688 145.011719 161.761719 145.007812 C 161.089844 145.007812 160.425781 144.945312 159.761719 144.808594 C 159.105469 144.679688 158.464844 144.480469 157.847656 144.226562 C 157.226562 143.964844 156.636719 143.652344 156.074219 143.277344 C 155.519531 142.90625 155 142.480469 154.523438 142.003906 C 154.054688 141.527344 153.628906 141.007812 153.253906 140.445312 C 152.882812 139.890625 152.5625 139.304688 152.304688 138.679688 C 152.046875 138.058594 151.851562 137.417969 151.71875 136.757812 C 151.589844 136.097656 151.523438 135.433594 151.515625 134.761719 Z M 151.515625 134.761719 " fill-opacity="1" fill-rule="nonzero"/><g clip-path="url(#31878a1670)"><g clip-path="url(#95ff131a96)"><path fill="#000000" d="M 213.3125 137.890625 L 259.738281 137.890625 L 259.738281 160.835938 L 213.3125 160.835938 Z M 213.3125 137.890625 " fill-opacity="1" fill-rule="nonzero"/></g></g><g clip-path="url(#6ce4df493a)"><g clip-path="url(#8a4ba26844)"><path fill="#000000" d="M 216.789062 158.554688 L 252.003906 158.554688 L 252.003906 169.429688 L 216.789062 169.429688 Z M 216.789062 158.554688 " fill-opacity="1" fill-rule="nonzero"/></g></g><g clip-path="url(#f77ba073f5)"><g clip-path="url(#88225bf2be)"><path fill="#000000" d="M 215.808594 168.015625 L 254.296875 168.015625 L 254.296875 200.753906 L 215.808594 200.753906 Z M 215.808594 168.015625 " fill-opacity="1" fill-rule="nonzero"/></g></g><g clip-path="url(#a7d7679eb5)"><g clip-path="url(#10e67a14c1)"><path fill="#000000" d="M 129.136719 147.679688 L 177.988281 147.679688 L 177.988281 161.058594 L 129.136719 161.058594 Z M 129.136719 147.679688 " fill-opacity="1" fill-rule="nonzero"/></g></g><g clip-path="url(#a73748ae46)"><g clip-path="url(#0a147ed104)"><path fill="#000000" d="M 141.101562 159.75 L 173.828125 159.75 L 173.828125 172.800781 L 141.101562 172.800781 Z M 141.101562 159.75 " fill-opacity="1" fill-rule="nonzero"/></g></g><g clip-path="url(#c13b716fa6)"><g clip-path="url(#6290d8cbf0)"><path fill="#000000" d="M 148.710938 171.710938 L 179.367188 171.710938 L 179.367188 190.851562 L 148.710938 190.851562 Z M 148.710938 171.710938 " fill-opacity="1" fill-rule="nonzero"/></g></g></svg>