<svg xmlns="http://www.w3.org/2000/svg" xmlns:xlink="http://www.w3.org/1999/xlink" width="512" zoomAndPan="magnify" viewBox="0 0 384 383.999986" height="512" preserveAspectRatio="xMidYMid meet" version="1.0"><defs><clipPath id="94b34bc03b"><path d="M 234 261.339844 L 238 261.339844 L 238 265 L 234 265 Z M 234 261.339844 " clip-rule="nonzero"/></clipPath><clipPath id="773c2e636e"><path d="M 232.769531 264 L 247.769531 264 L 247.769531 277 L 232.769531 277 Z M 232.769531 264 " clip-rule="nonzero"/></clipPath><clipPath id="609fba23e1"><path d="M 6 50.484375 L 374.238281 50.484375 L 374.238281 351 L 6 351 Z M 6 50.484375 " clip-rule="nonzero"/></clipPath><clipPath id="37e740ce68"><path d="M 235.636719 241.042969 L 299.703125 241.042969 L 299.703125 265.335938 L 235.636719 265.335938 Z M 235.636719 241.042969 " clip-rule="nonzero"/></clipPath><clipPath id="d6be2265db"><path d="M 237.007812 261.71875 C 298.53125 241.273438 299.453125 241.832031 299.636719 242.378906 C 299.636719 242.933594 297.429688 244.777344 297.054688 244.59375 C 296.691406 244.402344 296.507812 241.640625 297.054688 241.273438 C 297.429688 240.910156 299.269531 241.640625 299.453125 242.195312 C 299.816406 242.75 299.453125 243.855469 298.351562 244.777344 C 293.554688 249.199219 244.558594 266.140625 238.109375 265.21875 C 236.644531 265.21875 235.90625 264.480469 235.722656 263.742188 C 235.722656 263.195312 237.007812 261.71875 237.007812 261.71875 " clip-rule="nonzero"/></clipPath><clipPath id="ac7afbd73f"><path d="M 241.585938 276.242188 L 286.40625 276.242188 L 286.40625 281.492188 L 241.585938 281.492188 Z M 241.585938 276.242188 " clip-rule="nonzero"/></clipPath><clipPath id="e965f18cc5"><path d="M 243.453125 276.273438 C 285.820312 276.828125 286.558594 277.558594 286.378906 278.113281 C 286.378906 278.851562 284.898438 280.140625 284.34375 279.957031 C 283.796875 279.773438 283.058594 277.011719 283.421875 276.828125 C 283.613281 276.453125 286.378906 277.375 286.378906 277.933594 C 286.558594 278.480469 285.820312 279.398438 284.535156 279.957031 C 279.929688 281.980469 248.058594 281.980469 243.453125 279.957031 C 242.167969 279.398438 241.613281 278.480469 241.613281 277.933594 C 241.613281 277.195312 243.453125 276.273438 243.453125 276.273438 " clip-rule="nonzero"/></clipPath><clipPath id="5f4c29d7ae"><path d="M 239.734375 292.292969 L 290.628906 292.292969 L 290.628906 333 L 239.734375 333 Z M 239.734375 292.292969 " clip-rule="nonzero"/></clipPath><clipPath id="3a5fadf2d9"><path d="M 242.714844 292.292969 C 290.609375 331.167969 290.242188 332.636719 289.6875 332.816406 C 289.324219 333.191406 287.105469 332.089844 287.105469 331.53125 C 286.925781 330.976562 288.765625 329.324219 289.324219 329.507812 C 289.871094 329.691406 290.609375 331.898438 290.425781 332.269531 C 290.0625 332.816406 288.949219 333.011719 287.664062 332.636719 C 281.582031 330.976562 243.820312 300.582031 240.507812 295.25 C 239.769531 294.136719 239.589844 293.40625 239.953125 292.851562 C 240.328125 292.292969 242.714844 292.292969 242.714844 292.292969 " clip-rule="nonzero"/></clipPath><clipPath id="b041c32c3e"><path d="M 93.121094 257.035156 L 161.179688 257.035156 L 161.179688 265.613281 L 93.121094 265.613281 Z M 93.121094 257.035156 " clip-rule="nonzero"/></clipPath><clipPath id="39edd0727a"><path d="M 159.28125 265.585938 C 93.695312 260.617188 93.148438 259.328125 93.332031 258.773438 C 93.695312 258.21875 96.09375 258.035156 96.460938 258.410156 C 96.832031 258.773438 96.277344 261.171875 95.730469 261.355469 C 95.175781 261.535156 93.332031 260.25 93.148438 259.511719 C 93.148438 258.957031 93.886719 258.21875 95.175781 257.851562 C 101.621094 255.644531 154.300781 258.773438 159.644531 261.902344 C 160.746094 262.640625 161.121094 263.378906 161.121094 263.933594 C 161.121094 264.480469 159.28125 265.585938 159.28125 265.585938 " clip-rule="nonzero"/></clipPath><clipPath id="b243778670"><path d="M 113.382812 277.75 L 153.964844 277.75 L 153.964844 285.78125 L 113.382812 285.78125 Z M 113.382812 277.75 " clip-rule="nonzero"/></clipPath><clipPath id="87139297b5"><path d="M 152.09375 281.980469 C 125.203125 283.082031 118.199219 286.222656 115.617188 285.664062 C 114.515625 285.300781 113.410156 284.5625 113.410156 284.003906 C 113.410156 283.457031 115.992188 281.980469 116.355469 282.355469 C 116.722656 282.539062 116.355469 285.300781 115.800781 285.484375 C 115.253906 285.847656 113.957031 285.300781 113.777344 284.742188 C 113.410156 284.195312 113.59375 282.902344 114.332031 282.164062 C 116.355469 280.320312 124.644531 279.398438 130.355469 278.851562 C 137.175781 278.113281 148.957031 277.195312 152.09375 278.296875 C 153.195312 278.671875 153.9375 279.398438 153.9375 279.957031 C 153.9375 280.511719 152.09375 281.980469 152.09375 281.980469 " clip-rule="nonzero"/></clipPath><clipPath id="d0f76bb879"><path d="M 126.152344 298.414062 L 163.636719 298.414062 L 163.636719 316.269531 L 126.152344 316.269531 Z M 126.152344 298.414062 " clip-rule="nonzero"/></clipPath><clipPath id="95445d416a"><path d="M 162.042969 302.242188 C 135.332031 310.53125 131.09375 315.875 128.886719 316.058594 C 127.773438 316.238281 126.488281 315.511719 126.304688 314.953125 C 126.125 314.398438 127.042969 312.746094 127.589844 312.554688 C 128.328125 312.375 129.808594 313.292969 129.988281 314.035156 C 129.988281 314.589844 128.886719 316.238281 128.328125 316.238281 C 127.964844 316.058594 126.671875 314.035156 126.851562 312.929688 C 127.589844 310.53125 133.671875 307.03125 138.460938 304.824219 C 144.542969 302.058594 157.984375 297.820312 161.484375 298.558594 C 162.589844 298.742188 163.511719 299.660156 163.511719 300.402344 C 163.691406 300.957031 162.042969 302.242188 162.042969 302.242188 " clip-rule="nonzero"/></clipPath></defs><g clip-path="url(#94b34bc03b)"><path fill="#ffffff" d="M 237.625 262.800781 C 237.625 262.996094 237.589844 263.179688 237.515625 263.359375 C 237.441406 263.539062 237.335938 263.699219 237.195312 263.835938 C 237.058594 263.972656 236.902344 264.078125 236.722656 264.152344 C 236.542969 264.226562 236.359375 264.261719 236.164062 264.261719 C 235.96875 264.261719 235.785156 264.226562 235.605469 264.152344 C 235.425781 264.078125 235.265625 263.972656 235.128906 263.835938 C 234.992188 263.699219 234.886719 263.539062 234.8125 263.359375 C 234.738281 263.179688 234.703125 262.996094 234.703125 262.800781 C 234.703125 262.605469 234.738281 262.421875 234.8125 262.242188 C 234.886719 262.0625 234.992188 261.902344 235.128906 261.765625 C 235.265625 261.628906 235.425781 261.523438 235.605469 261.449219 C 235.785156 261.375 235.96875 261.339844 236.164062 261.339844 C 236.359375 261.339844 236.542969 261.375 236.722656 261.449219 C 236.902344 261.523438 237.058594 261.628906 237.195312 261.765625 C 237.335938 261.902344 237.441406 262.0625 237.515625 262.242188 C 237.589844 262.421875 237.625 262.605469 237.625 262.800781 Z M 237.625 262.800781 " fill-opacity="1" fill-rule="nonzero"/></g><path fill="#ffffff" d="M 243.175781 271.039062 C 243.574219 270.628906 243.292969 270.101562 243.292969 270.101562 C 243.292969 270.101562 243.15625 270.332031 242.941406 270.550781 C 242.894531 270.148438 242.519531 269.941406 242.519531 269.941406 C 242.519531 269.941406 242.527344 270.234375 242.460938 270.550781 C 242.386719 270.539062 242.308594 270.535156 242.246094 270.550781 C 242.015625 270.605469 241.769531 270.792969 241.546875 270.601562 C 241.324219 270.40625 241.296875 270.375 241.175781 270.378906 C 241.050781 270.378906 240.800781 271.074219 240.953125 271.378906 C 241.109375 271.683594 241.738281 271.652344 241.777344 271.777344 C 241.820312 271.90625 241.628906 272.320312 241.34375 272.75 C 241.539062 272.816406 241.734375 272.851562 241.921875 272.867188 L 243.230469 272.621094 C 243.148438 272.113281 243.164062 271.3125 243.175781 271.039062 Z M 242.320312 271.085938 C 242.265625 271.144531 242.175781 271.152344 242.113281 271.097656 C 242.050781 271.046875 242.046875 270.953125 242.097656 270.890625 C 242.152344 270.832031 242.246094 270.824219 242.304688 270.878906 C 242.367188 270.929688 242.371094 271.023438 242.320312 271.085938 Z M 242.320312 271.085938 " fill-opacity="1" fill-rule="nonzero"/><g clip-path="url(#773c2e636e)"><path fill="#ffffff" d="M 247.601562 276.238281 C 246.636719 276.25 245.847656 275.425781 245.445312 274.902344 C 245.183594 274.132812 244.566406 273.46875 243.421875 272.90625 C 243.367188 272.855469 243.292969 272.824219 243.214844 272.824219 L 241.328125 273.175781 C 241.324219 273.199219 241.320312 273.222656 241.320312 273.25 L 241.324219 273.28125 C 241.0625 273.589844 240.894531 274.046875 240.726562 274.496094 C 240.449219 275.246094 240.1875 275.953125 239.558594 275.953125 C 239.441406 275.953125 239.347656 275.910156 239.269531 275.824219 C 238.84375 275.328125 239.101562 273.5625 239.292969 272.273438 C 239.464844 271.113281 239.546875 270.484375 239.378906 270.296875 C 239.527344 267.589844 239.183594 265.820312 238.355469 265.039062 C 237.988281 264.699219 237.632812 264.636719 237.449219 264.632812 C 237.441406 264.632812 237.429688 264.632812 237.417969 264.632812 L 234.910156 264.632812 C 234.898438 264.632812 234.886719 264.632812 234.878906 264.632812 C 234.695312 264.636719 234.339844 264.695312 233.972656 265.039062 C 233.136719 265.828125 232.792969 267.617188 232.953125 270.363281 C 232.96875 270.636719 233.199219 270.851562 233.472656 270.851562 C 233.480469 270.851562 233.492188 270.851562 233.503906 270.851562 C 233.789062 270.835938 234.007812 270.589844 233.992188 270.300781 C 233.859375 268.019531 234.117188 266.800781 234.40625 266.199219 L 234.40625 275.945312 C 234.40625 276.386719 234.765625 276.75 235.210938 276.75 C 235.652344 276.75 236.011719 276.386719 236.011719 275.945312 L 236.011719 270.082031 L 236.3125 270.082031 L 236.3125 275.945312 C 236.3125 276.386719 236.675781 276.75 237.117188 276.75 C 237.5625 276.75 237.921875 276.386719 237.921875 275.945312 L 237.921875 266.203125 C 238.191406 266.753906 238.472656 267.90625 238.335938 270.273438 C 238.242188 270.382812 238.195312 270.492188 238.191406 270.5 C 238.167969 270.546875 238.191406 270.605469 238.242188 270.628906 C 238.289062 270.648438 238.347656 270.625 238.367188 270.578125 C 238.367188 270.578125 238.375 270.566406 238.382812 270.550781 C 238.460938 270.71875 238.625 270.839844 238.824219 270.851562 C 238.835938 270.851562 238.84375 270.851562 238.855469 270.851562 C 239.027344 270.851562 239.183594 270.765625 239.277344 270.632812 C 239.285156 270.976562 239.1875 271.664062 239.101562 272.246094 C 238.882812 273.71875 238.636719 275.386719 239.125 275.949219 C 239.234375 276.082031 239.382812 276.148438 239.558594 276.148438 C 240.320312 276.148438 240.621094 275.34375 240.910156 274.5625 C 241.042969 274.207031 241.171875 273.855469 241.34375 273.589844 L 241.515625 276.351562 C 241.523438 276.503906 241.644531 276.621094 241.796875 276.625 C 241.800781 276.625 241.804688 276.625 241.804688 276.625 C 241.953125 276.625 242.078125 276.515625 242.097656 276.371094 L 242.289062 274.808594 C 242.554688 274.953125 242.914062 275.109375 243.25 275.269531 C 243.183594 275.085938 243.191406 274.886719 243.355469 274.675781 C 243.492188 274.507812 243.664062 274.472656 243.84375 274.511719 C 243.730469 274.53125 243.628906 274.582031 243.554688 274.675781 C 243.074219 275.273438 243.921875 275.824219 244.089844 275.9375 C 244.199219 276.011719 243.527344 276.023438 243.152344 276.15625 C 242.941406 276.230469 242.902344 276.40625 242.953125 276.496094 C 243.066406 276.699219 244.679688 276.75 245.367188 276.667969 C 245.546875 276.648438 245.664062 276.617188 245.679688 276.578125 C 245.714844 276.476562 245.664062 276.101562 245.609375 275.773438 C 246.097656 276.246094 246.773438 276.695312 247.582031 276.695312 C 247.589844 276.695312 247.597656 276.695312 247.605469 276.695312 C 247.730469 276.691406 247.832031 276.589844 247.828125 276.464844 C 247.828125 276.335938 247.722656 276.234375 247.601562 276.238281 Z M 247.601562 276.238281 " fill-opacity="1" fill-rule="nonzero"/></g><g clip-path="url(#609fba23e1)"><path fill="#070505" d="M 313.71875 274.707031 C 315.109375 273.988281 315.832031 273.671875 316.492188 273.261719 C 318.546875 271.964844 320.769531 271.160156 323.179688 270.832031 C 330.191406 269.855469 337.234375 269.480469 344.265625 270.582031 C 349.128906 271.425781 353.714844 273.03125 358.050781 275.390625 C 359.347656 276.109375 360.546875 276.964844 361.648438 277.960938 C 363.109375 279.226562 364.433594 280.65625 365.84375 281.972656 C 369.910156 285.742188 372.136719 290.558594 373.613281 295.777344 C 374.015625 296.976562 374.167969 298.214844 374.09375 299.480469 C 373.640625 303.316406 373.296875 307.210938 372.316406 310.933594 C 370.925781 316.222656 367.097656 319.65625 362.253906 321.882812 C 359.40625 323.117188 356.507812 323.222656 353.570312 322.207031 C 351.84375 321.671875 350.148438 321.007812 348.34375 320.367188 C 348.007812 320.644531 347.679688 320.941406 347.363281 321.246094 C 343.316406 325.699219 338.15625 327.742188 332.265625 328.183594 C 329.722656 328.355469 327.277344 327.972656 324.90625 327.015625 C 323.648438 326.523438 322.390625 326.015625 320.992188 325.449219 C 318.324219 327.484375 315.207031 327.65625 311.964844 327.40625 C 306.792969 326.925781 301.949219 325.382812 297.449219 322.792969 C 295.261719 321.515625 293.382812 319.875 291.828125 317.871094 C 291.25 317.179688 290.703125 316.449219 290.042969 315.597656 C 289.273438 316.164062 288.554688 316.691406 287.84375 317.21875 C 280.6875 322.570312 273.070312 327.042969 264.503906 329.71875 C 260.273438 331.128906 255.945312 332.039062 251.515625 332.464844 C 243.953125 333.046875 236.527344 332.550781 229.382812 329.679688 C 226.226562 328.414062 222.992188 327.359375 219.683594 326.160156 C 219.277344 327.972656 219.625 329.535156 219.71875 331.089844 C 219.949219 334.449219 219.394531 337.671875 218.078125 340.761719 C 217.101562 342.96875 215.796875 344.945312 214.15625 346.710938 C 209.761719 351.59375 200.828125 352.570312 195.207031 347.917969 C 190.804688 344.273438 187.964844 339.800781 187.234375 334.074219 C 187.195312 333.75 187.089844 333.421875 186.957031 332.875 C 186.4375 332.980469 185.921875 333.132812 185.421875 333.335938 C 178.140625 337.183594 170.390625 339.101562 162.148438 339.101562 C 161.132812 339.09375 160.09375 339.082031 159.078125 339.160156 C 149.3125 339.859375 139.804688 338.199219 130.355469 336.011719 C 120.300781 333.671875 111.539062 328.710938 103.480469 322.429688 C 101.6875 321.027344 100.019531 319.472656 98.28125 317.996094 C 97.6875 317.488281 97.074219 317.007812 96.324219 316.402344 C 95.710938 317.296875 95.25 318.042969 94.722656 318.742188 C 89.734375 325.355469 83.394531 329.902344 75.125 331.359375 C 69.425781 332.367188 67.523438 331.78125 63.121094 329.429688 C 62.660156 329.757812 62.113281 330.121094 61.585938 330.515625 C 57.757812 333.394531 53.460938 335.023438 48.683594 335.398438 C 44.777344 335.726562 41.296875 334.382812 38.023438 332.40625 C 37.152344 331.878906 36.335938 331.253906 35.472656 330.660156 C 33.351562 331.042969 31.25 331.550781 29.121094 331.761719 C 27.539062 331.964844 25.964844 331.90625 24.390625 331.597656 C 15.085938 329.527344 9.242188 323.695312 6.652344 314.609375 C 5.835938 311.730469 6.203125 308.71875 6.613281 305.773438 C 7.457031 300.382812 9.519531 295.507812 12.800781 291.144531 C 19.546875 281.796875 28.84375 276.511719 39.90625 274.144531 C 43.472656 273.402344 47.070312 272.886719 50.707031 272.609375 C 56.519531 272.117188 62.304688 272.398438 67.839844 274.582031 C 68.101562 274.621094 68.367188 274.613281 68.628906 274.554688 C 68.703125 274.277344 68.722656 274 68.695312 273.710938 C 66.652344 267.589844 66.277344 261.210938 65.921875 254.839844 C 65.40625 247.109375 65.328125 239.367188 65.683594 231.613281 C 65.855469 228.4375 65.847656 225.242188 65.847656 222.046875 C 65.722656 218.546875 66.382812 215.207031 67.832031 212.023438 C 66.164062 208.953125 64.636719 205.769531 62.777344 202.804688 C 58.09375 195.292969 54.859375 187.195312 53.066406 178.523438 C 51.464844 170.953125 49.882812 163.382812 49.125 155.648438 C 48.703125 150.765625 48.671875 145.875 49.019531 140.980469 C 49.652344 130.101562 52.394531 119.644531 55.128906 109.179688 C 56.941406 102.320312 59.570312 95.792969 63.035156 89.605469 C 64.523438 86.921875 65.847656 84.148438 67.226562 81.402344 C 69.636719 76.347656 72.5625 71.609375 75.996094 67.195312 C 76.496094 66.574219 76.976562 65.929688 77.523438 65.355469 C 78.242188 64.519531 79.113281 63.894531 80.132812 63.472656 C 81.148438 63.050781 82.203125 62.878906 83.304688 62.945312 C 85.722656 63.03125 88.027344 63.570312 90.234375 64.566406 C 95.097656 66.820312 99.808594 69.324219 103.894531 72.875 C 104.75 73.613281 105.601562 74.382812 106.53125 75.035156 C 111.492188 78.546875 115.714844 82.84375 119.742188 87.351562 C 122.726562 90.652344 125.421875 94.164062 127.839844 97.90625 C 129.546875 100.589844 131.332031 103.238281 133.125 105.867188 C 136.0625 110.078125 138.644531 114.503906 140.859375 119.125 C 142.367188 122.1875 144.054688 125.140625 145.933594 127.992188 C 146.644531 127.714844 147.191406 127.539062 147.691406 127.300781 C 156.6875 123.050781 166.070312 120.027344 175.847656 118.214844 C 180.867188 117.246094 185.875 116.179688 190.910156 115.269531 C 195.746094 114.417969 200.617188 114.117188 205.53125 114.398438 C 208.9375 114.570312 212.351562 114.742188 215.757812 114.847656 C 220.105469 114.953125 224.363281 115.617188 228.535156 116.824219 C 231.675781 117.734375 234.867188 118.472656 238.128906 119.308594 C 238.582031 118.261719 238.992188 117.332031 239.367188 116.402344 C 241.507812 110.980469 244.097656 105.800781 247.15625 100.851562 C 250.554688 95.460938 253.949219 90.058594 257.5 84.773438 C 259.34375 82.039062 261.511719 79.535156 263.5625 76.941406 C 266.171875 73.644531 268.832031 70.371094 271.441406 67.070312 C 273.484375 64.480469 275.46875 61.84375 277.523438 59.261719 C 279.554688 56.777344 281.867188 54.589844 284.457031 52.710938 C 285.285156 52.105469 286.15625 51.578125 287.058594 51.105469 C 288.257812 50.464844 289.457031 50.4375 290.675781 51.03125 C 293.152344 52.007812 295.261719 53.515625 297.015625 55.53125 C 297.8125 56.5 298.542969 57.507812 299.214844 58.5625 C 305.621094 68.566406 311.042969 79.015625 314.496094 90.460938 C 316.578125 97.234375 317.882812 104.152344 318.410156 111.210938 C 319.332031 124.414062 319.496094 137.625 319.285156 150.84375 C 319.207031 160.121094 317.855469 169.214844 315.226562 178.117188 C 312.960938 185.621094 311.003906 193.230469 308.980469 200.550781 C 313.105469 209.144531 315.675781 218.183594 316.703125 227.660156 C 317.605469 236.601562 318.21875 245.601562 317.71875 254.609375 C 317.296875 260.078125 316.320312 265.449219 314.792969 270.71875 C 314.507812 271.792969 314.21875 272.867188 313.71875 274.707031 Z M 313.71875 274.707031 " fill-opacity="1" fill-rule="nonzero"/></g><path fill="#f2d5b6" d="M 292.144531 62.445312 C 299.40625 72.921875 304.691406 84.320312 308.011719 96.628906 C 309.09375 100.589844 309.824219 104.621094 310.1875 108.707031 C 311.371094 122.800781 311.78125 136.914062 311.40625 151.046875 C 311.253906 159.871094 309.902344 168.496094 307.359375 176.949219 C 305.585938 182.703125 304.085938 188.558594 302.476562 194.359375 C 302.351562 194.800781 302.292969 195.253906 302.160156 195.695312 C 300.941406 199.484375 301.640625 203.128906 303.082031 206.679688 C 305.59375 212.925781 307.40625 219.382812 308.53125 226.019531 C 308.742188 227.144531 308.875 228.273438 308.960938 229.40625 C 309.25 234.070312 309.421875 238.742188 309.777344 243.394531 C 310.488281 253.527344 309.183594 263.398438 305.851562 272.992188 C 304.191406 277.953125 302.339844 282.84375 300.308594 287.667969 C 296.941406 295.527344 292.164062 302.394531 285.972656 308.285156 C 284.765625 309.484375 283.46875 310.609375 282.109375 311.636719 C 273.28125 318.140625 263.648438 322.925781 252.675781 324.367188 C 245.863281 325.257812 239.050781 324.980469 232.5 322.4375 C 230.0625 321.488281 227.597656 320.625 225.140625 319.730469 C 219.882812 317.804688 215.019531 315.089844 210.183594 312.316406 C 208.90625 311.585938 207.71875 310.722656 206.433594 309.878906 C 206.335938 306.359375 206.230469 302.855469 206.125 299.066406 C 206.703125 298.671875 207.304688 298.328125 207.9375 298.03125 C 213.226562 295.929688 217.101562 292.253906 220.074219 287.457031 C 223.394531 282.113281 225.015625 276.273438 225.679688 270.074219 C 226.070312 266.296875 224.632812 263.472656 221.6875 261.199219 C 218.570312 258.871094 215.066406 257.707031 211.183594 257.71875 C 208.667969 257.652344 206.171875 257.804688 203.699219 258.179688 C 197.519531 259.097656 191.351562 260.15625 185.203125 261.269531 C 183.648438 261.585938 182.132812 262.074219 180.671875 262.726562 C 173.363281 265.75 172.105469 273.632812 174.765625 278.988281 C 175.339844 280.101562 175.992188 281.164062 176.710938 282.191406 C 180.625 288.074219 185.519531 292.878906 191.898438 296.074219 C 193.828125 297.035156 195.707031 298.078125 197.625 299.105469 C 198.316406 301.292969 198.863281 307.183594 198.152344 308.804688 C 196.972656 311.480469 196.1875 314.359375 193.933594 316.519531 C 191.304688 319.042969 188.820312 321.6875 185.796875 323.78125 C 179.597656 328.164062 172.710938 330.582031 165.140625 331.035156 C 158.550781 331.425781 151.941406 331.917969 145.378906 330.804688 C 140.226562 329.929688 135.066406 329 130.007812 327.695312 C 121.730469 325.546875 114.523438 321.179688 107.925781 315.835938 C 101.027344 310.207031 94.683594 304.007812 88.898438 297.246094 C 84.6875 292.496094 81.550781 287.121094 79.488281 281.125 C 77.914062 276.378906 76.496094 271.570312 75.152344 266.753906 C 74.816406 265.085938 74.613281 263.40625 74.546875 261.699219 C 75.9375 260.828125 77.222656 261.605469 78.460938 262.054688 C 86.769531 265.066406 95.25 267.070312 104.171875 266.277344 C 112.894531 265.488281 121.632812 264.828125 130.074219 262.238281 C 133.011719 261.335938 135.984375 260.546875 138.980469 259.839844 C 150.597656 257.125 161.238281 252.441406 169.59375 243.632812 C 178.957031 233.773438 183.398438 221.597656 185.699219 208.445312 C 188.75 191.050781 186.871094 173.945312 182.726562 156.984375 C 180.597656 148.242188 178.574219 139.476562 176.386719 130.746094 C 176.039062 129.34375 175.347656 127.894531 176.375 126.476562 C 179.128906 125.8125 181.882812 125.140625 184.644531 124.488281 C 193.460938 122.371094 202.382812 121.773438 211.410156 122.722656 C 212.878906 122.878906 214.375 122.792969 215.84375 122.90625 C 218.222656 123.109375 220.613281 123.242188 222.953125 123.65625 C 226.4375 124.242188 229.9375 124.574219 233.46875 124.679688 C 234.140625 124.710938 234.8125 124.757812 235.695312 124.804688 C 235.761719 125.390625 235.847656 125.917969 235.886719 126.445312 C 236.105469 129.34375 236.863281 130.253906 239.628906 130.859375 C 239.964844 130.90625 240.308594 130.945312 240.644531 130.964844 C 242.484375 131.398438 243.820312 132.644531 245.296875 133.710938 C 253.921875 139.898438 261.183594 147.535156 268.304688 155.324219 C 269.445312 156.570312 270.605469 157.855469 272.253906 158.5 C 272.542969 158.632812 272.832031 158.796875 273.089844 159 C 273.472656 159.304688 273.800781 159.671875 274.058594 160.09375 C 275.785156 163.410156 277.359375 166.808594 279.777344 169.714844 C 280.949219 171.132812 282.347656 172.265625 283.980469 173.101562 C 287.367188 174.855469 289.378906 174.40625 291.941406 171.382812 C 295.242188 166.175781 295.585938 160.179688 296.21875 154.355469 C 298.320312 135.082031 297.015625 116.039062 292.324219 97.222656 C 290.953125 91.316406 288.566406 85.835938 285.1875 80.800781 C 285.886719 74.984375 288.160156 69.574219 289.503906 63.914062 C 289.5625 63.628906 289.6875 63.378906 289.851562 63.136719 C 290.023438 62.90625 290.242188 62.714844 290.492188 62.582031 C 290.742188 62.4375 291.011719 62.351562 291.308594 62.332031 C 291.597656 62.3125 291.875 62.339844 292.144531 62.445312 Z M 292.144531 62.445312 " fill-opacity="1" fill-rule="nonzero"/><path fill="#d1a87d" d="M 176.375 126.476562 C 177.375 130.667969 178.363281 134.859375 179.378906 139.042969 C 181.046875 145.875 182.824219 152.6875 184.359375 159.535156 C 185.316406 163.84375 185.949219 168.226562 186.699219 172.574219 C 187.148438 175.25 187.8125 177.9375 187.886719 180.621094 C 188.070312 186.992188 188.195312 193.382812 187.898438 199.742188 C 187.707031 203.675781 186.660156 207.5625 186.074219 211.476562 C 185.335938 215.976562 184.097656 220.320312 182.363281 224.542969 C 180.355469 229.886719 177.699219 234.894531 174.398438 239.558594 C 170.65625 244.652344 166.226562 249.074219 160.691406 252.132812 C 156.230469 254.601562 151.527344 256.664062 146.855469 258.726562 C 144.945312 259.472656 142.988281 260.019531 140.972656 260.375 C 136.53125 261.316406 132.207031 262.679688 127.839844 263.878906 C 124.550781 264.703125 121.222656 265.34375 117.863281 265.816406 C 114.628906 266.34375 111.367188 266.6875 108.117188 267.082031 C 107.214844 267.1875 106.304688 267.226562 105.390625 267.226562 C 102.667969 267.234375 99.933594 267.214844 97.199219 267.226562 C 93.082031 267.234375 89.082031 266.5625 85.195312 265.191406 C 81.675781 263.964844 78.097656 262.859375 74.546875 261.699219 C 74.414062 261.277344 74.308594 260.835938 74.25 260.386719 C 73.636719 250.503906 72.972656 240.632812 73.664062 230.703125 C 74.039062 225.378906 73.875 220.003906 73.960938 214.652344 C 73.875 213.863281 73.914062 213.078125 74.085938 212.300781 C 74.902344 210.191406 74.289062 208.261719 73.539062 206.34375 C 73.164062 205.382812 72.734375 204.464844 72.253906 203.550781 C 71.613281 202.21875 70.902344 200.921875 70.113281 199.667969 C 64.464844 191.15625 61.558594 181.628906 59.707031 171.710938 C 58.96875 167.796875 58.199219 163.882812 57.625 159.949219 C 55.859375 147.957031 56.78125 136.097656 59.542969 124.355469 C 61.15625 116.890625 63.179688 109.542969 65.605469 102.320312 C 65.914062 101.457031 66.183594 100.582031 66.535156 99.746094 C 69.769531 92.101562 72.945312 84.417969 76.304688 76.828125 C 77.578125 73.929688 79.296875 71.226562 80.878906 68.316406 C 83.132812 68.875 85.253906 69.757812 87.238281 70.964844 C 91.296875 73.289062 95.125 75.945312 98.722656 78.9375 C 99.558594 79.707031 100.441406 80.425781 101.351562 81.105469 C 106.621094 84.789062 111.003906 89.414062 115.175781 94.242188 C 116.75 96.042969 118.207031 97.933594 119.570312 99.902344 C 122.535156 104.21875 125.453125 108.5625 128.253906 112.988281 C 130.066406 115.863281 131.660156 118.898438 133.320312 121.871094 C 134.488281 123.960938 135.613281 126.0625 136.734375 128.171875 C 137.605469 129.640625 138.382812 131.15625 139.046875 132.730469 C 139.34375 133.574219 139.8125 134.3125 140.4375 134.957031 C 141.0625 135.589844 141.789062 136.070312 142.625 136.394531 C 143.460938 136.710938 144.324219 136.847656 145.214844 136.789062 C 146.105469 136.730469 146.941406 136.492188 147.730469 136.070312 C 149.734375 135.003906 151.882812 134.21875 153.945312 133.257812 C 160.929688 130.128906 168.183594 127.855469 175.703125 126.445312 C 175.925781 126.4375 176.15625 126.4375 176.375 126.476562 Z M 176.375 126.476562 " fill-opacity="1" fill-rule="nonzero"/><path fill="#cfa77c" d="M 43.070312 325.996094 C 43.960938 325.144531 44.796875 324.242188 45.582031 323.292969 C 46.746094 321.757812 47.820312 320.164062 48.808594 318.515625 C 49.179688 317.792969 49.355469 317.035156 49.316406 316.230469 C 49.304688 315.730469 49.179688 315.269531 48.953125 314.839844 C 48.710938 314.40625 48.394531 314.050781 47.980469 313.773438 C 47.578125 313.496094 47.128906 313.332031 46.640625 313.277344 C 46.148438 313.21875 45.671875 313.277344 45.210938 313.457031 C 44.066406 313.957031 43.023438 314.628906 42.089844 315.453125 C 41.140625 316.25 40.382812 317.285156 39.511719 318.179688 C 37.152344 320.75 34.28125 322.523438 30.925781 323.484375 C 29.675781 323.78125 28.410156 323.886719 27.136719 323.820312 C 25.859375 323.75 24.621094 323.503906 23.414062 323.082031 C 22.203125 322.648438 21.082031 322.0625 20.035156 321.324219 C 19 320.578125 18.078125 319.703125 17.292969 318.695312 C 14.070312 314.550781 13.636719 309.996094 14.808594 305.121094 C 15.09375 303.789062 15.527344 302.492188 16.09375 301.246094 C 19.660156 293.953125 24.929688 288.371094 32.402344 284.984375 C 37.449219 282.804688 42.707031 281.445312 48.164062 280.867188 C 51.667969 280.367188 55.175781 280.273438 58.699219 280.589844 C 61.875 280.984375 64.914062 281.847656 67.832031 283.179688 C 69.386719 283.859375 70.902344 284.636719 72.636719 285.472656 C 76.109375 295.199219 82.882812 302.867188 90.070312 310.273438 C 89.6875 312.007812 88.910156 313.535156 87.738281 314.878906 C 83.851562 319.605469 79.046875 322.832031 72.886719 323.769531 C 71.3125 324.011719 69.710938 324.242188 68.320312 323.003906 C 68.90625 321.390625 69.5 319.800781 70.078125 318.195312 C 70.585938 316.84375 70.519531 315.511719 69.867188 314.214844 C 69.691406 313.8125 69.453125 313.46875 69.136719 313.171875 C 68.820312 312.871094 68.457031 312.652344 68.042969 312.519531 C 67.628906 312.375 67.207031 312.324219 66.777344 312.375 C 66.34375 312.421875 65.941406 312.554688 65.566406 312.777344 C 64.597656 313.371094 63.792969 314.140625 63.148438 315.078125 C 62.585938 316.066406 62.074219 317.074219 61.632812 318.121094 C 59.234375 322.464844 55.945312 325.765625 50.976562 327.023438 C 48.375 327.683594 45.84375 327.800781 43.070312 325.996094 Z M 43.070312 325.996094 " fill-opacity="1" fill-rule="nonzero"/><path fill="#cfa77c" d="M 315.320312 320.441406 C 314.726562 320.519531 314.121094 320.507812 313.519531 320.421875 C 310.488281 319.453125 307.472656 318.445312 304.472656 317.402344 C 302.582031 316.757812 300.902344 315.761719 299.425781 314.417969 C 297.949219 313.074219 296.785156 311.5 295.960938 309.6875 C 296.269531 309.140625 296.613281 308.613281 296.980469 308.105469 C 302.023438 302.003906 305.988281 295.257812 308.863281 287.878906 C 309.613281 285.953125 310.640625 284.523438 312.558594 283.707031 C 313.691406 283.171875 314.785156 282.566406 315.839844 281.886719 C 319.640625 279.628906 323.746094 278.429688 328.160156 278.277344 C 332.351562 278.066406 336.570312 278.125 340.773438 278.179688 C 344.007812 278.21875 346.972656 279.515625 350.003906 280.484375 C 355.847656 282.355469 359.65625 286.699219 363.289062 291.277344 C 364.230469 293.714844 365.210938 296.132812 366.109375 298.585938 C 366.265625 299.144531 366.292969 299.710938 366.179688 300.277344 C 365.851562 302.636719 365.457031 304.996094 365.09375 307.355469 C 364.605469 310.558594 362.589844 312.640625 359.960938 314.226562 C 358.839844 314.964844 357.640625 315.144531 356.355469 314.773438 C 352.726562 313.667969 349.199219 312.449219 346.941406 309.054688 C 346.40625 308.316406 345.773438 307.671875 345.035156 307.125 C 344.101562 306.367188 343.027344 306.0625 341.839844 306.195312 C 341.0625 306.234375 340.410156 306.53125 339.863281 307.085938 C 339.324219 307.644531 339.046875 308.316406 339.039062 309.09375 C 338.980469 310.378906 339.296875 311.566406 339.957031 312.671875 C 340.457031 313.5625 341.023438 314.417969 341.609375 315.375 C 341.367188 315.886719 341.050781 316.34375 340.679688 316.757812 C 336.484375 320.136719 331.898438 321.382812 326.699219 319.261719 C 325.105469 318.570312 323.746094 317.574219 322.601562 316.269531 C 321.757812 315.347656 320.964844 314.371094 320.042969 313.523438 C 318.421875 312.058594 316.394531 311.828125 315.0625 312.824219 C 313.699219 313.851562 313.238281 315.855469 313.988281 317.804688 C 314.3125 318.636719 314.804688 319.414062 315.320312 320.441406 Z M 315.320312 320.441406 " fill-opacity="1" fill-rule="nonzero"/><path fill="#cea77c" d="M 272.640625 159.210938 C 271.527344 159.363281 270.625 159 269.925781 158.117188 C 267.09375 155.035156 263.984375 152.214844 261.269531 148.992188 C 258.777344 146.199219 256.089844 143.609375 253.210938 141.222656 C 250.757812 139.054688 248.128906 137.085938 245.554688 135.035156 C 244.5 134.1875 243.398438 133.402344 242.34375 132.539062 C 241.746094 132.058594 241.210938 131.492188 240.644531 130.964844 C 242.429688 129.976562 243.578125 128.507812 244.105469 126.542969 C 247.523438 115.828125 252.933594 106.117188 259.074219 96.753906 C 263.199219 90.460938 267.4375 84.292969 272.535156 78.726562 C 274.316406 76.65625 275.976562 74.488281 277.511719 72.234375 C 280.660156 67.894531 284.035156 63.75 287.664062 59.808594 C 288.054688 59.328125 288.410156 58.832031 288.746094 58.300781 C 290.148438 59.464844 291.289062 60.84375 292.144531 62.445312 C 291.578125 62.550781 291.089844 62.820312 290.683594 63.253906 C 290.292969 63.675781 290.050781 64.183594 289.984375 64.757812 C 289.160156 70.207031 287.136719 75.320312 285.695312 80.589844 C 284.773438 81.597656 283.335938 81.386719 282.269531 82.054688 C 280.523438 82.796875 279.230469 84.023438 278.386719 85.730469 C 274.144531 93.597656 271.054688 101.894531 269.117188 110.617188 C 267.191406 119.347656 266.480469 128.171875 267 137.105469 C 267.351562 143.332031 269.53125 149.347656 272.042969 155.132812 C 272.601562 156.40625 273.800781 157.65625 272.640625 159.210938 Z M 272.640625 159.210938 " fill-opacity="1" fill-rule="nonzero"/><path fill="#f7b0aa" d="M 192.980469 328.5 C 194.710938 326.871094 196.351562 325.304688 198.007812 323.769531 C 198.152344 323.636719 198.421875 323.628906 198.699219 323.539062 C 199.246094 325.34375 199.734375 327.1875 200.371094 328.960938 C 200.800781 330.132812 201.347656 331.253906 202 332.320312 C 202.269531 332.742188 202.664062 332.933594 203.171875 332.894531 C 203.679688 332.847656 204.023438 332.585938 204.226562 332.117188 C 204.648438 331.070312 205.003906 329.996094 205.273438 328.894531 C 205.839844 326.679688 206.019531 324.414062 205.820312 322.128906 C 205.761719 321.265625 205.808594 320.382812 205.808594 319.289062 C 207.613281 319.867188 208.9375 320.941406 210.453125 321.582031 C 211.25 325.390625 211.96875 329.078125 211.863281 332.835938 C 211.851562 335.9375 210.808594 338.632812 208.726562 340.914062 C 208.207031 341.539062 207.59375 342.039062 206.882812 342.410156 C 206.171875 342.785156 205.414062 343.015625 204.609375 343.09375 C 203.8125 343.167969 203.027344 343.09375 202.25 342.851562 C 201.480469 342.621094 200.78125 342.25 200.160156 341.738281 C 198.644531 340.675781 197.453125 339.3125 196.597656 337.664062 C 195.199219 334.6875 194 331.636719 192.980469 328.5 Z M 192.980469 328.5 " fill-opacity="1" fill-rule="nonzero"/><path fill="#040302" d="M 272.640625 159.210938 C 272.464844 158.566406 272.246094 157.933594 271.996094 157.308594 C 269.445312 151.945312 267.878906 146.265625 266.539062 140.5 C 265.816406 137.269531 265.53125 133.996094 265.683594 130.695312 C 265.886719 124.316406 266.691406 118.023438 268.121094 111.796875 C 268.820312 108.824219 269.511719 105.828125 270.25 102.855469 C 271.917969 96.1875 275.171875 90.183594 278.269531 84.121094 C 279.132812 82.429688 280.59375 81.722656 282.28125 81.28125 C 285.273438 81.421875 286.367188 82.421875 286.609375 85.539062 C 286.875 89.078125 286.175781 92.582031 285.695312 96.054688 C 284.640625 103.824219 283.777344 111.632812 283.441406 119.453125 C 283 129.554688 285.570312 139.300781 288.277344 148.945312 C 289.820312 154.421875 291.25 159.917969 292.421875 165.484375 C 293.027344 167.738281 292.96875 169.984375 292.230469 172.199219 C 290.511719 175.15625 288.449219 175.914062 285.199219 174.636719 C 282.800781 173.761719 280.8125 172.324219 279.25 170.308594 C 277.226562 167.59375 275.199219 164.878906 274.050781 161.636719 C 273.78125 161.023438 273.464844 160.417969 273.109375 159.84375 C 273.109375 159.566406 272.976562 159.390625 272.695312 159.324219 Z M 272.640625 159.210938 " fill-opacity="1" fill-rule="nonzero"/><path fill="#040302" d="M 253.046875 242.570312 C 244.183594 242.3125 235.367188 235.460938 235.550781 224.457031 C 235.578125 223.285156 235.710938 222.136719 235.972656 220.984375 C 236.222656 219.84375 236.578125 218.738281 237.046875 217.664062 C 237.527344 216.597656 238.09375 215.582031 238.761719 214.621094 C 239.433594 213.664062 240.191406 212.78125 241.039062 211.976562 C 241.882812 211.160156 242.792969 210.441406 243.78125 209.816406 C 244.769531 209.191406 245.804688 208.664062 246.898438 208.242188 C 247.984375 207.820312 249.105469 207.503906 250.257812 207.3125 C 251.410156 207.109375 252.570312 207.023438 253.738281 207.054688 C 262.625 207.226562 271.179688 214.199219 271.035156 224.957031 C 270.882812 236.101562 261.902344 242.628906 253.046875 242.570312 Z M 253.046875 242.570312 " fill-opacity="1" fill-rule="nonzero"/><path fill="#fbb4ad" d="M 292.230469 172.199219 C 292.132812 168.785156 291.625 165.417969 290.714844 162.117188 C 289.417969 157.300781 288.046875 152.492188 286.808594 147.660156 C 285.042969 140.722656 283.328125 133.777344 282.675781 126.628906 C 282.394531 123.914062 282.347656 121.191406 282.539062 118.464844 C 283.125 111.097656 283.894531 103.757812 284.632812 96.410156 C 284.949219 93.359375 285.378906 90.316406 285.753906 87.277344 C 286.195312 83.648438 285.746094 82.863281 282.28125 81.28125 C 283.242188 80.167969 284.546875 80.769531 285.695312 80.589844 C 289.464844 84.734375 291.527344 89.691406 292.691406 95.105469 C 293.976562 101.0625 295.367188 107 296.519531 112.988281 C 297.035156 115.632812 296.949219 118.398438 297.351562 121.066406 C 298.675781 129.777344 297.726562 138.523438 297.964844 147.253906 C 298.003906 148.589844 297.46875 149.933594 297.429688 151.265625 C 297.363281 153.65625 296.960938 155.984375 296.699219 158.347656 C 296.308594 161.839844 295.578125 165.261719 294.511719 168.601562 C 294.082031 169.945312 293.785156 171.519531 292.230469 172.199219 Z M 292.230469 172.199219 " fill-opacity="1" fill-rule="nonzero"/><path fill="#cea77c" d="M 272.695312 159.324219 C 272.839844 159.496094 272.976562 159.671875 273.109375 159.851562 C 272.976562 159.671875 272.839844 159.496094 272.695312 159.324219 Z M 272.695312 159.324219 " fill-opacity="1" fill-rule="nonzero"/><path fill="#040303" d="M 89.121094 96.417969 C 89.214844 96.351562 89.292969 96.273438 89.371094 96.1875 C 91.5 93.050781 93.445312 92.636719 96.421875 94.71875 C 98.550781 96.285156 100.363281 98.15625 101.871094 100.332031 C 106.015625 105.984375 109.210938 112.085938 110.8125 118.972656 C 111.609375 122.40625 112.644531 125.785156 113.59375 129.179688 C 114.910156 133.804688 115.695312 138.507812 115.964844 143.304688 C 116.367188 149.261719 115.136719 154.863281 112.28125 160.101562 C 108.632812 166.605469 103.394531 171.585938 97.148438 175.546875 C 95.796875 176.460938 94.3125 176.976562 92.6875 177.113281 C 90.800781 177.246094 89.0625 177.042969 87.652344 175.632812 C 85.933594 174.800781 86.097656 173.3125 86.386719 171.824219 C 86.636719 170.691406 87.132812 169.675781 87.882812 168.792969 C 94.175781 161.136719 95.28125 151.976562 95.566406 142.554688 C 96 128.210938 94.089844 114.273438 88.859375 100.839844 C 88.296875 99.382812 87.660156 97.808594 89.121094 96.417969 Z M 89.121094 96.417969 " fill-opacity="1" fill-rule="nonzero"/><path fill="#fcb4ad" d="M 89.121094 96.417969 C 88.929688 98.296875 89.550781 99.996094 90.183594 101.714844 C 91.683594 105.761719 93.265625 109.78125 94.082031 114.050781 C 96.09375 124.574219 97.429688 135.15625 96.601562 145.914062 C 96.179688 151.027344 95.210938 156.042969 93.714844 160.945312 C 93.167969 162.828125 92.296875 164.542969 91.097656 166.089844 C 90.195312 167.257812 89.320312 168.449219 88.410156 169.609375 C 86.960938 171.46875 86.492188 173.445312 87.652344 175.632812 C 87.257812 175.757812 86.65625 176.09375 86.519531 175.960938 C 85.582031 175.144531 84.773438 174.214844 84.09375 173.179688 C 81.808594 169.207031 80.5625 164.8125 79.507812 160.398438 C 78.632812 156.78125 78.136719 153.070312 77.511719 149.394531 C 77.414062 148.609375 77.386719 147.8125 77.414062 147.015625 C 77.398438 143.035156 77.464844 139.042969 77.367188 135.0625 C 77.378906 131.542969 77.769531 128.066406 78.539062 124.625 C 79.160156 121.410156 79.515625 118.136719 80.1875 114.925781 C 81.128906 110.378906 82.039062 105.78125 84.3125 101.667969 C 85.4375 99.824219 86.65625 98.070312 87.996094 96.378906 C 88.316406 95.9375 88.753906 95.996094 89.121094 96.417969 Z M 89.121094 96.417969 " fill-opacity="1" fill-rule="nonzero"/><path fill="#030202" d="M 123.6875 228.601562 C 123.675781 227.460938 123.78125 226.328125 123.992188 225.203125 C 124.214844 224.082031 124.53125 223 124.960938 221.941406 C 125.382812 220.886719 125.914062 219.878906 126.535156 218.929688 C 127.167969 217.972656 127.878906 217.089844 128.675781 216.28125 C 129.480469 215.46875 130.355469 214.746094 131.292969 214.105469 C 132.234375 213.460938 133.230469 212.925781 134.289062 212.484375 C 135.332031 212.042969 136.417969 211.707031 137.53125 211.476562 C 138.644531 211.246094 139.773438 211.132812 140.917969 211.132812 C 148.929688 210.976562 158.472656 217.144531 158.453125 228.660156 C 158.445312 229.800781 158.328125 230.933594 158.097656 232.046875 C 157.871094 233.15625 157.535156 234.242188 157.09375 235.296875 C 156.652344 236.34375 156.113281 237.339844 155.480469 238.289062 C 154.835938 239.230469 154.117188 240.105469 153.3125 240.910156 C 152.507812 241.714844 151.625 242.425781 150.675781 243.058594 C 149.722656 243.691406 148.726562 244.21875 147.671875 244.652344 C 146.625 245.09375 145.542969 245.417969 144.417969 245.628906 C 143.304688 245.851562 142.171875 245.964844 141.042969 245.957031 C 139.898438 245.957031 138.777344 245.851562 137.65625 245.621094 C 136.542969 245.398438 135.457031 245.0625 134.414062 244.632812 C 133.355469 244.191406 132.359375 243.664062 131.410156 243.03125 C 130.46875 242.398438 129.585938 241.675781 128.78125 240.871094 C 127.984375 240.066406 127.265625 239.183594 126.632812 238.234375 C 126 237.292969 125.460938 236.296875 125.019531 235.238281 C 124.589844 234.183594 124.253906 233.101562 124.03125 231.988281 C 123.8125 230.863281 123.695312 229.742188 123.6875 228.601562 Z M 123.6875 228.601562 " fill-opacity="1" fill-rule="nonzero"/><g clip-path="url(#37e740ce68)"><g clip-path="url(#d6be2265db)"><path fill="#000000" d="M 228.355469 233.90625 L 306.996094 233.90625 L 306.996094 272.769531 L 228.355469 272.769531 Z M 228.355469 233.90625 " fill-opacity="1" fill-rule="nonzero"/></g></g><g clip-path="url(#ac7afbd73f)"><g clip-path="url(#e965f18cc5)"><path fill="#000000" d="M 234.246094 268.90625 L 293.890625 268.90625 L 293.890625 287.324219 L 234.246094 287.324219 Z M 234.246094 268.90625 " fill-opacity="1" fill-rule="nonzero"/></g></g><g clip-path="url(#5f4c29d7ae)"><g clip-path="url(#3a5fadf2d9)"><path fill="#000000" d="M 232.585938 284.925781 L 297.773438 284.925781 L 297.773438 340.378906 L 232.585938 340.378906 Z M 232.585938 284.925781 " fill-opacity="1" fill-rule="nonzero"/></g></g><g clip-path="url(#b041c32c3e)"><g clip-path="url(#39edd0727a)"><path fill="#000000" d="M 85.78125 250.484375 L 168.527344 250.484375 L 168.527344 273.144531 L 85.78125 273.144531 Z M 85.78125 250.484375 " fill-opacity="1" fill-rule="nonzero"/></g></g><g clip-path="url(#b243778670)"><g clip-path="url(#87139297b5)"><path fill="#000000" d="M 106.042969 270.929688 L 161.476562 270.929688 L 161.476562 293.03125 L 106.042969 293.03125 Z M 106.042969 270.929688 " fill-opacity="1" fill-rule="nonzero"/></g></g><g clip-path="url(#d0f76bb879)"><g clip-path="url(#95445d416a)"><path fill="#000000" d="M 118.9375 291.191406 L 170.859375 291.191406 L 170.859375 323.609375 L 118.9375 323.609375 Z M 118.9375 291.191406 " fill-opacity="1" fill-rule="nonzero"/></g></g></svg>