<svg xmlns="http://www.w3.org/2000/svg" xmlns:xlink="http://www.w3.org/1999/xlink" width="500" zoomAndPan="magnify" viewBox="0 0 375 374.999991" height="500" preserveAspectRatio="xMidYMid meet" version="1.0"><defs><g/><clipPath id="2cfd8a9623"><path d="M 112.5 84.316406 L 262.5 84.316406 L 262.5 207 L 112.5 207 Z M 112.5 84.316406 " clip-rule="nonzero"/></clipPath><clipPath id="10935f27f5"><path d="M 206.066406 161.90625 L 232.152344 161.90625 L 232.152344 171.796875 L 206.066406 171.796875 Z M 206.066406 161.90625 " clip-rule="nonzero"/></clipPath><clipPath id="e7adea4ff3"><path d="M 206.625 170.324219 C 231.675781 162 232.050781 162.226562 232.125 162.449219 C 232.125 162.675781 231.226562 163.425781 231.074219 163.351562 C 230.925781 163.273438 230.851562 162.148438 231.074219 162 C 231.226562 161.851562 231.976562 162.148438 232.050781 162.375 C 232.199219 162.601562 232.050781 163.050781 231.601562 163.425781 C 229.648438 165.226562 209.699219 172.125 207.074219 171.75 C 206.476562 171.75 206.175781 171.449219 206.101562 171.148438 C 206.101562 170.925781 206.625 170.324219 206.625 170.324219 " clip-rule="nonzero"/></clipPath><clipPath id="ddc61d7b88"><path d="M 208.488281 176.238281 L 226.738281 176.238281 L 226.738281 178.375 L 208.488281 178.375 Z M 208.488281 176.238281 " clip-rule="nonzero"/></clipPath><clipPath id="6252745d83"><path d="M 209.25 176.25 C 226.5 176.476562 226.800781 176.773438 226.726562 177 C 226.726562 177.300781 226.125 177.824219 225.898438 177.75 C 225.675781 177.675781 225.375 176.550781 225.523438 176.476562 C 225.601562 176.324219 226.726562 176.699219 226.726562 176.925781 C 226.800781 177.148438 226.5 177.523438 225.976562 177.75 C 224.101562 178.574219 211.125 178.574219 209.25 177.75 C 208.726562 177.523438 208.5 177.148438 208.5 176.925781 C 208.5 176.625 209.25 176.25 209.25 176.25 " clip-rule="nonzero"/></clipPath><clipPath id="a9b69b2f1d"><path d="M 207.734375 182.773438 L 228.457031 182.773438 L 228.457031 199.351562 L 207.734375 199.351562 Z M 207.734375 182.773438 " clip-rule="nonzero"/></clipPath><clipPath id="32d874e52c"><path d="M 208.949219 182.773438 C 228.449219 198.601562 228.300781 199.199219 228.074219 199.273438 C 227.925781 199.425781 227.023438 198.976562 227.023438 198.75 C 226.949219 198.523438 227.699219 197.851562 227.925781 197.925781 C 228.148438 198 228.449219 198.898438 228.375 199.050781 C 228.226562 199.273438 227.773438 199.351562 227.25 199.199219 C 224.773438 198.523438 209.398438 186.148438 208.050781 183.976562 C 207.75 183.523438 207.675781 183.226562 207.824219 183 C 207.976562 182.773438 208.949219 182.773438 208.949219 182.773438 " clip-rule="nonzero"/></clipPath><clipPath id="50bf27ec56"><path d="M 148.039062 168.417969 L 175.75 168.417969 L 175.75 171.910156 L 148.039062 171.910156 Z M 148.039062 168.417969 " clip-rule="nonzero"/></clipPath><clipPath id="175272a4c1"><path d="M 174.976562 171.898438 C 148.273438 169.875 148.050781 169.351562 148.125 169.125 C 148.273438 168.898438 149.25 168.824219 149.398438 168.976562 C 149.550781 169.125 149.324219 170.101562 149.101562 170.175781 C 148.875 170.25 148.125 169.726562 148.050781 169.425781 C 148.050781 169.199219 148.351562 168.898438 148.875 168.75 C 151.5 167.851562 172.949219 169.125 175.125 170.398438 C 175.574219 170.699219 175.726562 171 175.726562 171.226562 C 175.726562 171.449219 174.976562 171.898438 174.976562 171.898438 " clip-rule="nonzero"/></clipPath><clipPath id="e37f109dfe"><path d="M 156.289062 176.851562 L 172.8125 176.851562 L 172.8125 180.121094 L 156.289062 180.121094 Z M 156.289062 176.851562 " clip-rule="nonzero"/></clipPath><clipPath id="081a7e6c4d"><path d="M 172.050781 178.574219 C 161.101562 179.023438 158.25 180.300781 157.199219 180.074219 C 156.75 179.925781 156.300781 179.625 156.300781 179.398438 C 156.300781 179.175781 157.351562 178.574219 157.5 178.726562 C 157.648438 178.800781 157.5 179.925781 157.273438 180 C 157.050781 180.148438 156.523438 179.925781 156.449219 179.699219 C 156.300781 179.476562 156.375 178.949219 156.675781 178.648438 C 157.5 177.898438 160.875 177.523438 163.199219 177.300781 C 165.976562 177 170.773438 176.625 172.050781 177.074219 C 172.5 177.226562 172.800781 177.523438 172.800781 177.75 C 172.800781 177.976562 172.050781 178.574219 172.050781 178.574219 " clip-rule="nonzero"/></clipPath><clipPath id="9c462c2796"><path d="M 161.488281 185.265625 L 176.75 185.265625 L 176.75 192.535156 L 161.488281 192.535156 Z M 161.488281 185.265625 " clip-rule="nonzero"/></clipPath><clipPath id="e01ddb54d6"><path d="M 176.101562 186.824219 C 165.226562 190.199219 163.5 192.375 162.601562 192.449219 C 162.148438 192.523438 161.625 192.226562 161.550781 192 C 161.476562 191.773438 161.851562 191.101562 162.074219 191.023438 C 162.375 190.949219 162.976562 191.324219 163.050781 191.625 C 163.050781 191.851562 162.601562 192.523438 162.375 192.523438 C 162.226562 192.449219 161.699219 191.625 161.773438 191.175781 C 162.074219 190.199219 164.550781 188.773438 166.5 187.875 C 168.976562 186.75 174.449219 185.023438 175.875 185.324219 C 176.324219 185.398438 176.699219 185.773438 176.699219 186.074219 C 176.773438 186.300781 176.101562 186.824219 176.101562 186.824219 " clip-rule="nonzero"/></clipPath></defs><g fill="#000000" fill-opacity="1"><g transform="translate(92.110666, 249.95953)"><g><path d="M 15.203125 0 C 14.160156 -0.0820312 13.273438 -0.414062 12.546875 -1 C 11.816406 -1.582031 11.203125 -2.300781 10.703125 -3.15625 C 10.203125 -4.007812 9.742188 -4.851562 9.328125 -5.6875 C 7.867188 -8.78125 6.40625 -11.910156 4.9375 -15.078125 C 3.476562 -18.253906 2.289062 -21.488281 1.375 -24.78125 C 1.164062 -25.53125 1.03125 -26.46875 0.96875 -27.59375 C 0.90625 -28.71875 0.957031 -29.84375 1.125 -30.96875 C 1.289062 -32.101562 1.601562 -33.054688 2.0625 -33.828125 C 2.519531 -34.597656 3.15625 -35.023438 3.96875 -35.109375 C 4.78125 -35.191406 5.816406 -34.710938 7.078125 -33.671875 C 8.078125 -32.835938 8.867188 -31.75 9.453125 -30.40625 C 10.035156 -29.070312 10.578125 -27.820312 11.078125 -26.65625 C 11.992188 -24.488281 12.859375 -22.316406 13.671875 -20.140625 C 14.484375 -17.972656 15.285156 -15.785156 16.078125 -13.578125 C 16.578125 -14.785156 16.941406 -15.710938 17.171875 -16.359375 C 17.398438 -17.003906 17.347656 -17.914062 17.015625 -19.09375 C 16.890625 -19.632812 16.710938 -20.175781 16.484375 -20.71875 C 16.253906 -21.257812 16.035156 -21.78125 15.828125 -22.28125 C 15.453125 -23.320312 15.109375 -24.375 14.796875 -25.4375 C 14.484375 -26.5 14.285156 -27.550781 14.203125 -28.59375 C 14.078125 -30.394531 14.316406 -31.773438 14.921875 -32.734375 C 15.523438 -33.691406 16.316406 -34.234375 17.296875 -34.359375 C 18.285156 -34.484375 19.3125 -34.203125 20.375 -33.515625 C 21.4375 -32.828125 22.34375 -31.726562 23.09375 -30.21875 C 23.675781 -31.3125 24.457031 -32.210938 25.4375 -32.921875 C 26.414062 -33.628906 27.425781 -34.078125 28.46875 -34.265625 C 29.507812 -34.453125 30.457031 -34.253906 31.3125 -33.671875 C 32.175781 -33.085938 32.796875 -32 33.171875 -30.40625 C 33.503906 -28.90625 33.441406 -27.4375 32.984375 -26 C 32.523438 -24.5625 31.9375 -23.15625 31.21875 -21.78125 C 30.507812 -20.40625 29.957031 -19.035156 29.5625 -17.671875 C 29.164062 -16.316406 29.21875 -14.953125 29.71875 -13.578125 C 30.007812 -14.285156 30.40625 -15.378906 30.90625 -16.859375 C 31.414062 -18.347656 32.003906 -20 32.671875 -21.8125 C 33.335938 -23.625 34.097656 -25.40625 34.953125 -27.15625 C 35.804688 -28.90625 36.734375 -30.4375 37.734375 -31.75 C 38.734375 -33.070312 39.804688 -33.960938 40.953125 -34.421875 C 42.097656 -34.878906 43.320312 -34.691406 44.625 -33.859375 C 45.832031 -33.066406 46.601562 -32.039062 46.9375 -30.78125 C 47.269531 -29.53125 47.289062 -28.132812 47 -26.59375 C 46.707031 -25.050781 46.21875 -23.46875 45.53125 -21.84375 C 44.84375 -20.21875 44.066406 -18.640625 43.203125 -17.109375 C 42.347656 -15.585938 41.523438 -14.203125 40.734375 -12.953125 C 39.941406 -11.703125 39.296875 -10.679688 38.796875 -9.890625 C 38.171875 -8.929688 37.460938 -7.757812 36.671875 -6.375 C 35.878906 -5 34.984375 -3.738281 33.984375 -2.59375 C 32.984375 -1.445312 31.875 -0.6875 30.65625 -0.3125 C 29.28125 0.101562 28.082031 0.03125 27.0625 -0.53125 C 26.039062 -1.09375 25.175781 -1.914062 24.46875 -3 C 23.757812 -4.082031 23.175781 -5.171875 22.71875 -6.265625 C 22.132812 -5.378906 21.488281 -4.4375 20.78125 -3.4375 C 20.070312 -2.4375 19.273438 -1.59375 18.390625 -0.90625 C 17.515625 -0.21875 16.453125 0.0820312 15.203125 0 Z M 15.203125 0 "/></g></g></g><g fill="#000000" fill-opacity="1"><g transform="translate(140.224268, 249.95953)"><g><path d="M 4.8125 -0.375 C 3.1875 -0.832031 2.101562 -1.613281 1.5625 -2.71875 C 1.019531 -3.820312 0.8125 -5.09375 0.9375 -6.53125 C 1.0625 -7.976562 1.320312 -9.421875 1.71875 -10.859375 C 2.113281 -12.296875 2.457031 -13.597656 2.75 -14.765625 C 3.5 -17.859375 4.332031 -20.9375 5.25 -24 C 6.175781 -27.0625 7.140625 -30.117188 8.140625 -33.171875 C 8.972656 -35.753906 10.179688 -37.847656 11.765625 -39.453125 C 13.347656 -41.054688 15.597656 -41.898438 18.515625 -41.984375 C 20.148438 -42.023438 21.488281 -41.640625 22.53125 -40.828125 C 23.570312 -40.015625 24.414062 -38.953125 25.0625 -37.640625 C 25.707031 -36.328125 26.257812 -34.941406 26.71875 -33.484375 C 27.175781 -32.023438 27.613281 -30.664062 28.03125 -29.40625 L 35.359375 -8.828125 C 35.859375 -7.453125 36.085938 -6.21875 36.046875 -5.125 C 36.003906 -4.039062 35.378906 -3 34.171875 -2 C 32.960938 -1.039062 31.789062 -0.601562 30.65625 -0.6875 C 29.53125 -0.769531 28.53125 -1.457031 27.65625 -2.75 C 27.238281 -3.375 26.894531 -4.164062 26.625 -5.125 C 26.351562 -6.09375 26.0625 -7.035156 25.75 -7.953125 C 25.4375 -8.867188 24.988281 -9.554688 24.40625 -10.015625 C 24.320312 -10.097656 23.8125 -10.179688 22.875 -10.265625 C 21.9375 -10.347656 20.847656 -10.421875 19.609375 -10.484375 C 18.378906 -10.546875 17.253906 -10.566406 16.234375 -10.546875 C 15.210938 -10.523438 14.578125 -10.410156 14.328125 -10.203125 C 13.742188 -9.703125 13.335938 -8.90625 13.109375 -7.8125 C 12.878906 -6.726562 12.671875 -5.613281 12.484375 -4.46875 C 12.296875 -3.320312 11.929688 -2.414062 11.390625 -1.75 C 10.640625 -0.832031 9.640625 -0.289062 8.390625 -0.125 C 7.140625 0.0390625 5.945312 -0.0390625 4.8125 -0.375 Z M 17.203125 -19.09375 C 17.785156 -19.175781 18.359375 -19.28125 18.921875 -19.40625 C 19.492188 -19.53125 20.050781 -19.632812 20.59375 -19.71875 C 20.300781 -20.550781 20.019531 -21.382812 19.75 -22.21875 C 19.476562 -23.050781 19.21875 -23.882812 18.96875 -24.71875 C 18.664062 -23.800781 18.367188 -22.875 18.078125 -21.9375 C 17.785156 -21 17.492188 -20.050781 17.203125 -19.09375 Z M 17.203125 -19.09375 "/></g></g></g><g fill="#000000" fill-opacity="1"><g transform="translate(177.263606, 249.95953)"><g><path d="M 6 -4.9375 C 4.082031 -6.90625 2.726562 -9.117188 1.9375 -11.578125 C 1.144531 -14.035156 0.832031 -16.597656 1 -19.265625 C 1.164062 -21.941406 1.726562 -24.53125 2.6875 -27.03125 C 3.644531 -29.53125 4.898438 -31.785156 6.453125 -33.796875 C 7.035156 -34.585938 7.835938 -35.503906 8.859375 -36.546875 C 9.878906 -37.585938 11.015625 -38.585938 12.265625 -39.546875 C 13.515625 -40.503906 14.816406 -41.285156 16.171875 -41.890625 C 17.523438 -42.492188 18.828125 -42.785156 20.078125 -42.765625 C 21.335938 -42.742188 22.488281 -42.234375 23.53125 -41.234375 C 24.695312 -40.109375 25.414062 -38.890625 25.6875 -37.578125 C 25.957031 -36.265625 25.789062 -35.078125 25.1875 -34.015625 C 24.582031 -32.953125 23.550781 -32.191406 22.09375 -31.734375 C 20.21875 -31.179688 18.472656 -30.300781 16.859375 -29.09375 C 15.253906 -27.882812 13.953125 -26.425781 12.953125 -24.71875 C 11.953125 -23.007812 11.390625 -21.113281 11.265625 -19.03125 C 11.222656 -17.4375 11.523438 -15.878906 12.171875 -14.359375 C 12.816406 -12.835938 13.867188 -11.703125 15.328125 -10.953125 C 15.867188 -10.703125 16.554688 -10.503906 17.390625 -10.359375 C 18.222656 -10.210938 19.046875 -10.203125 19.859375 -10.328125 C 20.679688 -10.453125 21.28125 -10.828125 21.65625 -11.453125 C 22.03125 -12.078125 22.144531 -12.535156 22 -12.828125 C 21.851562 -13.117188 21.570312 -13.335938 21.15625 -13.484375 C 20.738281 -13.628906 20.289062 -13.773438 19.8125 -13.921875 C 19.332031 -14.066406 18.941406 -14.304688 18.640625 -14.640625 C 17.972656 -15.347656 17.609375 -16.378906 17.546875 -17.734375 C 17.484375 -19.097656 17.660156 -20.21875 18.078125 -21.09375 C 18.628906 -22.21875 19.425781 -22.988281 20.46875 -23.40625 C 21.507812 -23.820312 22.644531 -23.96875 23.875 -23.84375 C 25.101562 -23.71875 26.3125 -23.375 27.5 -22.8125 C 28.6875 -22.25 29.71875 -21.539062 30.59375 -20.6875 C 31.476562 -19.832031 32.066406 -18.898438 32.359375 -17.890625 C 33.109375 -15.179688 33.242188 -12.742188 32.765625 -10.578125 C 32.285156 -8.410156 31.34375 -6.539062 29.9375 -4.96875 C 28.539062 -3.40625 26.851562 -2.195312 24.875 -1.34375 C 22.894531 -0.488281 20.785156 -0.03125 18.546875 0.03125 C 16.316406 0.09375 14.117188 -0.28125 11.953125 -1.09375 C 9.785156 -1.90625 7.800781 -3.1875 6 -4.9375 Z M 6 -4.9375 "/></g></g></g><g fill="#000000" fill-opacity="1"><g transform="translate(211.237187, 249.95953)"><g><path d="M 10.453125 -0.375 C 9.535156 -0.539062 8.507812 -0.738281 7.375 -0.96875 C 6.25 -1.195312 5.1875 -1.539062 4.1875 -2 C 3.1875 -2.457031 2.394531 -3.101562 1.8125 -3.9375 C 1.019531 -5.101562 0.726562 -6.164062 0.9375 -7.125 C 1.144531 -8.09375 1.695312 -8.867188 2.59375 -9.453125 C 3.488281 -10.035156 4.539062 -10.304688 5.75 -10.265625 C 6.507812 -10.265625 7.347656 -10.097656 8.265625 -9.765625 C 9.179688 -9.429688 10.109375 -9.117188 11.046875 -8.828125 C 11.984375 -8.535156 12.867188 -8.460938 13.703125 -8.609375 C 14.535156 -8.753906 15.242188 -9.328125 15.828125 -10.328125 C 16.492188 -11.410156 16.585938 -12.378906 16.109375 -13.234375 C 15.628906 -14.085938 14.921875 -14.816406 13.984375 -15.421875 C 13.046875 -16.023438 12.179688 -16.515625 11.390625 -16.890625 C 8.222656 -18.441406 5.894531 -20.5 4.40625 -23.0625 C 2.925781 -25.625 2.4375 -28.703125 2.9375 -32.296875 C 3.4375 -35.878906 4.875 -38.972656 7.25 -41.578125 C 9.632812 -44.191406 12.535156 -45.976562 15.953125 -46.9375 C 17.617188 -47.4375 19.441406 -47.707031 21.421875 -47.75 C 23.410156 -47.789062 25.175781 -47.332031 26.71875 -46.375 C 27.59375 -45.832031 28.257812 -45.085938 28.71875 -44.140625 C 29.175781 -43.203125 29.289062 -42.285156 29.0625 -41.390625 C 28.832031 -40.492188 28.070312 -39.835938 26.78125 -39.421875 C 25.445312 -39.003906 24.101562 -38.429688 22.75 -37.703125 C 21.394531 -36.972656 20.191406 -36.128906 19.140625 -35.171875 C 18.097656 -34.210938 17.347656 -33.15625 16.890625 -32 C 16.429688 -30.851562 16.390625 -29.65625 16.765625 -28.40625 C 17.140625 -27.15625 18.101562 -25.882812 19.65625 -24.59375 C 20.613281 -23.757812 21.59375 -23 22.59375 -22.3125 C 23.59375 -21.625 24.53125 -20.875 25.40625 -20.0625 C 26.28125 -19.25 26.988281 -18.210938 27.53125 -16.953125 C 28.238281 -15.410156 28.625 -13.734375 28.6875 -11.921875 C 28.75 -10.109375 28.445312 -8.410156 27.78125 -6.828125 C 27.070312 -5.109375 26.070312 -3.75 24.78125 -2.75 C 23.488281 -1.75 22.035156 -1.039062 20.421875 -0.625 C 18.816406 -0.207031 17.160156 0 15.453125 0 C 13.742188 0 12.078125 -0.125 10.453125 -0.375 Z M 10.453125 -0.375 "/></g></g></g><g fill="#000000" fill-opacity="1"><g transform="translate(241.331656, 249.95953)"><g/></g></g><g fill="#000000" fill-opacity="1"><g transform="translate(256.973268, 249.95953)"><g><path d="M 22.65625 -0.375 C 21.90625 0.125 21.09375 0.1875 20.21875 -0.1875 C 19.34375 -0.5625 18.503906 -1.09375 17.703125 -1.78125 C 16.910156 -2.46875 16.265625 -3.039062 15.765625 -3.5 C 15.347656 -3.914062 15.078125 -4.195312 14.953125 -4.34375 C 14.828125 -4.488281 14.703125 -4.539062 14.578125 -4.5 C 14.453125 -4.457031 14.160156 -4.351562 13.703125 -4.1875 C 13.078125 -3.976562 12.492188 -3.625 11.953125 -3.125 C 11.410156 -2.625 10.804688 -2.25 10.140625 -2 C 8.890625 -1.5 7.632812 -1.332031 6.375 -1.5 C 5.125 -1.664062 4.019531 -2.082031 3.0625 -2.75 C 2.101562 -3.414062 1.445312 -4.3125 1.09375 -5.4375 C 0.738281 -6.570312 0.851562 -7.867188 1.4375 -9.328125 C 1.726562 -9.992188 2.238281 -10.691406 2.96875 -11.421875 C 3.695312 -12.148438 4.394531 -12.859375 5.0625 -13.546875 C 5.726562 -14.234375 6.0625 -14.828125 6.0625 -15.328125 C 6.0625 -15.703125 5.84375 -16.210938 5.40625 -16.859375 C 4.96875 -17.503906 4.664062 -18.015625 4.5 -18.390625 C 4.289062 -19.066406 4.113281 -19.726562 3.96875 -20.375 C 3.820312 -21.019531 3.75 -21.675781 3.75 -22.34375 C 3.789062 -23.96875 4.238281 -25.46875 5.09375 -26.84375 C 5.957031 -28.21875 7.078125 -29.351562 8.453125 -30.25 C 9.828125 -31.15625 11.304688 -31.671875 12.890625 -31.796875 C 14.515625 -31.960938 15.859375 -31.664062 16.921875 -30.90625 C 17.984375 -30.15625 18.722656 -29.144531 19.140625 -27.875 C 19.566406 -26.601562 19.570312 -25.21875 19.15625 -23.71875 C 18.851562 -22.59375 18.398438 -21.519531 17.796875 -20.5 C 17.191406 -19.476562 16.535156 -18.523438 15.828125 -17.640625 C 15.410156 -17.179688 14.898438 -16.710938 14.296875 -16.234375 C 13.691406 -15.753906 13.242188 -15.242188 12.953125 -14.703125 C 11.910156 -14.242188 11.910156 -13.679688 12.953125 -13.015625 C 13.203125 -12.679688 13.441406 -12.347656 13.671875 -12.015625 C 13.898438 -11.679688 14.140625 -11.347656 14.390625 -11.015625 C 15.054688 -11.847656 15.742188 -12.816406 16.453125 -13.921875 C 17.160156 -15.023438 17.929688 -16.054688 18.765625 -17.015625 C 19.609375 -17.972656 20.550781 -18.644531 21.59375 -19.03125 C 22.382812 -19.320312 23.070312 -19.328125 23.65625 -19.046875 C 24.238281 -18.773438 24.644531 -18.335938 24.875 -17.734375 C 25.101562 -17.128906 25.050781 -16.472656 24.71875 -15.765625 C 24.21875 -14.722656 23.457031 -13.734375 22.4375 -12.796875 C 21.414062 -11.859375 20.488281 -10.972656 19.65625 -10.140625 L 18.015625 -8.390625 C 16.929688 -7.890625 16.890625 -7.390625 17.890625 -6.890625 C 18.222656 -6.335938 18.722656 -5.894531 19.390625 -5.5625 C 20.066406 -5.226562 20.65625 -4.9375 21.15625 -4.6875 C 21.695312 -4.394531 22.226562 -4.007812 22.75 -3.53125 C 23.269531 -3.050781 23.582031 -2.539062 23.6875 -2 C 23.789062 -1.457031 23.445312 -0.914062 22.65625 -0.375 Z M 10.015625 -17.578125 C 11.015625 -18.328125 12.097656 -19.222656 13.265625 -20.265625 C 14.429688 -21.316406 15.179688 -22.488281 15.515625 -23.78125 C 15.804688 -24.90625 15.648438 -25.875 15.046875 -26.6875 C 14.441406 -27.5 13.535156 -27.84375 12.328125 -27.71875 C 10.992188 -27.550781 10.035156 -27.09375 9.453125 -26.34375 C 8.867188 -25.59375 8.554688 -24.6875 8.515625 -23.625 C 8.472656 -22.5625 8.609375 -21.5 8.921875 -20.4375 C 9.234375 -19.375 9.597656 -18.421875 10.015625 -17.578125 Z M 7.578125 -8.078125 C 7.578125 -7.203125 7.835938 -6.765625 8.359375 -6.765625 C 8.878906 -6.765625 9.460938 -6.941406 10.109375 -7.296875 C 10.753906 -7.648438 11.242188 -7.953125 11.578125 -8.203125 C 11.160156 -8.703125 10.722656 -9.203125 10.265625 -9.703125 C 9.804688 -10.203125 9.367188 -10.722656 8.953125 -11.265625 C 8.535156 -10.847656 8.203125 -10.367188 7.953125 -9.828125 C 7.703125 -9.285156 7.578125 -8.703125 7.578125 -8.078125 Z M 7.578125 -8.078125 "/></g></g></g><g fill="#000000" fill-opacity="1"><g transform="translate(60.856761, 302.459527)"><g><path d="M 15.203125 0 C 14.160156 -0.0820312 13.273438 -0.414062 12.546875 -1 C 11.816406 -1.582031 11.203125 -2.300781 10.703125 -3.15625 C 10.203125 -4.007812 9.742188 -4.851562 9.328125 -5.6875 C 7.867188 -8.78125 6.40625 -11.910156 4.9375 -15.078125 C 3.476562 -18.253906 2.289062 -21.488281 1.375 -24.78125 C 1.164062 -25.53125 1.03125 -26.46875 0.96875 -27.59375 C 0.90625 -28.71875 0.957031 -29.84375 1.125 -30.96875 C 1.289062 -32.101562 1.601562 -33.054688 2.0625 -33.828125 C 2.519531 -34.597656 3.15625 -35.023438 3.96875 -35.109375 C 4.78125 -35.191406 5.816406 -34.710938 7.078125 -33.671875 C 8.078125 -32.835938 8.867188 -31.75 9.453125 -30.40625 C 10.035156 -29.070312 10.578125 -27.820312 11.078125 -26.65625 C 11.992188 -24.488281 12.859375 -22.316406 13.671875 -20.140625 C 14.484375 -17.972656 15.285156 -15.785156 16.078125 -13.578125 C 16.578125 -14.785156 16.941406 -15.710938 17.171875 -16.359375 C 17.398438 -17.003906 17.347656 -17.914062 17.015625 -19.09375 C 16.890625 -19.632812 16.710938 -20.175781 16.484375 -20.71875 C 16.253906 -21.257812 16.035156 -21.78125 15.828125 -22.28125 C 15.453125 -23.320312 15.109375 -24.375 14.796875 -25.4375 C 14.484375 -26.5 14.285156 -27.550781 14.203125 -28.59375 C 14.078125 -30.394531 14.316406 -31.773438 14.921875 -32.734375 C 15.523438 -33.691406 16.316406 -34.234375 17.296875 -34.359375 C 18.285156 -34.484375 19.3125 -34.203125 20.375 -33.515625 C 21.4375 -32.828125 22.34375 -31.726562 23.09375 -30.21875 C 23.675781 -31.3125 24.457031 -32.210938 25.4375 -32.921875 C 26.414062 -33.628906 27.425781 -34.078125 28.46875 -34.265625 C 29.507812 -34.453125 30.457031 -34.253906 31.3125 -33.671875 C 32.175781 -33.085938 32.796875 -32 33.171875 -30.40625 C 33.503906 -28.90625 33.441406 -27.4375 32.984375 -26 C 32.523438 -24.5625 31.9375 -23.15625 31.21875 -21.78125 C 30.507812 -20.40625 29.957031 -19.035156 29.5625 -17.671875 C 29.164062 -16.316406 29.21875 -14.953125 29.71875 -13.578125 C 30.007812 -14.285156 30.40625 -15.378906 30.90625 -16.859375 C 31.414062 -18.347656 32.003906 -20 32.671875 -21.8125 C 33.335938 -23.625 34.097656 -25.40625 34.953125 -27.15625 C 35.804688 -28.90625 36.734375 -30.4375 37.734375 -31.75 C 38.734375 -33.070312 39.804688 -33.960938 40.953125 -34.421875 C 42.097656 -34.878906 43.320312 -34.691406 44.625 -33.859375 C 45.832031 -33.066406 46.601562 -32.039062 46.9375 -30.78125 C 47.269531 -29.53125 47.289062 -28.132812 47 -26.59375 C 46.707031 -25.050781 46.21875 -23.46875 45.53125 -21.84375 C 44.84375 -20.21875 44.066406 -18.640625 43.203125 -17.109375 C 42.347656 -15.585938 41.523438 -14.203125 40.734375 -12.953125 C 39.941406 -11.703125 39.296875 -10.679688 38.796875 -9.890625 C 38.171875 -8.929688 37.460938 -7.757812 36.671875 -6.375 C 35.878906 -5 34.984375 -3.738281 33.984375 -2.59375 C 32.984375 -1.445312 31.875 -0.6875 30.65625 -0.3125 C 29.28125 0.101562 28.082031 0.03125 27.0625 -0.53125 C 26.039062 -1.09375 25.175781 -1.914062 24.46875 -3 C 23.757812 -4.082031 23.175781 -5.171875 22.71875 -6.265625 C 22.132812 -5.378906 21.488281 -4.4375 20.78125 -3.4375 C 20.070312 -2.4375 19.273438 -1.59375 18.390625 -0.90625 C 17.515625 -0.21875 16.453125 0.0820312 15.203125 0 Z M 15.203125 0 "/></g></g></g><g fill="#000000" fill-opacity="1"><g transform="translate(108.970364, 302.459527)"><g><path d="M 8.890625 -1.1875 C 7.847656 -0.1875 6.800781 0.195312 5.75 -0.03125 C 4.707031 -0.257812 3.8125 -0.832031 3.0625 -1.75 C 2.3125 -2.664062 1.832031 -3.664062 1.625 -4.75 C 1.207031 -6.84375 1.050781 -8.734375 1.15625 -10.421875 C 1.257812 -12.109375 1.289062 -14.015625 1.25 -16.140625 C 1.207031 -18.984375 1.144531 -21.8125 1.0625 -24.625 C 0.976562 -27.4375 0.9375 -30.242188 0.9375 -33.046875 C 0.9375 -34.171875 0.976562 -35.304688 1.0625 -36.453125 C 1.144531 -37.597656 1.4375 -38.628906 1.9375 -39.546875 C 2.4375 -40.460938 3.289062 -41.148438 4.5 -41.609375 C 6.175781 -42.234375 7.535156 -42.378906 8.578125 -42.046875 C 9.617188 -41.710938 10.398438 -41.066406 10.921875 -40.109375 C 11.441406 -39.148438 11.785156 -38.003906 11.953125 -36.671875 C 12.117188 -35.335938 12.179688 -33.945312 12.140625 -32.5 C 12.097656 -31.0625 12.003906 -29.707031 11.859375 -28.4375 C 11.710938 -27.164062 11.597656 -26.113281 11.515625 -25.28125 C 12.890625 -25.363281 14.253906 -25.375 15.609375 -25.3125 C 16.960938 -25.25 18.3125 -25.21875 19.65625 -25.21875 C 19.488281 -26.632812 19.273438 -28.125 19.015625 -29.6875 C 18.765625 -31.257812 18.617188 -32.828125 18.578125 -34.390625 C 18.535156 -35.953125 18.707031 -37.441406 19.09375 -38.859375 C 19.425781 -40.066406 20.070312 -41.171875 21.03125 -42.171875 C 21.988281 -43.171875 23.101562 -43.796875 24.375 -44.046875 C 25.644531 -44.304688 26.863281 -43.929688 28.03125 -42.921875 C 28.738281 -42.335938 29.238281 -41.253906 29.53125 -39.671875 C 29.820312 -38.085938 29.976562 -36.207031 30 -34.03125 C 30.019531 -31.863281 29.96875 -29.582031 29.84375 -27.1875 C 29.71875 -24.789062 29.539062 -22.460938 29.3125 -20.203125 C 29.082031 -17.953125 28.875 -15.972656 28.6875 -14.265625 C 28.5 -12.554688 28.363281 -11.304688 28.28125 -10.515625 C 28.238281 -9.929688 28.132812 -9.140625 27.96875 -8.140625 C 27.800781 -7.140625 27.550781 -6.132812 27.21875 -5.125 C 26.882812 -4.125 26.457031 -3.28125 25.9375 -2.59375 C 25.414062 -1.90625 24.800781 -1.570312 24.09375 -1.59375 C 23.382812 -1.613281 22.570312 -2.144531 21.65625 -3.1875 C 20.65625 -4.351562 20.070312 -5.757812 19.90625 -7.40625 C 19.738281 -9.0625 19.75 -10.742188 19.9375 -12.453125 C 20.125 -14.160156 20.238281 -15.679688 20.28125 -17.015625 C 19.613281 -16.929688 18.734375 -16.867188 17.640625 -16.828125 C 16.554688 -16.785156 15.492188 -16.703125 14.453125 -16.578125 C 13.410156 -16.453125 12.597656 -16.222656 12.015625 -15.890625 C 11.265625 -15.472656 10.910156 -14.847656 10.953125 -14.015625 C 10.992188 -13.179688 10.992188 -12.222656 10.953125 -11.140625 C 10.910156 -10.140625 10.890625 -9.007812 10.890625 -7.75 C 10.890625 -6.5 10.753906 -5.289062 10.484375 -4.125 C 10.210938 -2.957031 9.679688 -1.976562 8.890625 -1.1875 Z M 8.890625 -1.1875 "/></g></g></g><g fill="#000000" fill-opacity="1"><g transform="translate(140.253588, 302.459527)"><g><path d="M 1.125 -39.484375 C 0.789062 -40.734375 0.851562 -41.984375 1.3125 -43.234375 C 1.769531 -44.492188 2.488281 -45.613281 3.46875 -46.59375 C 4.445312 -47.570312 5.546875 -48.226562 6.765625 -48.5625 C 7.265625 -48.6875 7.910156 -48.71875 8.703125 -48.65625 C 9.492188 -48.59375 10.285156 -48.40625 11.078125 -48.09375 C 11.867188 -47.78125 12.484375 -47.351562 12.921875 -46.8125 C 13.359375 -46.269531 13.453125 -45.601562 13.203125 -44.8125 C 13.617188 -43.550781 13.554688 -42.285156 13.015625 -41.015625 C 12.472656 -39.742188 11.660156 -38.640625 10.578125 -37.703125 C 9.492188 -36.765625 8.3125 -36.128906 7.03125 -35.796875 C 5.757812 -35.460938 4.582031 -35.566406 3.5 -36.109375 C 2.414062 -36.648438 1.625 -37.773438 1.125 -39.484375 Z M 9.328125 -0.875 C 7.953125 0.0820312 6.613281 0.269531 5.3125 -0.3125 C 4.019531 -0.894531 3.039062 -1.875 2.375 -3.25 C 1.75 -4.582031 1.34375 -6.113281 1.15625 -7.84375 C 0.96875 -9.582031 0.90625 -11.390625 0.96875 -13.265625 C 1.03125 -15.140625 1.144531 -16.972656 1.3125 -18.765625 C 1.476562 -20.566406 1.625 -22.15625 1.75 -23.53125 C 1.832031 -24.40625 1.914062 -25.414062 2 -26.5625 C 2.082031 -27.707031 2.269531 -28.84375 2.5625 -29.96875 C 2.851562 -31.101562 3.3125 -32.003906 3.9375 -32.671875 C 4.851562 -33.628906 5.8125 -34.078125 6.8125 -34.015625 C 7.820312 -33.953125 8.773438 -33.578125 9.671875 -32.890625 C 10.566406 -32.203125 11.242188 -31.332031 11.703125 -30.28125 C 12.742188 -28.03125 13.335938 -25.515625 13.484375 -22.734375 C 13.628906 -19.960938 13.515625 -17.179688 13.140625 -14.390625 C 12.765625 -11.597656 12.347656 -9.035156 11.890625 -6.703125 C 11.679688 -5.648438 11.441406 -4.59375 11.171875 -3.53125 C 10.898438 -2.46875 10.285156 -1.582031 9.328125 -0.875 Z M 9.328125 -0.875 "/></g></g></g><g fill="#000000" fill-opacity="1"><g transform="translate(154.706433, 302.459527)"><g><path d="M 10.453125 -0.375 C 9.535156 -0.539062 8.507812 -0.738281 7.375 -0.96875 C 6.25 -1.195312 5.1875 -1.539062 4.1875 -2 C 3.1875 -2.457031 2.394531 -3.101562 1.8125 -3.9375 C 1.019531 -5.101562 0.726562 -6.164062 0.9375 -7.125 C 1.144531 -8.09375 1.695312 -8.867188 2.59375 -9.453125 C 3.488281 -10.035156 4.539062 -10.304688 5.75 -10.265625 C 6.507812 -10.265625 7.347656 -10.097656 8.265625 -9.765625 C 9.179688 -9.429688 10.109375 -9.117188 11.046875 -8.828125 C 11.984375 -8.535156 12.867188 -8.460938 13.703125 -8.609375 C 14.535156 -8.753906 15.242188 -9.328125 15.828125 -10.328125 C 16.492188 -11.410156 16.585938 -12.378906 16.109375 -13.234375 C 15.628906 -14.085938 14.921875 -14.816406 13.984375 -15.421875 C 13.046875 -16.023438 12.179688 -16.515625 11.390625 -16.890625 C 8.222656 -18.441406 5.894531 -20.5 4.40625 -23.0625 C 2.925781 -25.625 2.4375 -28.703125 2.9375 -32.296875 C 3.4375 -35.878906 4.875 -38.972656 7.25 -41.578125 C 9.632812 -44.191406 12.535156 -45.976562 15.953125 -46.9375 C 17.617188 -47.4375 19.441406 -47.707031 21.421875 -47.75 C 23.410156 -47.789062 25.175781 -47.332031 26.71875 -46.375 C 27.59375 -45.832031 28.257812 -45.085938 28.71875 -44.140625 C 29.175781 -43.203125 29.289062 -42.285156 29.0625 -41.390625 C 28.832031 -40.492188 28.070312 -39.835938 26.78125 -39.421875 C 25.445312 -39.003906 24.101562 -38.429688 22.75 -37.703125 C 21.394531 -36.972656 20.191406 -36.128906 19.140625 -35.171875 C 18.097656 -34.210938 17.347656 -33.15625 16.890625 -32 C 16.429688 -30.851562 16.390625 -29.65625 16.765625 -28.40625 C 17.140625 -27.15625 18.101562 -25.882812 19.65625 -24.59375 C 20.613281 -23.757812 21.59375 -23 22.59375 -22.3125 C 23.59375 -21.625 24.53125 -20.875 25.40625 -20.0625 C 26.28125 -19.25 26.988281 -18.210938 27.53125 -16.953125 C 28.238281 -15.410156 28.625 -13.734375 28.6875 -11.921875 C 28.75 -10.109375 28.445312 -8.410156 27.78125 -6.828125 C 27.070312 -5.109375 26.070312 -3.75 24.78125 -2.75 C 23.488281 -1.75 22.035156 -1.039062 20.421875 -0.625 C 18.816406 -0.207031 17.160156 0 15.453125 0 C 13.742188 0 12.078125 -0.125 10.453125 -0.375 Z M 10.453125 -0.375 "/></g></g></g><g fill="#000000" fill-opacity="1"><g transform="translate(184.800902, 302.459527)"><g><path d="M 26.28125 -1.6875 C 24.78125 -0.476562 23.382812 0.09375 22.09375 0.03125 C 20.800781 -0.03125 19.617188 -0.519531 18.546875 -1.4375 C 17.484375 -2.351562 16.515625 -3.539062 15.640625 -5 C 14.765625 -6.46875 13.984375 -8.023438 13.296875 -9.671875 C 12.609375 -11.316406 11.992188 -12.867188 11.453125 -14.328125 C 10.910156 -15.785156 10.429688 -16.972656 10.015625 -17.890625 C 9.847656 -17.765625 9.765625 -17.296875 9.765625 -16.484375 C 9.765625 -15.671875 9.816406 -14.710938 9.921875 -13.609375 C 10.023438 -12.503906 10.117188 -11.472656 10.203125 -10.515625 C 10.285156 -9.554688 10.304688 -8.867188 10.265625 -8.453125 C 10.179688 -7.660156 10.003906 -6.769531 9.734375 -5.78125 C 9.460938 -4.800781 9.054688 -3.9375 8.515625 -3.1875 C 7.972656 -2.4375 7.222656 -1.957031 6.265625 -1.75 C 5.003906 -1.5 4 -1.664062 3.25 -2.25 C 2.5 -2.832031 1.957031 -3.6875 1.625 -4.8125 C 1.289062 -5.945312 1.082031 -7.222656 1 -8.640625 C 0.914062 -10.054688 0.914062 -11.484375 1 -12.921875 C 1.082031 -14.359375 1.175781 -15.671875 1.28125 -16.859375 C 1.382812 -18.046875 1.4375 -18.957031 1.4375 -19.59375 C 1.476562 -21.675781 1.507812 -23.757812 1.53125 -25.84375 C 1.550781 -27.925781 1.539062 -29.992188 1.5 -32.046875 C 1.5 -33.046875 1.539062 -34.148438 1.625 -35.359375 C 1.707031 -36.566406 1.988281 -37.679688 2.46875 -38.703125 C 2.945312 -39.722656 3.789062 -40.398438 5 -40.734375 C 6.425781 -41.148438 7.554688 -41.128906 8.390625 -40.671875 C 9.222656 -40.210938 9.847656 -39.484375 10.265625 -38.484375 C 10.679688 -37.484375 10.929688 -36.316406 11.015625 -34.984375 C 11.097656 -33.648438 11.078125 -32.300781 10.953125 -30.9375 C 10.828125 -29.582031 10.660156 -28.34375 10.453125 -27.21875 C 10.242188 -26.09375 10.054688 -25.238281 9.890625 -24.65625 C 10.222656 -24.988281 10.859375 -25.632812 11.796875 -26.59375 C 12.734375 -27.550781 13.878906 -28.632812 15.234375 -29.84375 C 16.585938 -31.0625 18.015625 -32.253906 19.515625 -33.421875 C 21.023438 -34.585938 22.5 -35.554688 23.9375 -36.328125 C 25.375 -37.097656 26.65625 -37.523438 27.78125 -37.609375 C 28.90625 -37.691406 29.757812 -37.234375 30.34375 -36.234375 C 31.101562 -35.023438 31.257812 -33.832031 30.8125 -32.65625 C 30.375 -31.488281 29.582031 -30.375 28.4375 -29.3125 C 27.289062 -28.25 26.007812 -27.257812 24.59375 -26.34375 C 23.175781 -25.425781 21.828125 -24.632812 20.546875 -23.96875 C 19.273438 -23.300781 18.285156 -22.757812 17.578125 -22.34375 C 18.503906 -21.800781 19.582031 -20.898438 20.8125 -19.640625 C 22.039062 -18.390625 23.21875 -16.941406 24.34375 -15.296875 C 25.46875 -13.648438 26.382812 -11.960938 27.09375 -10.234375 C 27.800781 -8.503906 28.132812 -6.882812 28.09375 -5.375 C 28.050781 -3.875 27.445312 -2.644531 26.28125 -1.6875 Z M 26.28125 -1.6875 "/></g></g></g><g fill="#000000" fill-opacity="1"><g transform="translate(216.709798, 302.459527)"><g><path d="M 10.390625 -0.125 C 9.554688 -0.125 8.660156 -0.09375 7.703125 -0.03125 C 6.742188 0.03125 5.8125 -0.03125 4.90625 -0.21875 C 4.007812 -0.40625 3.207031 -0.832031 2.5 -1.5 C 1.75 -2.25 1.289062 -3.144531 1.125 -4.1875 C 0.957031 -5.226562 0.914062 -6.320312 1 -7.46875 C 1.082031 -8.625 1.144531 -9.660156 1.1875 -10.578125 C 1.269531 -12.367188 1.351562 -14.148438 1.4375 -15.921875 C 1.519531 -17.691406 1.601562 -19.476562 1.6875 -21.28125 C 1.769531 -23.363281 1.863281 -25.457031 1.96875 -27.5625 C 2.070312 -29.664062 2.144531 -31.765625 2.1875 -33.859375 C 2.269531 -35.023438 2.269531 -36.316406 2.1875 -37.734375 C 2.101562 -39.148438 2.269531 -40.421875 2.6875 -41.546875 C 3.0625 -42.585938 3.757812 -43.367188 4.78125 -43.890625 C 5.8125 -44.421875 7.015625 -44.757812 8.390625 -44.90625 C 9.765625 -45.050781 11.191406 -45.070312 12.671875 -44.96875 C 14.148438 -44.863281 15.546875 -44.71875 16.859375 -44.53125 C 18.179688 -44.34375 19.257812 -44.1875 20.09375 -44.0625 C 21.050781 -43.9375 21.96875 -43.742188 22.84375 -43.484375 C 23.71875 -43.234375 24.457031 -42.828125 25.0625 -42.265625 C 25.664062 -41.703125 26.03125 -40.859375 26.15625 -39.734375 C 26.320312 -38.566406 26.132812 -37.503906 25.59375 -36.546875 C 25.050781 -35.585938 24.238281 -34.878906 23.15625 -34.421875 C 22.320312 -34.085938 21.488281 -33.984375 20.65625 -34.109375 C 19.820312 -34.234375 18.984375 -34.378906 18.140625 -34.546875 C 17.304688 -34.710938 16.492188 -34.691406 15.703125 -34.484375 C 15.203125 -34.398438 14.703125 -34.066406 14.203125 -33.484375 C 13.703125 -32.898438 13.421875 -32.25 13.359375 -31.53125 C 13.296875 -30.820312 13.617188 -30.195312 14.328125 -29.65625 C 14.867188 -29.28125 15.640625 -29.113281 16.640625 -29.15625 C 17.640625 -29.195312 18.671875 -29.257812 19.734375 -29.34375 C 20.804688 -29.425781 21.675781 -29.34375 22.34375 -29.09375 C 23.425781 -28.675781 24.1875 -28.132812 24.625 -27.46875 C 25.0625 -26.800781 25.320312 -25.925781 25.40625 -24.84375 C 25.570312 -23.550781 25.445312 -22.25 25.03125 -20.9375 C 24.613281 -19.625 23.71875 -18.753906 22.34375 -18.328125 C 21.507812 -18.117188 20.609375 -18.128906 19.640625 -18.359375 C 18.679688 -18.585938 17.742188 -18.753906 16.828125 -18.859375 C 15.910156 -18.972656 15.097656 -18.691406 14.390625 -18.015625 C 13.515625 -17.179688 13.148438 -16.441406 13.296875 -15.796875 C 13.441406 -15.148438 13.890625 -14.597656 14.640625 -14.140625 C 15.390625 -13.679688 16.210938 -13.328125 17.109375 -13.078125 C 18.003906 -12.828125 18.75 -12.679688 19.34375 -12.640625 C 20.21875 -12.597656 21.175781 -12.609375 22.21875 -12.671875 C 23.257812 -12.734375 24.28125 -12.710938 25.28125 -12.609375 C 26.28125 -12.503906 27.15625 -12.160156 27.90625 -11.578125 C 28.613281 -11.078125 29.0625 -10.367188 29.25 -9.453125 C 29.4375 -8.535156 29.46875 -7.601562 29.34375 -6.65625 C 29.21875 -5.71875 29.03125 -4.894531 28.78125 -4.1875 C 28.15625 -2.644531 27.257812 -1.65625 26.09375 -1.21875 C 24.925781 -0.78125 23.550781 -0.519531 21.96875 -0.4375 C 20.050781 -0.351562 18.128906 -0.300781 16.203125 -0.28125 C 14.285156 -0.257812 12.347656 -0.207031 10.390625 -0.125 Z M 10.390625 -0.125 "/></g></g></g><g fill="#000000" fill-opacity="1"><g transform="translate(247.054526, 302.459527)"><g><path d="M 33.734375 -2.125 C 32.359375 -0.789062 31.101562 -0.0820312 29.96875 0 C 28.84375 0.0820312 27.832031 -0.28125 26.9375 -1.09375 C 26.039062 -1.90625 25.257812 -2.976562 24.59375 -4.3125 C 23.925781 -5.65625 23.351562 -7.085938 22.875 -8.609375 C 22.394531 -10.128906 22.007812 -11.566406 21.71875 -12.921875 C 21.425781 -14.273438 21.195312 -15.328125 21.03125 -16.078125 C 20.695312 -15.992188 20.117188 -15.890625 19.296875 -15.765625 C 18.484375 -15.640625 17.703125 -15.492188 16.953125 -15.328125 C 16.203125 -15.160156 15.703125 -14.953125 15.453125 -14.703125 C 15.160156 -14.410156 14.992188 -13.835938 14.953125 -12.984375 C 14.910156 -12.128906 14.847656 -11.492188 14.765625 -11.078125 C 14.472656 -9.867188 14.148438 -8.632812 13.796875 -7.375 C 13.441406 -6.125 12.847656 -5 12.015625 -4 C 10.929688 -2.707031 9.6875 -1.945312 8.28125 -1.71875 C 6.882812 -1.488281 5.582031 -1.75 4.375 -2.5 C 3.164062 -3.25 2.269531 -4.394531 1.6875 -5.9375 C 1.0625 -7.65625 0.8125 -9.554688 0.9375 -11.640625 C 1.0625 -13.722656 1.300781 -15.816406 1.65625 -17.921875 C 2.007812 -20.035156 2.25 -21.96875 2.375 -23.71875 C 2.582031 -26.59375 2.625 -29.539062 2.5 -32.5625 C 2.375 -35.59375 2.539062 -38.503906 3 -41.296875 C 3.289062 -43.054688 4 -44.445312 5.125 -45.46875 C 6.257812 -46.488281 7.671875 -47.207031 9.359375 -47.625 C 11.046875 -48.039062 12.867188 -48.238281 14.828125 -48.21875 C 16.785156 -48.195312 18.734375 -48 20.671875 -47.625 C 22.617188 -47.25 24.40625 -46.757812 26.03125 -46.15625 C 27.65625 -45.550781 28.988281 -44.914062 30.03125 -44.25 C 32.25 -42.820312 33.835938 -41.148438 34.796875 -39.234375 C 35.753906 -37.316406 36.179688 -35.3125 36.078125 -33.21875 C 35.972656 -31.132812 35.398438 -29.082031 34.359375 -27.0625 C 33.316406 -25.039062 31.914062 -23.21875 30.15625 -21.59375 C 30.914062 -20.425781 31.765625 -19.003906 32.703125 -17.328125 C 33.640625 -15.660156 34.421875 -13.898438 35.046875 -12.046875 C 35.671875 -10.191406 35.941406 -8.394531 35.859375 -6.65625 C 35.773438 -4.925781 35.066406 -3.414062 33.734375 -2.125 Z M 14.453125 -23.90625 C 15.660156 -24.363281 16.847656 -24.863281 18.015625 -25.40625 C 19.191406 -25.945312 20.300781 -26.59375 21.34375 -27.34375 C 22.71875 -28.300781 23.488281 -29.25 23.65625 -30.1875 C 23.820312 -31.132812 23.59375 -31.992188 22.96875 -32.765625 C 22.34375 -33.535156 21.488281 -34.140625 20.40625 -34.578125 C 19.320312 -35.015625 18.191406 -35.191406 17.015625 -35.109375 C 16.097656 -35.066406 15.335938 -34.984375 14.734375 -34.859375 C 14.128906 -34.734375 13.703125 -34.253906 13.453125 -33.421875 C 13.203125 -32.671875 13.148438 -31.695312 13.296875 -30.5 C 13.441406 -29.3125 13.648438 -28.125 13.921875 -26.9375 C 14.191406 -25.75 14.367188 -24.738281 14.453125 -23.90625 Z M 14.453125 -23.90625 "/></g></g></g><g fill="#000000" fill-opacity="1"><g transform="translate(284.0313, 302.459527)"><g><path d="M 10.453125 -0.375 C 9.535156 -0.539062 8.507812 -0.738281 7.375 -0.96875 C 6.25 -1.195312 5.1875 -1.539062 4.1875 -2 C 3.1875 -2.457031 2.394531 -3.101562 1.8125 -3.9375 C 1.019531 -5.101562 0.726562 -6.164062 0.9375 -7.125 C 1.144531 -8.09375 1.695312 -8.867188 2.59375 -9.453125 C 3.488281 -10.035156 4.539062 -10.304688 5.75 -10.265625 C 6.507812 -10.265625 7.347656 -10.097656 8.265625 -9.765625 C 9.179688 -9.429688 10.109375 -9.117188 11.046875 -8.828125 C 11.984375 -8.535156 12.867188 -8.460938 13.703125 -8.609375 C 14.535156 -8.753906 15.242188 -9.328125 15.828125 -10.328125 C 16.492188 -11.410156 16.585938 -12.378906 16.109375 -13.234375 C 15.628906 -14.085938 14.921875 -14.816406 13.984375 -15.421875 C 13.046875 -16.023438 12.179688 -16.515625 11.390625 -16.890625 C 8.222656 -18.441406 5.894531 -20.5 4.40625 -23.0625 C 2.925781 -25.625 2.4375 -28.703125 2.9375 -32.296875 C 3.4375 -35.878906 4.875 -38.972656 7.25 -41.578125 C 9.632812 -44.191406 12.535156 -45.976562 15.953125 -46.9375 C 17.617188 -47.4375 19.441406 -47.707031 21.421875 -47.75 C 23.410156 -47.789062 25.175781 -47.332031 26.71875 -46.375 C 27.59375 -45.832031 28.257812 -45.085938 28.71875 -44.140625 C 29.175781 -43.203125 29.289062 -42.285156 29.0625 -41.390625 C 28.832031 -40.492188 28.070312 -39.835938 26.78125 -39.421875 C 25.445312 -39.003906 24.101562 -38.429688 22.75 -37.703125 C 21.394531 -36.972656 20.191406 -36.128906 19.140625 -35.171875 C 18.097656 -34.210938 17.347656 -33.15625 16.890625 -32 C 16.429688 -30.851562 16.390625 -29.65625 16.765625 -28.40625 C 17.140625 -27.15625 18.101562 -25.882812 19.65625 -24.59375 C 20.613281 -23.757812 21.59375 -23 22.59375 -22.3125 C 23.59375 -21.625 24.53125 -20.875 25.40625 -20.0625 C 26.28125 -19.25 26.988281 -18.210938 27.53125 -16.953125 C 28.238281 -15.410156 28.625 -13.734375 28.6875 -11.921875 C 28.75 -10.109375 28.445312 -8.410156 27.78125 -6.828125 C 27.070312 -5.109375 26.070312 -3.75 24.78125 -2.75 C 23.488281 -1.75 22.035156 -1.039062 20.421875 -0.625 C 18.816406 -0.207031 17.160156 0 15.453125 0 C 13.742188 0 12.078125 -0.125 10.453125 -0.375 Z M 10.453125 -0.375 "/></g></g></g><g clip-path="url(#2cfd8a9623)"><path fill="#070505" d="M 237.859375 175.613281 C 238.425781 175.320312 238.71875 175.191406 238.988281 175.023438 C 239.824219 174.496094 240.730469 174.167969 241.710938 174.035156 C 244.566406 173.636719 247.433594 173.484375 250.296875 173.933594 C 252.277344 174.277344 254.144531 174.929688 255.910156 175.890625 C 256.4375 176.183594 256.925781 176.53125 257.375 176.9375 C 257.96875 177.453125 258.507812 178.035156 259.082031 178.570312 C 260.738281 180.105469 261.644531 182.066406 262.246094 184.191406 C 262.410156 184.679688 262.472656 185.183594 262.441406 185.699219 C 262.257812 187.261719 262.117188 188.847656 261.71875 190.363281 C 261.152344 192.515625 259.59375 193.914062 257.621094 194.820312 C 256.460938 195.324219 255.28125 195.367188 254.085938 194.953125 C 253.382812 194.734375 252.691406 194.464844 251.957031 194.203125 C 251.820312 194.316406 251.6875 194.4375 251.558594 194.5625 C 249.910156 196.375 247.808594 197.207031 245.410156 197.386719 C 244.375 197.457031 243.378906 197.300781 242.414062 196.910156 C 241.902344 196.710938 241.390625 196.503906 240.820312 196.273438 C 239.734375 197.101562 238.464844 197.171875 237.144531 197.070312 C 235.039062 196.875 233.066406 196.246094 231.234375 195.191406 C 230.34375 194.671875 229.578125 194.003906 228.945312 193.1875 C 228.710938 192.90625 228.488281 192.609375 228.21875 192.261719 C 227.90625 192.492188 227.613281 192.707031 227.324219 192.921875 C 224.410156 195.101562 221.308594 196.921875 217.820312 198.011719 C 216.097656 198.585938 214.335938 198.957031 212.53125 199.128906 C 209.453125 199.367188 206.429688 199.164062 203.519531 197.996094 C 202.234375 197.480469 200.917969 197.050781 199.570312 196.5625 C 199.40625 197.300781 199.546875 197.9375 199.585938 198.570312 C 199.679688 199.9375 199.453125 201.25 198.917969 202.507812 C 198.519531 203.40625 197.988281 204.210938 197.320312 204.929688 C 195.53125 206.917969 191.894531 207.316406 189.605469 205.421875 C 187.8125 203.9375 186.65625 202.117188 186.359375 199.785156 C 186.34375 199.652344 186.300781 199.519531 186.246094 199.296875 C 186.035156 199.339844 185.824219 199.402344 185.621094 199.484375 C 182.65625 201.050781 179.5 201.832031 176.144531 201.832031 C 175.730469 201.828125 175.308594 201.824219 174.894531 201.855469 C 170.917969 202.140625 167.046875 201.464844 163.199219 200.574219 C 159.105469 199.621094 155.539062 197.601562 152.257812 195.042969 C 151.527344 194.472656 150.847656 193.839844 150.140625 193.238281 C 149.898438 193.03125 149.648438 192.835938 149.34375 192.589844 C 149.09375 192.953125 148.90625 193.257812 148.691406 193.542969 C 146.660156 196.234375 144.078125 198.085938 140.710938 198.679688 C 138.390625 199.089844 137.617188 198.851562 135.824219 197.894531 C 135.636719 198.027344 135.414062 198.175781 135.199219 198.335938 C 133.640625 199.507812 131.890625 200.171875 129.945312 200.324219 C 128.355469 200.457031 126.9375 199.910156 125.605469 199.105469 C 125.25 198.890625 124.917969 198.636719 124.566406 198.394531 C 123.703125 198.550781 122.847656 198.757812 121.980469 198.84375 C 121.335938 198.925781 120.695312 198.902344 120.054688 198.777344 C 116.265625 197.933594 113.886719 195.558594 112.832031 191.859375 C 112.5 190.6875 112.648438 189.460938 112.816406 188.261719 C 113.160156 186.066406 114 184.082031 115.335938 182.304688 C 118.082031 178.5 121.867188 176.347656 126.371094 175.382812 C 127.824219 175.082031 129.289062 174.871094 130.769531 174.757812 C 133.136719 174.558594 135.492188 174.671875 137.746094 175.5625 C 137.851562 175.578125 137.960938 175.574219 138.066406 175.550781 C 138.097656 175.4375 138.105469 175.324219 138.09375 175.207031 C 137.261719 172.714844 137.109375 170.117188 136.964844 167.523438 C 136.753906 164.375 136.722656 161.222656 136.867188 158.066406 C 136.9375 156.773438 136.933594 155.472656 136.933594 154.171875 C 136.882812 152.746094 137.152344 151.386719 137.742188 150.089844 C 137.0625 148.839844 136.441406 147.542969 135.683594 146.335938 C 133.777344 143.277344 132.460938 139.980469 131.730469 136.449219 C 131.078125 133.367188 130.433594 130.285156 130.125 127.136719 C 129.953125 125.148438 129.941406 123.15625 130.082031 121.164062 C 130.339844 116.734375 131.457031 112.476562 132.570312 108.214844 C 133.308594 105.421875 134.378906 102.765625 135.789062 100.246094 C 136.394531 99.152344 136.933594 98.023438 137.496094 96.90625 C 138.476562 94.847656 139.667969 92.917969 141.066406 91.121094 C 141.269531 90.867188 141.464844 90.605469 141.6875 90.371094 C 141.980469 90.03125 142.335938 89.777344 142.75 89.605469 C 143.164062 89.433594 143.59375 89.363281 144.042969 89.390625 C 145.027344 89.425781 145.964844 89.644531 146.863281 90.050781 C 148.84375 90.96875 150.761719 91.988281 152.425781 93.433594 C 152.773438 93.734375 153.121094 94.046875 153.5 94.3125 C 155.519531 95.742188 157.238281 97.492188 158.878906 99.328125 C 160.09375 100.671875 161.191406 102.101562 162.175781 103.625 C 162.871094 104.71875 163.597656 105.796875 164.328125 106.867188 C 165.523438 108.582031 166.574219 110.382812 167.476562 112.265625 C 168.089844 113.511719 168.777344 114.714844 169.542969 115.875 C 169.832031 115.761719 170.054688 115.691406 170.257812 115.59375 C 173.921875 113.863281 177.742188 112.632812 181.722656 111.894531 C 183.765625 111.5 185.804688 111.066406 187.855469 110.695312 C 189.824219 110.347656 191.808594 110.226562 193.808594 110.339844 C 195.195312 110.410156 196.585938 110.480469 197.972656 110.523438 C 199.742188 110.566406 201.476562 110.835938 203.175781 111.328125 C 204.453125 111.699219 205.753906 112 207.082031 112.339844 C 207.265625 111.914062 207.433594 111.535156 207.585938 111.15625 C 208.457031 108.949219 209.511719 106.839844 210.757812 104.824219 C 212.140625 102.628906 213.523438 100.429688 214.96875 98.277344 C 215.71875 97.164062 216.601562 96.144531 217.4375 95.089844 C 218.5 93.746094 219.582031 92.414062 220.644531 91.070312 C 221.476562 90.015625 222.285156 88.941406 223.121094 87.890625 C 223.949219 86.878906 224.890625 85.988281 225.945312 85.222656 C 226.28125 84.976562 226.636719 84.761719 227.003906 84.570312 C 227.492188 84.308594 227.980469 84.296875 228.476562 84.539062 C 229.484375 84.9375 230.34375 85.550781 231.058594 86.371094 C 231.382812 86.765625 231.679688 87.175781 231.953125 87.605469 C 234.5625 91.679688 236.769531 95.933594 238.175781 100.59375 C 239.023438 103.351562 239.554688 106.167969 239.769531 109.042969 C 240.144531 114.417969 240.210938 119.796875 240.125 125.179688 C 240.09375 128.957031 239.542969 132.660156 238.472656 136.285156 C 237.550781 139.339844 236.753906 142.4375 235.929688 145.417969 C 237.609375 148.917969 238.65625 152.597656 239.074219 156.457031 C 239.441406 160.097656 239.691406 163.761719 239.488281 167.429688 C 239.316406 169.65625 238.917969 171.84375 238.296875 173.988281 C 238.179688 174.425781 238.0625 174.863281 237.859375 175.613281 Z M 237.859375 175.613281 " fill-opacity="1" fill-rule="nonzero"/></g><path fill="#f2d5b6" d="M 229.074219 89.1875 C 232.03125 93.453125 234.183594 98.09375 235.535156 103.105469 C 235.976562 104.71875 236.273438 106.359375 236.421875 108.023438 C 236.902344 113.761719 237.070312 119.507812 236.917969 125.261719 C 236.855469 128.855469 236.304688 132.367188 235.269531 135.808594 C 234.546875 138.152344 233.9375 140.535156 233.28125 142.898438 C 233.230469 143.078125 233.207031 143.261719 233.152344 143.441406 C 232.65625 144.984375 232.941406 146.46875 233.527344 147.914062 C 234.550781 150.457031 235.289062 153.085938 235.746094 155.789062 C 235.832031 156.246094 235.886719 156.707031 235.921875 157.167969 C 236.039062 159.066406 236.109375 160.96875 236.253906 162.863281 C 236.542969 166.988281 236.011719 171.007812 234.65625 174.914062 C 233.980469 176.933594 233.226562 178.925781 232.398438 180.890625 C 231.027344 184.089844 229.082031 186.886719 226.5625 189.285156 C 226.070312 189.773438 225.542969 190.230469 224.988281 190.648438 C 221.394531 193.296875 217.472656 195.246094 213.003906 195.832031 C 210.230469 196.195312 207.457031 196.082031 204.789062 195.046875 C 203.796875 194.660156 202.792969 194.308594 201.792969 193.945312 C 199.652344 193.160156 197.671875 192.054688 195.703125 190.925781 C 195.183594 190.628906 194.699219 190.277344 194.175781 189.933594 C 194.136719 188.5 194.09375 187.074219 194.050781 185.53125 C 194.285156 185.371094 194.53125 185.230469 194.789062 185.109375 C 196.941406 184.253906 198.519531 182.757812 199.730469 180.804688 C 201.082031 178.628906 201.742188 176.25 202.011719 173.726562 C 202.171875 172.1875 201.585938 171.039062 200.386719 170.113281 C 199.117188 169.164062 197.691406 168.691406 196.109375 168.695312 C 195.085938 168.667969 194.070312 168.730469 193.0625 168.882812 C 190.546875 169.257812 188.035156 169.6875 185.53125 170.140625 C 184.898438 170.269531 184.28125 170.46875 183.6875 170.734375 C 180.710938 171.964844 180.199219 175.175781 181.28125 177.355469 C 181.515625 177.808594 181.78125 178.242188 182.074219 178.660156 C 183.667969 181.054688 185.660156 183.011719 188.257812 184.3125 C 189.042969 184.703125 189.808594 185.128906 190.589844 185.546875 C 190.871094 186.4375 191.09375 188.835938 190.804688 189.496094 C 190.324219 190.585938 190.003906 191.757812 189.085938 192.636719 C 188.015625 193.664062 187.003906 194.742188 185.773438 195.59375 C 183.25 197.378906 180.445312 198.363281 177.363281 198.546875 C 174.679688 198.707031 171.988281 198.90625 169.316406 198.453125 C 167.21875 198.097656 165.117188 197.71875 163.058594 197.1875 C 159.6875 196.3125 156.753906 194.535156 154.066406 192.359375 C 151.257812 190.066406 148.675781 187.542969 146.320312 184.789062 C 144.605469 182.855469 143.328125 180.667969 142.488281 178.226562 C 141.847656 176.292969 141.269531 174.335938 140.722656 172.375 C 140.585938 171.695312 140.503906 171.011719 140.476562 170.316406 C 141.042969 169.960938 141.566406 170.277344 142.070312 170.460938 C 145.453125 171.6875 148.90625 172.503906 152.539062 172.179688 C 156.089844 171.859375 159.648438 171.589844 163.085938 170.535156 C 164.28125 170.167969 165.492188 169.847656 166.710938 169.558594 C 171.441406 168.453125 175.773438 166.546875 179.175781 162.960938 C 182.988281 158.945312 184.796875 153.988281 185.734375 148.632812 C 186.976562 141.550781 186.210938 134.585938 184.523438 127.679688 C 183.65625 124.121094 182.832031 120.550781 181.941406 116.996094 C 181.800781 116.425781 181.519531 115.835938 181.9375 115.257812 C 183.058594 114.988281 184.179688 114.714844 185.304688 114.449219 C 188.894531 113.585938 192.527344 113.34375 196.203125 113.730469 C 196.800781 113.792969 197.410156 113.757812 198.007812 113.804688 C 198.976562 113.886719 199.949219 113.941406 200.902344 114.109375 C 202.320312 114.347656 203.746094 114.484375 205.183594 114.527344 C 205.457031 114.539062 205.730469 114.558594 206.089844 114.578125 C 206.117188 114.816406 206.152344 115.03125 206.167969 115.246094 C 206.257812 116.425781 206.566406 116.796875 207.691406 117.042969 C 207.828125 117.0625 207.96875 117.078125 208.105469 117.085938 C 208.855469 117.261719 209.398438 117.769531 210 118.203125 C 213.511719 120.722656 216.46875 123.832031 219.367188 127.003906 C 219.832031 127.511719 220.304688 128.035156 220.976562 128.296875 C 221.09375 128.351562 221.210938 128.417969 221.316406 128.5 C 221.472656 128.625 221.605469 128.773438 221.710938 128.945312 C 222.414062 130.296875 223.054688 131.679688 224.039062 132.863281 C 224.515625 133.441406 225.085938 133.902344 225.75 134.242188 C 227.128906 134.957031 227.949219 134.773438 228.992188 133.542969 C 230.335938 131.421875 230.476562 128.980469 230.734375 126.609375 C 231.589844 118.761719 231.058594 111.007812 229.148438 103.347656 C 228.589844 100.941406 227.617188 98.710938 226.242188 96.660156 C 226.527344 94.292969 227.453125 92.089844 228 89.785156 C 228.023438 89.667969 228.074219 89.566406 228.140625 89.46875 C 228.210938 89.375 228.300781 89.296875 228.402344 89.242188 C 228.503906 89.183594 228.613281 89.148438 228.734375 89.140625 C 228.851562 89.132812 228.964844 89.144531 229.074219 89.1875 Z M 229.074219 89.1875 " fill-opacity="1" fill-rule="nonzero"/><path fill="#d1a87d" d="M 181.9375 115.257812 C 182.34375 116.964844 182.746094 118.671875 183.160156 120.375 C 183.839844 123.15625 184.5625 125.929688 185.1875 128.71875 C 185.578125 130.472656 185.835938 132.257812 186.140625 134.027344 C 186.324219 135.117188 186.59375 136.210938 186.625 137.304688 C 186.699219 139.898438 186.75 142.5 186.628906 145.089844 C 186.550781 146.691406 186.125 148.273438 185.886719 149.867188 C 185.585938 151.699219 185.082031 153.46875 184.375 155.1875 C 183.558594 157.363281 182.476562 159.402344 181.132812 161.300781 C 179.609375 163.375 177.804688 165.175781 175.550781 166.421875 C 173.734375 167.425781 171.820312 168.265625 169.917969 169.105469 C 169.140625 169.410156 168.34375 169.632812 167.523438 169.777344 C 165.714844 170.160156 163.953125 170.714844 162.175781 171.203125 C 160.835938 171.539062 159.480469 171.800781 158.113281 171.992188 C 156.796875 172.207031 155.46875 172.347656 154.144531 172.507812 C 153.777344 172.550781 153.40625 172.566406 153.035156 172.566406 C 151.925781 172.570312 150.8125 172.5625 149.699219 172.566406 C 148.023438 172.570312 146.394531 172.296875 144.8125 171.738281 C 143.378906 171.238281 141.921875 170.789062 140.476562 170.316406 C 140.421875 170.144531 140.378906 169.964844 140.355469 169.78125 C 140.105469 165.757812 139.835938 161.738281 140.117188 157.695312 C 140.269531 155.527344 140.203125 153.339844 140.238281 151.160156 C 140.203125 150.839844 140.21875 150.519531 140.289062 150.203125 C 140.621094 149.34375 140.371094 148.558594 140.066406 147.777344 C 139.914062 147.386719 139.738281 147.011719 139.542969 146.640625 C 139.28125 146.097656 138.992188 145.570312 138.671875 145.058594 C 136.371094 141.59375 135.1875 137.714844 134.433594 133.675781 C 134.132812 132.082031 133.820312 130.488281 133.585938 128.886719 C 132.867188 124.003906 133.242188 119.175781 134.367188 114.394531 C 135.023438 111.355469 135.847656 108.363281 136.835938 105.421875 C 136.960938 105.070312 137.070312 104.714844 137.214844 104.375 C 138.53125 101.261719 139.824219 98.132812 141.191406 95.042969 C 141.710938 93.863281 142.410156 92.761719 143.054688 91.578125 C 143.972656 91.804688 144.835938 92.164062 145.644531 92.65625 C 147.296875 93.601562 148.855469 94.683594 150.320312 95.902344 C 150.660156 96.214844 151.019531 96.507812 151.390625 96.785156 C 153.535156 98.285156 155.320312 100.167969 157.019531 102.132812 C 157.660156 102.867188 158.253906 103.636719 158.808594 104.4375 C 160.015625 106.195312 161.203125 107.964844 162.34375 109.765625 C 163.082031 110.9375 163.730469 112.171875 164.40625 113.382812 C 164.882812 114.234375 165.339844 115.089844 165.796875 115.949219 C 166.152344 116.546875 166.46875 117.164062 166.738281 117.804688 C 166.859375 118.148438 167.050781 118.449219 167.304688 118.710938 C 167.558594 118.96875 167.855469 119.164062 168.195312 119.296875 C 168.535156 119.425781 168.886719 119.480469 169.25 119.457031 C 169.613281 119.433594 169.953125 119.335938 170.273438 119.164062 C 171.089844 118.730469 171.964844 118.410156 172.804688 118.019531 C 175.648438 116.746094 178.601562 115.820312 181.664062 115.246094 C 181.753906 115.242188 181.847656 115.242188 181.9375 115.257812 Z M 181.9375 115.257812 " fill-opacity="1" fill-rule="nonzero"/><path fill="#cfa77c" d="M 127.660156 196.496094 C 128.023438 196.148438 128.363281 195.78125 128.683594 195.394531 C 129.15625 194.769531 129.59375 194.121094 129.996094 193.449219 C 130.148438 193.15625 130.21875 192.847656 130.203125 192.519531 C 130.199219 192.316406 130.148438 192.128906 130.054688 191.953125 C 129.957031 191.777344 129.828125 191.632812 129.660156 191.519531 C 129.496094 191.40625 129.3125 191.339844 129.113281 191.316406 C 128.914062 191.292969 128.71875 191.316406 128.53125 191.390625 C 128.066406 191.59375 127.640625 191.867188 127.261719 192.203125 C 126.875 192.527344 126.566406 192.949219 126.210938 193.3125 C 125.25 194.359375 124.082031 195.082031 122.714844 195.472656 C 122.207031 195.59375 121.691406 195.636719 121.171875 195.609375 C 120.652344 195.582031 120.148438 195.480469 119.65625 195.308594 C 119.164062 195.132812 118.707031 194.894531 118.28125 194.59375 C 117.859375 194.289062 117.484375 193.933594 117.164062 193.523438 C 115.851562 191.835938 115.675781 189.980469 116.152344 187.996094 C 116.269531 187.453125 116.445312 186.925781 116.675781 186.417969 C 118.128906 183.449219 120.273438 181.175781 123.316406 179.796875 C 125.371094 178.910156 127.511719 178.355469 129.734375 178.121094 C 131.160156 177.917969 132.589844 177.878906 134.023438 178.007812 C 135.316406 178.167969 136.554688 178.519531 137.742188 179.0625 C 138.375 179.339844 138.992188 179.65625 139.699219 179.996094 C 141.113281 183.957031 143.871094 187.078125 146.796875 190.09375 C 146.640625 190.800781 146.324219 191.421875 145.847656 191.96875 C 144.265625 193.894531 142.308594 195.207031 139.800781 195.589844 C 139.160156 195.6875 138.507812 195.78125 137.941406 195.277344 C 138.179688 194.621094 138.421875 193.972656 138.65625 193.320312 C 138.863281 192.769531 138.835938 192.226562 138.570312 191.699219 C 138.5 191.535156 138.402344 191.394531 138.273438 191.273438 C 138.144531 191.152344 137.996094 191.0625 137.828125 191.007812 C 137.660156 190.949219 137.488281 190.929688 137.3125 190.949219 C 137.136719 190.96875 136.972656 191.023438 136.820312 191.113281 C 136.425781 191.355469 136.097656 191.667969 135.835938 192.050781 C 135.605469 192.453125 135.398438 192.863281 135.21875 193.289062 C 134.242188 195.058594 132.902344 196.402344 130.878906 196.914062 C 129.820312 197.183594 128.789062 197.230469 127.660156 196.496094 Z M 127.660156 196.496094 " fill-opacity="1" fill-rule="nonzero"/><path fill="#cfa77c" d="M 238.511719 194.234375 C 238.269531 194.265625 238.023438 194.261719 237.777344 194.226562 C 236.542969 193.832031 235.316406 193.421875 234.09375 192.996094 C 233.324219 192.734375 232.640625 192.328125 232.039062 191.78125 C 231.4375 191.234375 230.964844 190.59375 230.628906 189.855469 C 230.753906 189.632812 230.894531 189.417969 231.042969 189.210938 C 233.097656 186.726562 234.710938 183.980469 235.882812 180.976562 C 236.1875 180.191406 236.605469 179.609375 237.386719 179.277344 C 237.847656 179.058594 238.292969 178.8125 238.722656 178.535156 C 240.269531 177.617188 241.941406 177.128906 243.738281 177.066406 C 245.445312 176.980469 247.164062 177.003906 248.875 177.027344 C 250.191406 177.042969 251.398438 177.570312 252.632812 177.964844 C 255.011719 178.726562 256.5625 180.496094 258.042969 182.359375 C 258.425781 183.351562 258.824219 184.335938 259.191406 185.335938 C 259.253906 185.5625 259.265625 185.792969 259.21875 186.023438 C 259.085938 186.984375 258.925781 187.945312 258.777344 188.90625 C 258.578125 190.210938 257.757812 191.058594 256.6875 191.703125 C 256.230469 192.003906 255.742188 192.078125 255.21875 191.925781 C 253.742188 191.476562 252.304688 190.980469 251.386719 189.597656 C 251.167969 189.296875 250.910156 189.035156 250.609375 188.8125 C 250.230469 188.503906 249.792969 188.378906 249.308594 188.433594 C 248.992188 188.449219 248.726562 188.570312 248.503906 188.796875 C 248.285156 189.023438 248.171875 189.296875 248.167969 189.613281 C 248.144531 190.136719 248.273438 190.621094 248.542969 191.070312 C 248.746094 191.433594 248.976562 191.78125 249.214844 192.171875 C 249.117188 192.378906 248.988281 192.566406 248.835938 192.734375 C 247.128906 194.109375 245.261719 194.617188 243.144531 193.753906 C 242.496094 193.472656 241.941406 193.066406 241.476562 192.535156 C 241.132812 192.160156 240.808594 191.761719 240.433594 191.417969 C 239.773438 190.820312 238.949219 190.726562 238.40625 191.132812 C 237.851562 191.550781 237.664062 192.367188 237.96875 193.160156 C 238.101562 193.5 238.300781 193.816406 238.511719 194.234375 Z M 238.511719 194.234375 " fill-opacity="1" fill-rule="nonzero"/><path fill="#cea77c" d="M 221.132812 128.585938 C 220.679688 128.648438 220.3125 128.5 220.027344 128.140625 C 218.875 126.886719 217.609375 125.738281 216.503906 124.425781 C 215.488281 123.289062 214.394531 122.234375 213.222656 121.261719 C 212.222656 120.378906 211.152344 119.578125 210.105469 118.742188 C 209.675781 118.398438 209.226562 118.078125 208.796875 117.726562 C 208.554688 117.53125 208.335938 117.300781 208.105469 117.085938 C 208.832031 116.683594 209.300781 116.085938 209.515625 115.285156 C 210.90625 110.921875 213.109375 106.96875 215.609375 103.15625 C 217.289062 100.59375 219.015625 98.082031 221.089844 95.816406 C 221.816406 94.972656 222.492188 94.089844 223.117188 93.171875 C 224.398438 91.40625 225.773438 89.71875 227.25 88.113281 C 227.410156 87.917969 227.554688 87.714844 227.691406 87.5 C 228.261719 87.972656 228.726562 88.535156 229.074219 89.1875 C 228.84375 89.230469 228.644531 89.339844 228.480469 89.515625 C 228.320312 89.6875 228.222656 89.894531 228.195312 90.128906 C 227.859375 92.347656 227.035156 94.429688 226.449219 96.574219 C 226.074219 96.984375 225.488281 96.898438 225.054688 97.171875 C 224.34375 97.472656 223.816406 97.972656 223.472656 98.667969 C 221.746094 101.871094 220.488281 105.25 219.699219 108.800781 C 218.914062 112.355469 218.625 115.949219 218.835938 119.585938 C 218.980469 122.121094 219.867188 124.570312 220.890625 126.925781 C 221.117188 127.445312 221.605469 127.953125 221.132812 128.585938 Z M 221.132812 128.585938 " fill-opacity="1" fill-rule="nonzero"/><path fill="#f7b0aa" d="M 188.699219 197.515625 C 189.402344 196.851562 190.070312 196.214844 190.746094 195.589844 C 190.804688 195.535156 190.914062 195.53125 191.027344 195.496094 C 191.25 196.230469 191.449219 196.980469 191.707031 197.703125 C 191.882812 198.179688 192.105469 198.636719 192.371094 199.070312 C 192.480469 199.242188 192.640625 199.320312 192.847656 199.304688 C 193.054688 199.285156 193.195312 199.179688 193.277344 198.988281 C 193.449219 198.5625 193.59375 198.125 193.703125 197.675781 C 193.933594 196.773438 194.007812 195.851562 193.925781 194.921875 C 193.902344 194.570312 193.921875 194.210938 193.921875 193.765625 C 194.65625 194 195.195312 194.4375 195.8125 194.699219 C 196.136719 196.25 196.429688 197.75 196.386719 199.28125 C 196.382812 200.542969 195.957031 201.640625 195.109375 202.570312 C 194.898438 202.824219 194.648438 203.027344 194.359375 203.179688 C 194.070312 203.332031 193.761719 203.425781 193.433594 203.457031 C 193.109375 203.488281 192.789062 203.457031 192.472656 203.359375 C 192.160156 203.265625 191.875 203.113281 191.621094 202.90625 C 191.003906 202.472656 190.519531 201.917969 190.171875 201.246094 C 189.601562 200.035156 189.113281 198.792969 188.699219 197.515625 Z M 188.699219 197.515625 " fill-opacity="1" fill-rule="nonzero"/><path fill="#040302" d="M 221.132812 128.585938 C 221.0625 128.324219 220.972656 128.066406 220.871094 127.8125 C 219.832031 125.628906 219.195312 123.316406 218.648438 120.96875 C 218.355469 119.652344 218.238281 118.320312 218.300781 116.976562 C 218.382812 114.378906 218.710938 111.816406 219.292969 109.28125 C 219.578125 108.070312 219.859375 106.851562 220.160156 105.640625 C 220.839844 102.925781 222.164062 100.480469 223.425781 98.011719 C 223.777344 97.324219 224.371094 97.035156 225.058594 96.855469 C 226.277344 96.914062 226.722656 97.320312 226.820312 98.589844 C 226.929688 100.03125 226.644531 101.457031 226.449219 102.871094 C 226.019531 106.035156 225.667969 109.214844 225.53125 112.398438 C 225.351562 116.511719 226.398438 120.480469 227.5 124.40625 C 228.128906 126.636719 228.710938 128.875 229.1875 131.140625 C 229.433594 132.058594 229.410156 132.972656 229.109375 133.875 C 228.410156 135.078125 227.570312 135.386719 226.246094 134.867188 C 225.269531 134.511719 224.460938 133.925781 223.824219 133.105469 C 223 132 222.175781 130.894531 221.707031 129.574219 C 221.597656 129.324219 221.46875 129.078125 221.324219 128.84375 C 221.324219 128.730469 221.269531 128.660156 221.15625 128.632812 Z M 221.132812 128.585938 " fill-opacity="1" fill-rule="nonzero"/><path fill="#040302" d="M 213.15625 162.527344 C 209.546875 162.421875 205.957031 159.632812 206.03125 155.152344 C 206.042969 154.675781 206.097656 154.207031 206.203125 153.738281 C 206.304688 153.273438 206.449219 152.824219 206.640625 152.386719 C 206.835938 151.953125 207.066406 151.539062 207.339844 151.148438 C 207.613281 150.757812 207.921875 150.398438 208.265625 150.070312 C 208.609375 149.738281 208.980469 149.445312 209.382812 149.191406 C 209.785156 148.9375 210.207031 148.722656 210.652344 148.550781 C 211.09375 148.378906 211.550781 148.25 212.019531 148.171875 C 212.488281 148.089844 212.960938 148.054688 213.4375 148.066406 C 217.054688 148.136719 220.539062 150.976562 220.480469 155.355469 C 220.417969 159.894531 216.761719 162.550781 213.15625 162.527344 Z M 213.15625 162.527344 " fill-opacity="1" fill-rule="nonzero"/><path fill="#fbb4ad" d="M 229.109375 133.875 C 229.070312 132.484375 228.863281 131.113281 228.492188 129.769531 C 227.964844 127.808594 227.40625 125.851562 226.902344 123.882812 C 226.183594 121.058594 225.484375 118.230469 225.21875 115.320312 C 225.105469 114.214844 225.085938 113.105469 225.164062 111.996094 C 225.402344 108.996094 225.714844 106.007812 226.015625 103.015625 C 226.144531 101.773438 226.320312 100.535156 226.472656 99.296875 C 226.652344 97.820312 226.46875 97.5 225.058594 96.855469 C 225.449219 96.402344 225.980469 96.648438 226.449219 96.574219 C 227.984375 98.261719 228.824219 100.28125 229.296875 102.484375 C 229.820312 104.910156 230.386719 107.328125 230.855469 109.765625 C 231.066406 110.84375 231.03125 111.96875 231.195312 113.054688 C 231.734375 116.601562 231.347656 120.164062 231.445312 123.71875 C 231.460938 124.261719 231.242188 124.808594 231.226562 125.351562 C 231.199219 126.324219 231.035156 127.273438 230.929688 128.234375 C 230.769531 129.65625 230.472656 131.050781 230.039062 132.410156 C 229.863281 132.957031 229.742188 133.597656 229.109375 133.875 Z M 229.109375 133.875 " fill-opacity="1" fill-rule="nonzero"/><path fill="#cea77c" d="M 221.15625 128.632812 C 221.214844 128.703125 221.269531 128.773438 221.324219 128.847656 C 221.269531 128.773438 221.214844 128.703125 221.15625 128.632812 Z M 221.15625 128.632812 " fill-opacity="1" fill-rule="nonzero"/><path fill="#040303" d="M 146.410156 103.019531 C 146.449219 102.992188 146.480469 102.960938 146.511719 102.925781 C 147.378906 101.648438 148.171875 101.480469 149.382812 102.328125 C 150.25 102.964844 150.988281 103.726562 151.601562 104.613281 C 153.289062 106.914062 154.589844 109.398438 155.242188 112.203125 C 155.566406 113.601562 155.988281 114.976562 156.375 116.359375 C 156.910156 118.242188 157.230469 120.15625 157.339844 122.109375 C 157.503906 124.535156 157.003906 126.816406 155.839844 128.949219 C 154.355469 131.597656 152.222656 133.625 149.679688 135.238281 C 149.128906 135.609375 148.523438 135.820312 147.863281 135.875 C 147.09375 135.929688 146.386719 135.847656 145.8125 135.273438 C 145.113281 134.933594 145.179688 134.328125 145.296875 133.722656 C 145.398438 133.261719 145.601562 132.847656 145.90625 132.488281 C 148.46875 129.371094 148.917969 125.640625 149.035156 121.804688 C 149.210938 115.964844 148.433594 110.289062 146.304688 104.820312 C 146.074219 104.226562 145.816406 103.585938 146.410156 103.019531 Z M 146.410156 103.019531 " fill-opacity="1" fill-rule="nonzero"/><path fill="#fcb4ad" d="M 146.410156 103.019531 C 146.332031 103.785156 146.585938 104.476562 146.84375 105.175781 C 147.453125 106.824219 148.097656 108.460938 148.429688 110.199219 C 149.25 114.484375 149.792969 118.792969 149.457031 123.171875 C 149.285156 125.253906 148.890625 127.296875 148.28125 129.292969 C 148.058594 130.058594 147.703125 130.757812 147.214844 131.386719 C 146.847656 131.863281 146.492188 132.347656 146.121094 132.820312 C 145.53125 133.578125 145.339844 134.382812 145.8125 135.273438 C 145.652344 135.324219 145.40625 135.460938 145.351562 135.40625 C 144.96875 135.074219 144.640625 134.695312 144.363281 134.273438 C 143.433594 132.65625 142.925781 130.867188 142.496094 129.070312 C 142.140625 127.597656 141.9375 126.085938 141.683594 124.589844 C 141.644531 124.269531 141.632812 123.945312 141.644531 123.621094 C 141.636719 122 141.664062 120.375 141.625 118.753906 C 141.628906 117.320312 141.789062 115.90625 142.101562 114.503906 C 142.355469 113.195312 142.5 111.863281 142.773438 110.554688 C 143.15625 108.703125 143.527344 106.832031 144.453125 105.15625 C 144.910156 104.40625 145.40625 103.691406 145.953125 103.003906 C 146.082031 102.824219 146.261719 102.847656 146.410156 103.019531 Z M 146.410156 103.019531 " fill-opacity="1" fill-rule="nonzero"/><path fill="#030202" d="M 160.484375 156.839844 C 160.480469 156.375 160.523438 155.914062 160.609375 155.457031 C 160.699219 155 160.828125 154.558594 161.003906 154.128906 C 161.175781 153.699219 161.390625 153.289062 161.644531 152.902344 C 161.902344 152.511719 162.191406 152.152344 162.515625 151.824219 C 162.84375 151.492188 163.199219 151.199219 163.582031 150.9375 C 163.964844 150.675781 164.371094 150.457031 164.800781 150.277344 C 165.226562 150.097656 165.667969 149.960938 166.121094 149.867188 C 166.574219 149.773438 167.035156 149.726562 167.5 149.726562 C 170.761719 149.664062 174.648438 152.175781 174.640625 156.863281 C 174.636719 157.328125 174.589844 157.789062 174.496094 158.242188 C 174.402344 158.695312 174.265625 159.136719 174.085938 159.566406 C 173.90625 159.992188 173.6875 160.398438 173.429688 160.785156 C 173.167969 161.167969 172.875 161.523438 172.546875 161.851562 C 172.21875 162.179688 171.859375 162.46875 171.472656 162.726562 C 171.085938 162.984375 170.679688 163.199219 170.25 163.375 C 169.824219 163.554688 169.382812 163.6875 168.925781 163.773438 C 168.472656 163.863281 168.011719 163.910156 167.550781 163.90625 C 167.085938 163.90625 166.628906 163.863281 166.171875 163.769531 C 165.71875 163.679688 165.277344 163.542969 164.851562 163.367188 C 164.421875 163.1875 164.015625 162.972656 163.628906 162.714844 C 163.246094 162.457031 162.886719 162.164062 162.558594 161.835938 C 162.234375 161.507812 161.941406 161.148438 161.683594 160.761719 C 161.425781 160.378906 161.207031 159.972656 161.027344 159.542969 C 160.851562 159.113281 160.714844 158.671875 160.625 158.21875 C 160.535156 157.761719 160.488281 157.304688 160.484375 156.839844 Z M 160.484375 156.839844 " fill-opacity="1" fill-rule="nonzero"/><g clip-path="url(#10935f27f5)"><g clip-path="url(#e7adea4ff3)"><path fill="#000000" d="M 203.101562 159 L 235.121094 159 L 235.121094 174.824219 L 203.101562 174.824219 Z M 203.101562 159 " fill-opacity="1" fill-rule="nonzero"/></g></g><g clip-path="url(#ddc61d7b88)"><g clip-path="url(#6252745d83)"><path fill="#000000" d="M 205.5 173.25 L 229.785156 173.25 L 229.785156 180.75 L 205.5 180.75 Z M 205.5 173.25 " fill-opacity="1" fill-rule="nonzero"/></g></g><g clip-path="url(#a9b69b2f1d)"><g clip-path="url(#32d874e52c)"><path fill="#000000" d="M 204.824219 179.773438 L 231.367188 179.773438 L 231.367188 202.351562 L 204.824219 202.351562 Z M 204.824219 179.773438 " fill-opacity="1" fill-rule="nonzero"/></g></g><g clip-path="url(#50bf27ec56)"><g clip-path="url(#175272a4c1)"><path fill="#000000" d="M 145.050781 165.75 L 178.742188 165.75 L 178.742188 174.976562 L 145.050781 174.976562 Z M 145.050781 165.75 " fill-opacity="1" fill-rule="nonzero"/></g></g><g clip-path="url(#e37f109dfe)"><g clip-path="url(#081a7e6c4d)"><path fill="#000000" d="M 153.300781 174.074219 L 175.871094 174.074219 L 175.871094 183.074219 L 153.300781 183.074219 Z M 153.300781 174.074219 " fill-opacity="1" fill-rule="nonzero"/></g></g><g clip-path="url(#9c462c2796)"><g clip-path="url(#e01ddb54d6)"><path fill="#000000" d="M 158.550781 182.324219 L 179.691406 182.324219 L 179.691406 195.523438 L 158.550781 195.523438 Z M 158.550781 182.324219 " fill-opacity="1" fill-rule="nonzero"/></g></g></svg>